<svg id="Capa_1" enable-background="new 0 0 512 512" height="512" viewBox="0 0 512 512" width="512" xmlns="http://www.w3.org/2000/svg"><g id="XMLID_1522_"><path id="XMLID_1409_" d="m79.166 90.7v106.5h55.167v-26.736c0-5.853 4.745-10.597 10.597-10.597 18.448 0 33.403-14.955 33.403-33.403v-18.839c0-11.038-4.185-21.664-11.711-29.738z" fill="#f4c6af"/><path id="XMLID_1408_" d="m175.143 292.7 12.142-26.933c8.332-18.481 2.276-40.275-14.395-51.809l-24.725-17.105c-8.662-5.993-13.832-15.855-13.832-26.389l-6.333 22.736-48.834 12.236v63.277l40.64 49.269z" fill="#ff7a7a"/><path id="XMLID_1407_" d="m452.717 480.77h-117.262c-11.021 0-19.955-8.934-19.955-19.955 0-9.908 7.27-18.316 17.074-19.746l79.768-11.639z" fill="#f4c6af"/><path id="XMLID_1406_" d="m483.205 392.221-70.33 31.6 23.125 56.949h16.717c27.253-.208 49.283-22.356 49.283-49.657 0-15.759-7.348-29.793-18.795-38.892z" fill="#a0c8ff"/><path id="XMLID_1405_" d="m412.875 423.821-10.375-49.904h20-68.044c-6.817 0-13.049-3.85-16.099-9.947-4.658-9.31-.472-20.619 9.125-24.652l61.955-26.035c25.493-10.713 54.549 3.733 61.396 30.524l12.373 48.414z" fill="#f4c6af"/><circle id="XMLID_1404_" cx="403.613" cy="272.916" fill="#f4c6af" r="39.121"/><circle id="XMLID_1403_" cx="291.024" cy="317.981" fill="#d5ea7a" r="25.16"/><path id="XMLID_1402_" d="m205 428.384h-155.06c-22.058 0-39.94 17.882-39.94 39.94v16.707c0 14.88 17.991 22.333 28.513 11.811l11.179-11.179c3.132-3.132 7.381-4.892 11.811-4.892h173.806c21.839 0 39.543-17.704 39.543-39.543 0-13.312-6.698-25.731-17.822-33.043l-156.196-102.675-15.209-12.81-11.586 19.687c-17.14 29.098-13.303 65.971 9.46 90.917 14.579 15.977 35.209 25.08 56.838 25.08h27.742z" fill="#f4c6af"/><path id="XMLID_1401_" d="m84.807 294.09-10.768 18.296c-17.14 29.098-13.303 65.971 9.46 90.917 14.579 15.977 35.209 25.08 56.838 25.08h27.742l47.469-47.467z" fill="#ff7a7a"/><path id="XMLID_2056_" d="m129.166 261.097v-48.295c0-13.807-11.193-25-25-25-13.807 0-25 11.193-25 25v53.528c0 15.563 7.831 30.081 20.835 38.63l110.271 72.486c6.263 4.117 14.722 1.703 17.868-5.1 7.863-17.004 2.624-37.194-12.515-48.229z" fill="#f4c6af"/><path id="XMLID_1400_" d="m80.535 170.168v-23.003c0-30.357 24.609-54.965 54.965-54.965 22.644 0 41-18.356 41-41 0-22.644-18.356-41-41-41h-20.499c-39.984 0-72.343 32.516-72.149 72.5-20.726 16.087-32.852 40.85-32.852 67.087v20.381c0 19.478 15.79 35.267 35.267 35.267 19.478 0 35.268-15.79 35.268-35.267z" fill="#ffd88e"/><g id="XMLID_85_"><path id="XMLID_538_" d="m262.521 399.827-28.254-18.573c1.163-1.429 2.161-3.005 2.95-4.712 9.833-21.261 3.229-46.708-15.7-60.507l-34.566-25.194 9.451-20.963c10.317-22.886 2.822-49.862-17.822-64.144l-24.725-17.105c-5.962-4.125-9.521-10.916-9.521-18.165 0-.329.269-.597.598-.597 23.933 0 43.402-19.47 43.402-43.403v-18.839c0-10.811-3.233-21.216-9.208-30.032 4.679-7.704 7.375-16.74 7.375-26.393 0-28.122-22.879-51-51-51h-20.499c-22.019 0-42.697 8.595-58.229 24.202-14.379 14.447-22.727 33.276-23.803 53.461-21.014 18.056-32.97 44.003-32.97 71.924v20.381c0 24.96 20.307 45.267 45.268 45.267 8.89 0 17.182-2.586 24.185-7.031-.182 1.442-.286 2.907-.286 4.397v53.528c0 8.764 2.04 17.214 5.774 24.81l-9.517 16.171c-9.503 16.132-13.502 34.503-11.564 53.125 1.938 18.623 9.633 35.777 22.254 49.607 2.736 2.999 5.669 5.779 8.765 8.34h-34.94c-27.537.001-49.939 22.405-49.939 49.942v16.706c0 11.006 6.316 20.459 16.484 24.671 3.407 1.411 6.924 2.1 10.388 2.1 6.874 0 13.538-2.715 18.711-7.889l11.181-11.179c1.266-1.266 2.948-1.963 4.739-1.963h37.164c5.522 0 10-4.478 10-10s-4.478-10-10-10h-37.164c-7.133 0-13.839 2.777-18.881 7.82l-11.181 11.18c-2.857 2.857-6.06 1.969-7.304 1.452-1.243-.514-4.137-2.149-4.137-6.192v-16.706c0-16.509 13.431-29.94 29.939-29.94h155.061c5.522 0 10-4.478 10-10s-4.478-10-10-10h-12.366l24.474-24.474 34.427 22.63c8.338 5.48 13.315 14.71 13.315 24.688 0 16.29-13.253 29.543-29.543 29.543h-46.641c-5.522 0-10 4.478-10 10s4.478 10 10 10h46.641c27.318 0 49.543-22.225 49.543-49.543.001-16.733-8.347-32.21-22.329-41.401zm-43.458-31.679c-.359.778-.978 1.096-1.433 1.226-.453.13-1.148.186-1.865-.285l-110.271-72.485c-10.225-6.721-16.329-18.038-16.329-30.273v-53.528c0-8.271 6.729-15 15-15s15 6.729 15 15v48.296c0 3.195 1.527 6.199 4.109 8.081l86.46 63.019c11.248 8.196 15.172 23.315 9.329 35.949zm-51.863-145.967c12.705 8.79 17.318 25.392 10.969 39.477l-7.73 17.148-31.272-22.794v-43.21c0-4.344-.802-8.502-2.254-12.343 1.707 1.679 3.56 3.231 5.564 4.618zm1.133-95.718c0 12.904-10.498 23.403-23.402 23.403-11.357 0-20.598 9.24-20.598 20.597 0 5.739 1.187 11.321 3.37 16.456-6.221-5.662-14.483-9.118-23.537-9.118-5.363 0-10.446 1.216-14.993 3.381.885-3.528 1.362-7.216 1.362-11.014v-23.003c0-24.794 20.172-44.965 44.966-44.965 10.945 0 21.086-3.477 29.403-9.368 2.238 4.56 3.43 9.602 3.43 14.793v18.838zm-123.065 68.972c-13.933 0-25.268-11.335-25.268-25.267v-20.381c0-23.317 10.564-44.89 28.983-59.188 2.454-1.905 3.883-4.841 3.868-7.948-.081-16.658 6.346-32.334 18.097-44.142 11.75-11.807 27.395-18.31 44.053-18.31h20.499c17.094 0 31 13.907 31 31s-13.906 31-31 31c-35.822 0-64.966 29.144-64.966 64.965v23.003c0 13.933-11.335 25.268-25.266 25.268zm119.081 222.948h-24.012c-18.773 0-36.798-7.953-49.451-21.82-19.929-21.84-23.236-53.628-8.229-79.104l5.375-9.133c2.024 1.797 4.174 3.476 6.477 4.99l105.532 69.375z"/><path id="XMLID_558_" d="m492.103 386.65-11.582-45.317c-3.984-15.591-14.533-28.642-28.942-35.805-2.761-1.373-5.61-2.497-8.514-3.382 6.072-8.173 9.671-18.288 9.671-29.23 0-27.086-22.036-49.122-49.122-49.122s-49.121 22.036-49.121 49.122c0 18.049 9.792 33.845 24.336 42.383l-35.219 14.8c-5.905 2.482-10.772 6.948-13.791 12.531l-7.891-7.891c2.714-4.985 4.258-10.695 4.258-16.759 0-19.387-15.772-35.159-35.159-35.159-19.388 0-35.16 15.772-35.16 35.159 0 19.388 15.772 35.16 35.16 35.16 6.064 0 11.774-1.544 16.759-4.258l44.364 44.365c1.953 1.952 4.512 2.929 7.071 2.929s5.118-.977 7.071-2.929c2.532-2.532 3.411-6.081 2.661-9.33h25.414l7.674 36.909-70.908 10.346c-14.611 2.133-25.63 14.875-25.63 29.642 0 16.518 13.438 29.956 29.955 29.956h117.263.076c32.643-.249 59.203-27.012 59.203-59.657 0-17.12-7.21-33.134-19.897-44.463zm-88.491-142.856c16.058 0 29.122 13.064 29.122 29.122s-13.064 29.121-29.122 29.121-29.121-13.063-29.121-29.121 13.064-29.122 29.121-29.122zm-127.748 74.187c0-8.358 6.801-15.159 15.16-15.159 8.358 0 15.159 6.801 15.159 15.159 0 8.359-6.801 15.16-15.159 15.16-8.359 0-15.16-6.801-15.16-15.16zm146.636 45.936h-68.044c-3.05 0-5.792-1.694-7.156-4.422-1.002-2.002-1.126-4.26-.349-6.358s2.341-3.732 4.404-4.6l61.955-26.035c9.467-3.978 20.168-3.638 29.363.934s15.927 12.899 18.47 22.849l10.29 40.262-51.302 23.05-5.339-25.679h7.707c5.522 0 10-4.478 10-10s-4.477-10.001-9.999-10.001zm-97 96.897c0-4.907 3.662-9.143 8.518-9.851l74.662-10.894 12.466 30.7h-85.691c-5.489.001-9.955-4.465-9.955-9.955zm127.218 9.956h-9.985l-16.965-41.779 55.543-24.955c6.851 7.304 10.689 16.898 10.689 27.077 0 21.701-17.656 39.492-39.282 39.657z"/><path id="XMLID_577_" d="m143.67 470.773c-2.64 0-5.22 1.06-7.08 2.93-1.86 1.86-2.92 4.43-2.92 7.07 0 2.63 1.06 5.21 2.92 7.069 1.87 1.86 4.44 2.931 7.08 2.931 2.63 0 5.21-1.07 7.07-2.931 1.859-1.859 2.93-4.439 2.93-7.069 0-2.641-1.07-5.21-2.93-7.07-1.86-1.87-4.44-2.93-7.07-2.93z"/></g></g></svg>