<svg id="Capa_1" enable-background="new 0 0 512.022 512.022" height="512" viewBox="0 0 512.022 512.022" width="512" xmlns="http://www.w3.org/2000/svg"><g id="XMLID_1472_"><path id="XMLID_3209_" d="m334 10.011h-284c-22.091 0-40 17.909-40 40v364c0 22.091 17.909 40 40 40h284c22.091 0 40-17.909 40-40v-364c0-22.091-17.909-40-40-40z" fill="#ffe4b4"/><path id="XMLID_3208_" d="m382 58.011h-284c-22.091 0-40 17.909-40 40v364c0 22.091 17.909 40 40 40h284c22.091 0 40-17.909 40-40v-364c0-22.091-17.909-40-40-40z" fill="#fff1d8"/><ellipse id="XMLID_3198_" cx="408.838" cy="310.528" fill="#ff7a7a" rx="146.368" ry="61.022" transform="matrix(.628 -.778 .778 .628 -89.527 433.852)"/><g id="XMLID_33_"><path id="XMLID_34_" d="m148.5 126.011h-40c-5.523 0-10 4.477-10 10s4.477 10 10 10h40c5.523 0 10-4.477 10-10s-4.477-10-10-10z"/><path id="XMLID_52_" d="m248.5 126.011h-40c-5.523 0-10 4.477-10 10s4.477 10 10 10h40c5.523 0 10-4.477 10-10s-4.477-10-10-10z"/><path id="XMLID_66_" d="m308.5 146.011h40c5.523 0 10-4.477 10-10s-4.477-10-10-10h-40c-5.523 0-10 4.477-10 10s4.477 10 10 10z"/><path id="XMLID_502_" d="m148.5 190.011h-40c-5.523 0-10 4.477-10 10s4.477 10 10 10h40c5.523 0 10-4.477 10-10s-4.477-10-10-10z"/><path id="XMLID_503_" d="m308.5 210.011h40c5.523 0 10-4.477 10-10s-4.477-10-10-10h-40c-5.523 0-10 4.477-10 10s4.477 10 10 10z"/><path id="XMLID_514_" d="m248.5 190.011h-40c-5.523 0-10 4.477-10 10s4.477 10 10 10h40c5.523 0 10-4.477 10-10s-4.477-10-10-10z"/><path id="XMLID_515_" d="m248.5 254.011h-40c-5.523 0-10 4.478-10 10s4.477 10 10 10h40c5.523 0 10-4.478 10-10s-4.477-10-10-10z"/><path id="XMLID_516_" d="m148.5 254.011h-40c-5.523 0-10 4.478-10 10s4.477 10 10 10h40c5.523 0 10-4.478 10-10s-4.477-10-10-10z"/><path id="XMLID_517_" d="m248.5 318.011h-40c-5.523 0-10 4.478-10 10s4.477 10 10 10h40c5.523 0 10-4.478 10-10s-4.477-10-10-10z"/><path id="XMLID_518_" d="m148.5 318.011h-40c-5.523 0-10 4.478-10 10s4.477 10 10 10h40c5.523 0 10-4.478 10-10s-4.477-10-10-10z"/><path id="XMLID_520_" d="m148.5 382.011h-40c-5.523 0-10 4.478-10 10s4.477 10 10 10h40c5.523 0 10-4.478 10-10s-4.477-10-10-10z"/><path id="XMLID_521_" d="m248.5 382.011h-40c-5.523 0-10 4.478-10 10s4.477 10 10 10h40c5.523 0 10-4.478 10-10s-4.477-10-10-10z"/><path id="XMLID_525_" d="m510.656 195.481c-.609-5.455-5.501-9.398-10.959-8.838-23.787 2.442-46.572 8.659-67.697 18.272v-106.904c0-26.916-21.381-48.921-48.05-49.95-1.03-26.669-23.034-48.05-49.95-48.05h-284c-27.57 0-50 22.43-50 50v364c0 26.916 21.381 48.921 48.05 49.95 1.03 26.669 23.034 48.05 49.95 48.05h284c27.57 0 50-22.43 50-50v-74.615c11.674-9.5 22.448-20.285 32.124-32.284 36.455-45.207 52.98-101.899 46.532-159.631zm-98.656 266.53c0 16.542-13.458 30-30 30h-284c-16.542 0-30-13.458-30-30v-364c0-16.542 13.458-30 30-30h97c5.523 0 10-4.477 10-10s-4.477-10-10-10h-97c-27.57 0-50 22.43-50 50v345.926c-15.612-1.034-28-14.057-28-29.926v-364c0-16.542 13.458-30 30-30h284c15.869 0 28.892 12.388 29.926 28h-78.926c-5.523 0-10 4.477-10 10s4.477 10 10 10h97c16.542 0 30 13.458 30 30v117.324c-22.076 13.022-41.864 30.046-58.447 50.61-36.418 45.16-52.945 101.783-46.55 159.456-4.482 11.003-8.311 22.355-11.436 34.021-1.43 5.334 1.736 10.817 7.071 12.247.867.232 1.738.344 2.595.344 4.415 0 8.456-2.947 9.653-7.415 2.853-10.648 6.332-21.019 10.401-31.073 31.305-4.267 60.729-15.103 86.714-31.675v60.161zm36.556-119.454c-28.931 35.875-68.587 59.919-113.158 68.989 22.849-44.227 57.881-81.026 102.055-106.395 4.79-2.751 6.442-8.862 3.692-13.652-2.751-4.788-8.863-6.442-13.652-3.691-42.35 24.321-76.889 58.406-101.315 99.201 2.849-39.45 17.573-77.047 42.944-108.508 30.945-38.373 74.158-63.213 122.532-70.668 2.965 48.855-12.154 96.351-43.098 134.724z"/><path id="XMLID_534_" d="m240 68.011c2.63 0 5.21-1.07 7.07-2.93s2.93-4.44 2.93-7.07-1.07-5.21-2.93-7.07-4.44-2.93-7.07-2.93-5.21 1.07-7.07 2.93-2.93 4.44-2.93 7.07 1.07 5.21 2.93 7.07 4.44 2.93 7.07 2.93z"/></g></g></svg>