<svg id="Capa_1" enable-background="new 0 0 512 512" height="512" viewBox="0 0 512 512" width="512" xmlns="http://www.w3.org/2000/svg"><g id="XMLID_1185_"><g id="XMLID_3371_"><path id="XMLID_127_" d="m420.399 502c0-14.989-2.856-29.305-8.054-42.433h-312.69c-5.198 13.128-8.054 27.444-8.054 42.433z" fill="#a0c8ff"/></g><g id="XMLID_3370_"><path id="XMLID_72_" d="m376.217 446.854c0 8.365 6.781 15.146 15.146 15.146 31.35 0 56.764-25.414 56.764-56.764 0-85.337-69.179-154.516-154.516-154.516h-37.357-.508-37.357c-85.337 0-154.516 69.179-154.516 154.516 0 31.35 25.414 56.764 56.764 56.764 8.365 0 15.146-6.781 15.146-15.146z" fill="#a0c8ff"/></g><g id="XMLID_81_"><path d="m276 336c-11.046 0-20 8.954-20 20 0-11.046-8.954-20-20-20h-100.217v166h240.434v-166z" fill="#f8f8f8"/></g><g id="XMLID_3351_"><path d="m161.309 434.367-4.489 4.489c-10.734 10.734-28.138 10.734-38.872 0-10.734-10.734-10.734-28.138 0-38.872l4.489-4.489c10.734-10.734 28.138-10.734 38.872 0 10.734 10.734 10.734 28.137 0 38.872z" fill="#f4c6af"/></g><g id="XMLID_3347_"><path d="m350.691 434.367 4.489 4.489c10.734 10.734 28.138 10.734 38.872 0 10.734-10.734 10.734-28.138 0-38.872l-4.489-4.489c-10.734-10.734-28.138-10.734-38.872 0-10.734 10.734-10.734 28.137 0 38.872z" fill="#f4c6af"/></g><g id="XMLID_35_"><path d="m288.518 226.924v35.635c0 17.959-14.559 32.518-32.518 32.518-17.959 0-32.518-14.559-32.518-32.518v-35.635z" fill="#f4c6af"/></g><g id="XMLID_3372_"><path d="m324.873 114v67.72c0 38.108-30.892 69-69 69-38.108 0-69-30.892-69-69v-67.72z" fill="#f4c6af"/></g><g id="XMLID_80_"><path d="m331.78 56.577c.037-.745.057-1.495.057-2.249 0-24.482-19.847-44.328-44.329-44.328-12.392 0-23.591 5.091-31.635 13.288-8.044-8.197-19.243-13.288-31.635-13.288-24.482 0-44.328 19.846-44.328 44.328 0 .754.02 1.504.057 2.249-17.646 3.951-30.836 19.698-30.836 38.536 0 21.816 17.686 39.501 39.501 39.501 14.209 0 26.662-7.506 33.621-18.766 6.959 11.26 19.411 18.766 33.621 18.766s26.662-7.506 33.621-18.766c6.959 11.26 19.411 18.766 33.621 18.766 21.816 0 39.501-17.685 39.501-39.501-.001-18.838-13.191-34.585-30.837-38.536z" fill="#c68966"/></g><g id="XMLID_128_"><path id="XMLID_144_" d="m458.127 405.236c0-17.485-2.731-34.703-8.117-51.174-1.718-5.25-7.366-8.113-12.613-6.396-5.249 1.717-8.113 7.364-6.396 12.613 4.729 14.46 7.127 29.586 7.127 44.957 0 25.16-19.976 45.733-44.899 46.717 2.825-1.615 5.486-3.618 7.895-6.027 14.615-14.616 14.615-38.397-.001-53.014l-4.488-4.488c-3.079-3.079-6.599-5.554-10.417-7.371v-45.053c0-5.523-4.478-10-10-10h-100.218c-7.678 0-14.688 2.902-20 7.663-5.312-4.761-12.322-7.663-20-7.663h-100.217c-5.522 0-10 4.477-10 10v45.053c-3.818 1.817-7.338 4.292-10.416 7.37l-4.49 4.489c-14.615 14.616-14.615 38.397 0 53.014 2.409 2.409 5.07 4.412 7.895 6.026-24.923-.984-44.898-21.557-44.898-46.717 0-78.043 62.186-141.826 139.608-144.424v1.746c0 23.444 19.074 42.518 42.519 42.518s42.519-19.074 42.519-42.518v-1.751c31.131 1.02 60.375 11.735 84.852 31.159 1.839 1.459 4.032 2.167 6.21 2.167 2.947 0 5.866-1.297 7.84-3.784 3.434-4.326 2.709-10.616-1.616-14.049-25.642-20.349-55.875-32.311-88.145-34.999 16.655-14.495 27.214-35.822 27.214-59.582v-38.529c21.635-5.293 37.742-24.835 37.742-48.078 0-20.267-12.655-38.464-31.019-45.91-2.591-27.561-25.861-49.201-54.089-49.201-11.523 0-22.476 3.554-31.636 10.15-9.159-6.596-20.111-10.15-31.635-10.15-28.229 0-51.499 21.64-54.089 49.203-18.364 7.446-31.019 25.643-31.019 45.91 0 23.243 16.107 42.785 37.742 48.078v38.529c0 23.783 10.58 45.129 27.262 59.625-84.065 7.25-150.262 77.98-150.262 163.892 0 24.842 13.648 46.544 33.831 58.041-4.048 12.458-6.104 25.447-6.104 38.723 0 5.523 4.478 10 10 10s10-4.477 10-10c0-10.809 1.614-21.387 4.8-31.543 4.59 1.001 9.35 1.543 14.236 1.543 1.764 0 3.484-.184 5.146-.531v30.53c0 5.523 4.478 10 10 10h120.219 120.217c5.522 0 10-4.477 10-10v-30.531c1.662.347 3.383.531 5.146.531 4.886 0 9.646-.542 14.236-1.543 3.187 10.157 4.8 20.734 4.8 31.543 0 5.523 4.478 10 10 10s10-4.477 10-10c0-13.276-2.056-26.266-6.104-38.723 20.184-11.498 33.832-33.199 33.832-58.041zm-202.127-120.16c-12.417 0-22.519-10.102-22.519-22.518v-5.09c7.104 2.104 14.614 3.252 22.392 3.252 7.869 0 15.467-1.172 22.646-3.324v5.162c0 12.417-10.102 22.518-22.519 22.518zm-96.869-189.963c0-13.688 9.682-25.791 23.021-28.777 4.75-1.063 8.044-5.394 7.802-10.256-.028-.58-.045-1.164-.045-1.751 0-18.929 15.401-34.329 34.329-34.329 9.284 0 17.984 3.655 24.497 10.292 1.881 1.917 4.453 2.996 7.138 2.996s5.257-1.08 7.138-2.996c6.512-6.637 15.213-10.292 24.498-10.292 18.929 0 34.328 15.4 34.328 34.329 0 .587-.016 1.171-.044 1.751-.242 4.862 3.052 9.192 7.802 10.256 13.339 2.987 23.021 15.089 23.021 28.777 0 16.267-13.233 29.501-29.5 29.501-10.299 0-19.688-5.243-25.114-14.024-1.822-2.948-5.041-4.743-8.507-4.743s-6.685 1.794-8.506 4.742c-5.429 8.782-14.817 14.024-25.115 14.024s-19.687-5.243-25.115-14.024c-1.821-2.948-5.04-4.742-8.506-4.742s-6.685 1.794-8.507 4.743c-5.427 8.781-14.814 14.024-25.113 14.024-16.268 0-29.502-13.234-29.502-29.501zm37.742 86.607v-37.797c9.56-1.589 18.345-5.91 25.379-12.448 9.019 8.38 20.904 13.139 33.621 13.139s24.603-4.759 33.621-13.139c7.035 6.538 15.819 10.858 25.379 12.448v37.797c0 32.533-26.468 59-59 59s-59-26.468-59-59zm190.107 250.064c-3.303 3.303-7.694 5.122-12.364 5.122-4.671 0-9.062-1.819-12.365-5.122l-4.488-4.488c-3.303-3.303-5.122-7.694-5.122-12.365s1.819-9.062 5.122-12.365c3.303-3.302 7.693-5.121 12.364-5.121s9.062 1.819 12.365 5.122l4.488 4.488c6.818 6.818 6.818 17.911 0 24.729zm-261.961-24.729 4.49-4.489c3.303-3.302 7.693-5.121 12.364-5.121s9.062 1.819 12.364 5.122 5.122 7.694 5.122 12.365-1.819 9.062-5.122 12.365l-4.488 4.488c-3.303 3.303-7.694 5.122-12.365 5.122-4.67 0-9.062-1.819-12.364-5.122-6.818-6.819-6.818-17.912-.001-24.73zm20.764 48.878c6.64-1.516 12.946-4.846 18.108-10.007l4.488-4.488c7.08-7.081 10.979-16.494 10.979-26.507s-3.899-19.427-10.979-26.507c-6.15-6.151-14.062-9.896-22.597-10.775v-31.649h90.218c5.514 0 10 4.486 10 10v136h-100.217zm120.217 36.067v-136c0-5.514 4.486-10 10-10h90.217v31.649c-8.535.879-16.447 4.625-22.597 10.775-7.08 7.081-10.979 16.494-10.979 26.507s3.899 19.427 10.979 26.507l4.488 4.488c5.162 5.161 11.468 8.491 18.108 10.007v36.067z"/><path id="XMLID_155_" d="m420.399 326.91c2.63 0 5.21-1.06 7.07-2.93 1.86-1.86 2.93-4.43 2.93-7.07 0-2.63-1.069-5.21-2.93-7.07s-4.44-2.93-7.07-2.93c-2.64 0-5.21 1.07-7.069 2.93-1.86 1.86-2.931 4.44-2.931 7.07 0 2.64 1.07 5.21 2.931 7.07 1.859 1.87 4.43 2.93 7.069 2.93z"/><path id="XMLID_156_" d="m255.873 214.626c7.872 0 15.745-2.997 21.738-8.989 3.905-3.905 3.905-10.237 0-14.142s-10.235-3.905-14.143 0c-4.188 4.188-11.004 4.188-15.191 0-3.906-3.905-10.238-3.905-14.143 0s-3.905 10.237 0 14.142c5.994 5.993 13.867 8.989 21.739 8.989z"/></g></g></svg>