<svg id="Capa_1" enable-background="new 0 0 512 512" height="512" viewBox="0 0 512 512" width="512" xmlns="http://www.w3.org/2000/svg"><g id="XMLID_1238_"><path id="XMLID_2882_" d="m364.667 136.833c0-40.225-32.608-72.833-72.833-72.833-8.697 0-17.036 1.53-24.768 4.327-10.729-33.818-42.364-58.327-79.733-58.327s-69.004 24.509-79.732 58.327c-7.732-2.797-16.071-4.327-24.768-4.327-40.225 0-72.833 32.609-72.833 72.833 0 39.051 30.734 70.918 69.333 72.745v121.755c0 20.251 16.417 36.667 36.667 36.667h142.667c20.25 0 36.667-16.416 36.667-36.667v-121.755c38.598-1.827 69.333-33.694 69.333-72.745z" fill="#f8f8f8"/><path id="XMLID_1252_" d="m79.333 301.386v29.948c0 20.25 16.417 36.666 36.667 36.666h142.667c20.25 0 36.667-16.416 36.667-36.667v-29.948h-216.001z" fill="#ffd88e"/><path id="XMLID_2701_" d="m462 170h-154c-22.091 0-40 17.909-40 40v252c0 22.091 17.909 40 40 40h154c22.091 0 40-17.909 40-40v-252c0-22.091-17.909-40-40-40z" fill="#bedaff"/><path id="XMLID_2749_" d="m268 210h234v236h-234z" fill="#ff7a7a"/><path id="XMLID_2745_" d="m375.465 300.622 41.353 23.875c8.855 5.113 8.855 17.894 0 23.006l-41.353 23.875c-8.855 5.113-19.924-1.278-19.924-11.503v-47.75c0-10.225 11.069-16.616 19.924-11.503z" fill="#fff"/><g id="XMLID_271_"><path id="XMLID_274_" d="m462 160h-90.644c2.177-7.503 3.31-15.324 3.31-23.167 0-45.674-37.159-82.833-82.833-82.833-6.329 0-12.58.711-18.678 2.12-14.761-33.933-48.124-56.12-85.822-56.12-37.697 0-71.06 22.187-85.822 56.12-6.098-1.409-12.349-2.12-18.678-2.12-45.674 0-82.833 37.159-82.833 82.833 0 41.077 30.06 75.249 69.333 81.716v112.785c0 25.731 20.935 46.666 46.667 46.666h142v84c0 27.57 22.43 50 50 50h154c27.57 0 50-22.43 50-50v-252c0-27.57-22.43-50-50-50zm28.28 40h-61.28c-5.523 0-10 4.477-10 10s4.477 10 10 10h63v216h-214v-216h61c5.523 0 10-4.477 10-10s-4.477-10-10-10h-59.28c4.128-11.639 15.243-20 28.28-20h154c13.036 0 24.152 8.361 28.28 20zm-470.28-63.167c0-34.646 28.187-62.833 62.833-62.833 7.333 0 14.521 1.255 21.367 3.73 2.558.925 5.384.768 7.825-.436 2.44-1.204 4.285-3.351 5.107-5.944 9.745-30.714 37.956-51.35 70.201-51.35s60.457 20.636 70.2 51.351c.823 2.594 2.667 4.74 5.107 5.944 2.441 1.204 5.267 1.361 7.825.436 6.847-2.476 14.035-3.731 21.368-3.731 34.646 0 62.833 28.187 62.833 62.833 0 8.063-1.504 15.826-4.429 23.167h-42.237c-21.152 0-39.265 13.209-46.558 31.806-11.452-6.366-20.825-16.25-26.47-28.227-2.354-4.996-8.312-7.138-13.309-4.782-4.996 2.354-7.137 8.313-4.782 13.309 8.438 17.901 23.195 32.272 41.119 40.328v78.95h-20v-35.384c0-5.523-4.477-10-10-10s-10 4.477-10 10v35.386h-20.667v-52.886c0-5.523-4.477-10-10-10s-10 4.477-10 10v52.886h-20.667v-35.386c0-5.523-4.477-10-10-10s-10 4.477-10 10v35.386h-47.333v-71.986c29.359-2.34 55.765-20.375 68.452-47.293 2.355-4.996.214-10.955-4.782-13.309-4.995-2.355-10.955-.213-13.309 4.782-10.333 21.922-32.652 36.087-56.861 36.087-34.646 0-62.833-28.188-62.833-62.834zm96 221.167c-14.704 0-26.667-11.962-26.667-26.667v-19.948h168.667v46.615zm346 134h-154c-16.542 0-30-13.458-30-30v-6h214v6c0 16.542-13.458 30-30 30z"/><path id="XMLID_1155_" d="m345.541 359.875c0 8.417 4.352 15.955 11.641 20.164 3.646 2.104 7.643 3.156 11.642 3.156 3.998 0 7.997-1.052 11.641-3.156l41.354-23.875c7.289-4.209 11.641-11.747 11.641-20.164s-4.352-15.955-11.641-20.164l-41.353-23.875c-7.289-4.209-15.993-4.208-23.283 0-7.289 4.208-11.641 11.747-11.641 20.164v47.75zm20-47.75c0-1.649 1.028-2.489 1.642-2.843.361-.208.942-.458 1.651-.458.492 0 1.046.12 1.631.458l41.353 23.875c1.429.825 1.642 2.135 1.642 2.843s-.213 2.019-1.641 2.843l-41.353 23.875c-1.429.823-2.67.353-3.282 0-.613-.354-1.642-1.194-1.642-2.843v-47.75z"/><path id="XMLID_1158_" d="m384 220c2.63 0 5.21-1.07 7.07-2.93s2.93-4.44 2.93-7.07-1.07-5.21-2.93-7.07-4.44-2.93-7.07-2.93-5.21 1.07-7.07 2.93-2.93 4.44-2.93 7.07 1.07 5.21 2.93 7.07 4.44 2.93 7.07 2.93z"/></g></g></svg>