<svg id="Capa_1" enable-background="new 0 0 512.154 512.154" height="512" viewBox="0 0 512.154 512.154" width="512" xmlns="http://www.w3.org/2000/svg"><g id="XMLID_1165_"><g id="XMLID_1230_"><path id="XMLID_234_" d="m380 343.072h-330c-22.091 0-40-17.909-40-40v-233c0-22.091 17.909-40 40-40h330c22.091 0 40 17.909 40 40v233c0 22.091-17.909 40-40 40z" fill="#f8f8f8"/></g><g id="XMLID_2577_"><path id="XMLID_233_" d="m178 343.072h74v64h-74z" fill="#bedaff"/></g><g id="XMLID_2575_"><path id="XMLID_224_" d="m10 279.072v24c0 22.091 17.909 40 40 40h330c22.091 0 40-17.909 40-40v-24z" fill="#bedaff"/></g><g id="XMLID_2852_"><g id="XMLID_2209_"><path d="m189.667 70.072h56v40h-56z" fill="#ff7a7a"/></g><g id="XMLID_2724_"><path id="XMLID_220_" d="m293.667 118.572h56v40h-56z" fill="#ffd88e"/></g><g id="XMLID_2727_"><path id="XMLID_215_" d="m80.333 118.572h56v40h-56z" fill="#ffd88e" transform="matrix(-1 0 0 -1 216.666 277.143)"/></g><g id="XMLID_1167_"><path id="XMLID_197_" d="m244 239.072v-26h-58v26h-23v40h104v-40z" fill="#9da5be"/></g></g><g id="XMLID_1163_"><path id="XMLID_202_" d="m360.413 322.298h33.094l17.961-13.555c9.821-7.412 21.789-11.421 34.093-11.421 31.256 0 56.594 25.338 56.594 56.594v82.615c0 25.158-20.394 45.552-45.552 45.552-11.647 0-22.852-4.462-31.312-12.468l-32.786-31.03c-4.168-3.945-9.689-6.143-15.427-6.143-5.739 0-11.259 2.198-15.427 6.143l-32.786 31.03c-8.459 8.006-19.664 12.468-31.312 12.468-25.158 0-45.552-20.394-45.552-45.552v-82.615c0-31.256 25.338-56.594 56.594-56.594 12.304 0 24.272 4.01 34.093 11.421l17.961 13.555z" fill="#ff7a7a"/></g><g id="XMLID_201_"><path id="XMLID_1087_" d="m255.667 110.071v-40c0-5.523-4.478-10-10-10h-56c-5.522 0-10 4.477-10 10v40c0 5.523 4.478 10 10 10h15.534c.927 4.564 4.962 8 9.799 8s8.873-3.436 9.799-8h20.868c5.522 0 10-4.477 10-10zm-20-10h-36v-20h36z"/><path id="XMLID_1172_" d="m293.667 108.571c-5.522 0-10 4.477-10 10v40c0 5.523 4.478 10 10 10h56c5.522 0 10-4.477 10-10v-40c0-5.523-4.478-10-10-10zm46 40h-36v-20h36z"/><path id="XMLID_1175_" d="m80.333 108.571c-5.522 0-10 4.477-10 10v40c0 5.523 4.478 10 10 10h56c5.522 0 10-4.477 10-10v-40c0-5.523-4.478-10-10-10zm46 40h-36v-20h36z"/><path id="XMLID_1178_" d="m215 145.357c-5.522 0-10 4.477-10 10v12.429c0 5.523 4.478 10 10 10s10-4.477 10-10v-12.429c0-5.523-4.478-10-10-10z"/><path id="XMLID_1218_" d="m445.56 287.321c-5.249 0-10.477.642-15.561 1.87v-10.091c0-.01.001-.019.001-.029s-.001-.019-.001-.029l.001-72.47c0-5.523-4.478-10-10-10s-10 4.477-10 10v62.5h-133v-30c0-5.523-4.478-10-10-10h-13v-16c0-5.523-4.478-10-10-10h-19.201c-.927-4.564-4.962-8-9.799-8s-8.873 3.436-9.799 8h-19.201c-5.522 0-10 4.477-10 10v16h-13c-5.522 0-10 4.477-10 10v30h-133v-199c0-16.542 13.458-30 30-30h330c16.542 0 30 13.458 30 30v46.5c0 5.523 4.478 10 10 10s10-4.477 10-10v-46.5c0-27.57-22.43-50-50-50h-330c-27.57 0-50 22.43-50 50v233c0 27.57 22.43 50 50 50h118v44h-39.333c-5.522 0-10 4.477-10 10s4.478 10 10 10h113.333v19.459c0 30.632 24.921 55.552 55.552 55.552 14.265 0 27.826-5.4 38.186-15.205l32.787-31.03c2.32-2.196 5.358-3.406 8.553-3.406s6.232 1.209 8.553 3.406l32.787 31.029c10.359 9.806 23.921 15.206 38.186 15.206 30.631 0 55.552-24.92 55.552-55.552v-82.615c-.002-36.721-29.876-66.595-66.596-66.595zm-35.56 10.297c-1.561.983-3.083 2.029-4.558 3.142l-15.286 11.537h-26.158l-15.287-11.537c-7.439-5.614-16.041-9.582-25.085-11.689h86.374zm-237-48.547h13c5.522 0 10-4.477 10-10v-16h38v16c0 5.523 4.478 10 10 10h13v20h-84zm-153 54v-14h273.484c-22.658 5.279-40.903 22.147-48.125 44h-195.359c-16.542 0-30-13.458-30-30zm168 94v-44h54v.844 43.156zm304.154 39.46c0 19.604-15.948 35.552-35.552 35.552-9.129 0-17.808-3.456-24.438-9.731l-32.787-31.029c-6.051-5.727-13.971-8.88-22.301-8.88s-16.25 3.154-22.301 8.88l-32.787 31.03c-6.63 6.275-15.309 9.731-24.438 9.731-19.604 0-35.552-15.949-35.552-35.552v-82.615c0-25.692 20.902-46.594 46.595-46.594 10.065 0 20.033 3.339 28.068 9.403l17.96 13.555c1.735 1.31 3.851 2.018 6.024 2.018h32.859c2.174 0 4.289-.708 6.024-2.018l17.959-13.555c8.036-6.064 18.005-9.403 28.07-9.403 25.691 0 46.594 20.902 46.594 46.594v82.614z"/><path id="XMLID_1233_" d="m336.668 373.071h-11.5v-11.5c0-5.523-4.478-10-10-10s-10 4.477-10 10v11.5h-11.5c-5.522 0-10 4.477-10 10s4.478 10 10 10h11.5v11.5c0 5.523 4.478 10 10 10s10-4.477 10-10v-11.5h11.5c5.522 0 10-4.477 10-10s-4.478-10-10-10z"/><path id="XMLID_1289_" d="m433.917 346.987c-2.63 0-5.21 1.07-7.07 2.93-1.859 1.86-2.93 4.44-2.93 7.07s1.07 5.21 2.93 7.07 4.44 2.93 7.07 2.93 5.21-1.07 7.07-2.93c1.859-1.86 2.93-4.44 2.93-7.07s-1.07-5.21-2.93-7.07-4.44-2.93-7.07-2.93z"/><path id="XMLID_1290_" d="m433.917 399.157c-2.63 0-5.21 1.07-7.07 2.93-1.859 1.86-2.93 4.44-2.93 7.07s1.07 5.21 2.93 7.07 4.44 2.93 7.07 2.93 5.21-1.07 7.07-2.93c1.859-1.86 2.93-4.44 2.93-7.07s-1.07-5.21-2.93-7.07-4.44-2.93-7.07-2.93z"/><path id="XMLID_1365_" d="m407.827 373.077c-2.63 0-5.21 1.06-7.07 2.92-1.86 1.87-2.93 4.44-2.93 7.07 0 2.64 1.069 5.21 2.93 7.07 1.86 1.87 4.44 2.93 7.07 2.93 2.64 0 5.21-1.06 7.08-2.93 1.859-1.86 2.92-4.43 2.92-7.07 0-2.63-1.061-5.2-2.92-7.07-1.87-1.86-4.44-2.92-7.08-2.92z"/><path id="XMLID_1367_" d="m459.997 373.077c-2.63 0-5.21 1.06-7.07 2.92-1.859 1.86-2.93 4.44-2.93 7.07s1.07 5.21 2.93 7.07c1.86 1.87 4.44 2.93 7.07 2.93s5.21-1.06 7.07-2.93c1.859-1.86 2.93-4.43 2.93-7.07 0-2.63-1.07-5.21-2.93-7.07s-4.43-2.92-7.07-2.92z"/><path id="XMLID_1411_" d="m412.927 154.497c-1.859 1.87-2.93 4.44-2.93 7.07 0 2.64 1.07 5.21 2.93 7.07 1.86 1.87 4.44 2.93 7.07 2.93s5.21-1.06 7.08-2.93c1.859-1.86 2.92-4.43 2.92-7.07 0-2.63-1.061-5.2-2.92-7.07-1.87-1.86-4.45-2.93-7.08-2.93s-5.21 1.07-7.07 2.93z"/></g></g></svg>