<svg id="Capa_1" enable-background="new 0 0 512 512" height="512" viewBox="0 0 512 512" width="512" xmlns="http://www.w3.org/2000/svg"><g id="XMLID_908_"><path id="XMLID_3143_" d="m43 190v312h426v-312l-213-143.5z" fill="#f8f8f8"/><path id="XMLID_1393_" d="m403.667 105.726v-52.059h44.333v84.499z" fill="#9da5be"/><g id="XMLID_916_"><path id="XMLID_1111_" d="m468.675 209.679-212.675-141.967-212.675 141.967-26.65-39.923 239.325-159.756 239.325 159.756z" fill="#ff7a7a"/></g><g id="XMLID_1035_"><path id="XMLID_1073_" d="m468.675 209.679-212.675-141.967-212.675 141.967-26.65-39.923 239.325-159.756 239.325 159.756z" fill="#ff7a7a"/></g><path id="XMLID_3079_" d="m195.185 502 153.407-231.975 153.408 231.975z" fill="#ffd88e"/><path id="XMLID_1387_" d="m348.592 399.666h67.675v102.334z" fill="#f7e4bf"/><path id="XMLID_1385_" d="m280.918 502 67.674-102.334 67.675 102.334z" fill="#9da5be"/><circle id="XMLID_1754_" cx="118.39" cy="345.549" fill="#bedaff" r="20"/><circle id="XMLID_1753_" cx="204.337" cy="358.471" fill="#ff7a7a" r="20"/><circle id="XMLID_1610_" cx="108" cy="243.273" fill="#ffd88e" r="20"/><circle id="XMLID_1605_" cx="195.185" cy="238.614" fill="#bedaff" r="20"/><circle id="XMLID_1604_" cx="281.033" cy="213.915" fill="#d5ea7a" r="20"/><circle id="XMLID_1603_" cx="353.5" cy="170.925" fill="#ffd88e" r="20"/><g id="XMLID_1039_"><path id="XMLID_1113_" d="m510.341 496.484-31.341-47.392v-236.868l24.642-36.917c3.066-4.594 1.828-10.803-2.766-13.869l-42.876-28.621v-79.15c0-5.522-4.477-10-10-10h-44.333c-5.523 0-10 4.478-10 10v36.206l-132.115-88.191c-3.361-2.244-7.743-2.242-11.104 0l-74.905 50.001c-4.594 3.066-5.832 9.275-2.766 13.869 3.067 4.594 9.277 5.833 13.869 2.766l69.354-46.295 225.456 150.498-15.546 23.289-204.358-136.416c-3.36-2.244-7.743-2.244-11.104 0l-204.358 136.416-15.545-23.289 81.247-54.234c4.594-3.066 5.832-9.275 2.766-13.869-3.066-4.593-9.275-5.831-13.869-2.766l-89.564 59.786c-4.594 3.066-5.832 9.275-2.766 13.869l24.641 36.917v279.776h-23c-5.523 0-10 4.478-10 10s4.477 10 10 10h492c3.681 0 7.065-2.022 8.808-5.265s1.564-7.18-.467-10.251zm-96.674-432.817h24.333v55.8l-24.333-16.243zm-53.086 206.358 11.445-17.307c3.047-4.606 1.782-10.811-2.825-13.856-4.605-3.047-10.81-1.782-13.857 2.825l-6.752 10.209-6.751-10.209c-3.046-4.607-9.25-5.872-13.857-2.825-4.606 3.046-5.872 9.25-2.825 13.856l11.445 17.307-5.605 8.476c-80.098 68.97-200.939 66.393-277.999-7.717v-48.267c9.528 2.45 19.153 4.479 28.843 6.091-2.443 4.34-3.843 9.341-3.843 14.665 0 16.542 13.458 30 30 30s30-13.458 30-30c0-3.52-.614-6.897-1.733-10.038.598.003 1.195.016 1.793.016 9.283 0 18.572-.38 27.841-1.133-.464 2.093-.716 4.265-.716 6.496 0 16.542 13.458 30 30 30s30-13.458 30-30c0-5.669-1.582-10.975-4.325-15.502 10.209-2.539 20.281-5.538 30.178-8.991.112 16.447 13.522 29.793 29.995 29.793 16.542 0 30-13.458 30-30 0-8.699-3.725-16.542-9.66-22.027 7.852-4.25 15.537-8.802 23.032-13.653 3.273 13.02 15.074 22.689 29.095 22.689 16.542 0 30-13.458 30-30 0-2.257-.259-4.453-.733-6.568l76.233 50.889v203.605zm45.686 198.725-39.073-59.083h39.073zm-47.675-79.083v-86.391l57.132 86.391zm-144.255-31.196c0 5.514-4.486 10-10 10s-10-4.486-10-10 4.486-10 10-10 10 4.486 10 10zm-85.947-12.922c0 5.514-4.486 10-10 10s-10-4.486-10-10 4.486-10 10-10 10 4.486 10 10zm-10.39-102.276c0 5.514-4.486 10-10 10s-10-4.486-10-10 4.486-10 10-10 10 4.487 10 10zm87.185-4.659c0 5.514-4.486 10-10 10s-10-4.486-10-10 4.486-10 10-10 10 4.486 10 10zm85.848-24.699c0 5.514-4.486 10-10 10s-10-4.486-10-10 4.486-10 10-10 10 4.486 10 10zm62.467-52.99c5.514 0 10 4.486 10 10s-4.486 10-10 10-10-4.486-10-10 4.486-10 10-10zm-97.5-81.19 88.393 59.005c-76.542 63.687-179.794 88.418-276.745 66.726zm-203 217.782c13.422 10.979 27.923 20.282 43.239 27.822-4.873 5.336-7.849 12.431-7.849 20.209 0 16.542 13.458 30 30 30s30-13.458 30-30c0-.72-.035-1.432-.085-2.14 9.21 1.972 18.583 3.375 28.078 4.193-1.316 3.373-2.046 7.036-2.046 10.868 0 16.542 13.458 30 30 30s30-13.458 30-30c0-4.547-1.022-8.858-2.84-12.724 24.759-3.844 48.506-11.725 70.456-23.324l-112.143 169.579h-136.81zm285.592 5.759v93.384l-63.049 95.34h-61.756zm-39.071 188.724 49.072-74.204 49.072 74.204zm126.746 0v-86.391l57.131 86.391z"/><path id="XMLID_1134_" d="m143.67 94.979c2.63 0 5.2-1.06 7.07-2.92 1.86-1.87 2.93-4.439 2.93-7.08 0-2.63-1.07-5.199-2.93-7.069-1.87-1.86-4.44-2.931-7.07-2.931-2.64 0-5.21 1.07-7.07 2.931-1.87 1.87-2.93 4.439-2.93 7.069 0 2.641 1.06 5.21 2.93 7.08 1.86 1.861 4.43 2.92 7.07 2.92z"/></g></g></svg>