<svg id="Capa_1" enable-background="new 0 0 512 512" height="512" viewBox="0 0 512 512" width="512" xmlns="http://www.w3.org/2000/svg"><g id="XMLID_1489_"><path id="XMLID_1769_" d="m409 177h-306c-12.703 0-23 10.297-23 23v21h352v-21c0-12.702-10.297-23-23-23z" fill="#ff7a7a"/><g fill="#c68966"><path id="XMLID_1768_" d="m367.5 121h-23c-9.113 0-16.5 7.387-16.5 16.5v23c0 9.113 7.387 16.5 16.5 16.5h23c9.113 0 16.5-7.387 16.5-16.5v-23c0-9.112-7.387-16.5-16.5-16.5z"/><path id="XMLID_1767_" d="m267.5 121h-23c-9.113 0-16.5 7.387-16.5 16.5v23c0 9.113 7.387 16.5 16.5 16.5h23c9.113 0 16.5-7.387 16.5-16.5v-23c0-9.112-7.387-16.5-16.5-16.5z"/><path id="XMLID_1766_" d="m167.5 121h-23c-9.113 0-16.5 7.387-16.5 16.5v23c0 9.113 7.387 16.5 16.5 16.5h23c9.113 0 16.5-7.387 16.5-16.5v-23c0-9.112-7.387-16.5-16.5-16.5z"/></g><path id="XMLID_1763_" d="m134.117 437.086 28.639-58.836 39.738 13.947-33.338 68.488z" fill="#b5bac6"/><path id="XMLID_1760_" d="m349.244 378.25 45.6 93.678c6.763 13.894-3.355 30.072-18.807 30.072-8.003 0-15.304-4.566-18.807-11.762l-47.724-98.041z" fill="#b5bac6"/><circle id="XMLID_1759_" cx="137.976" cy="469.583" fill="#9da5be" r="32.418"/><path id="XMLID_1728_" d="m432 221c0 97.202-78.798 176-176 176s-176-78.798-176-176z" fill="#e0e1e7"/><g id="XMLID_62_"><path id="XMLID_63_" d="m341.372 305.067c-22.703 23.053-53.022 35.748-85.372 35.748-5.522 0-10 4.478-10 10s4.478 10 10 10c37.75 0 73.13-14.814 99.622-41.715 3.875-3.935 3.827-10.267-.108-14.142-3.936-3.876-10.267-3.827-14.142.109z"/><path id="XMLID_563_" d="m467.4 211h-25.4v-11c0-18.196-14.804-33-33-33h-15.809c.527-2.081.809-4.258.809-6.5v-23c0-14.612-11.888-26.5-26.5-26.5h-23c-14.612 0-26.5 11.888-26.5 26.5v23c0 2.242.282 4.419.809 6.5h-25.618c.527-2.081.809-4.258.809-6.5v-23c0-14.612-11.888-26.5-26.5-26.5h-23c-14.612 0-26.5 11.888-26.5 26.5v23c0 2.242.282 4.419.809 6.5h-25.618c.527-2.081.809-4.258.809-6.5v-23c0-14.612-11.888-26.5-26.5-26.5h-23c-14.612 0-26.5 11.888-26.5 26.5v23c0 2.242.282 4.419.809 6.5h-15.809c-18.196 0-33 14.804-33 33v11h-25.399c-5.522 0-10 4.477-10 10s4.478 10 10 10h25.67c3.21 60.298 35.273 113.061 82.599 144.712l-25.732 52.862c-18.155 4.802-31.579 21.365-31.579 41.008 0 23.39 19.028 42.418 42.418 42.418 23.389 0 42.417-19.028 42.417-42.418 0-2.622-.251-5.186-.709-7.678l29.617-60.843c14.927 3.874 30.576 5.939 46.698 5.939s31.771-2.065 46.699-5.939l45.54 93.554c5.141 10.561 16.052 17.385 27.798 17.385 10.727 0 20.525-5.43 26.213-14.523s6.28-20.281 1.585-29.926l-44.704-91.839c47.326-31.651 79.388-84.414 82.599-144.712h25.67c5.522 0 10-4.477 10-10s-4.478-10-10-10zm-129.4-50.5v-23c0-3.584 2.916-6.5 6.5-6.5h23c3.584 0 6.5 2.916 6.5 6.5v23c0 3.584-2.916 6.5-6.5 6.5h-23c-3.584 0-6.5-2.916-6.5-6.5zm-100 0v-23c0-3.584 2.916-6.5 6.5-6.5h23c3.584 0 6.5 2.916 6.5 6.5v23c0 3.584-2.916 6.5-6.5 6.5h-23c-3.584 0-6.5-2.916-6.5-6.5zm-100 0v-23c0-3.584 2.916-6.5 6.5-6.5h23c3.584 0 6.5 2.916 6.5 6.5v23c0 3.584-2.916 6.5-6.5 6.5h-23c-3.584 0-6.5-2.916-6.5-6.5zm-.023 331.5c-12.361 0-22.418-10.057-22.418-22.418 0-12.36 10.057-22.417 22.418-22.417 12.36 0 22.417 10.057 22.417 22.417 0 12.362-10.057 22.418-22.417 22.418zm30.205-52.16c-5.139-5.219-11.616-9.109-18.869-11.124l20.816-42.764c6.43 3.361 13.081 6.355 19.923 8.958zm217.671 36.465c1.683 3.456 1.479 7.308-.56 10.567-2.038 3.259-5.412 5.128-9.256 5.128-4.147 0-8.001-2.409-9.816-6.139l-44.272-90.951c6.842-2.603 13.492-5.597 19.923-8.958zm-129.853-89.305c-88.175 0-160.5-69.106-165.69-156h120.85c5.522 0 10-4.477 10-10s-4.478-10-10-10h-121.16v-11c0-7.168 5.832-13 13-13h306c7.168 0 13 5.832 13 13v11h-120.84c-5.522 0-10 4.477-10 10s4.478 10 10 10h120.53c-5.189 86.894-77.515 156-165.69 156z"/><path id="XMLID_570_" d="m97.588 63c0 9.345 3.64 18.13 10.248 24.738 1.952 1.953 4.511 2.929 7.07 2.929s5.119-.977 7.071-2.929c3.905-3.906 3.905-10.237-.001-14.142-2.83-2.83-4.389-6.593-4.389-10.595s1.559-7.765 4.39-10.596c13.64-13.641 13.64-35.835 0-49.476-3.906-3.905-10.236-3.905-14.143 0-3.905 3.905-3.905 10.237 0 14.143 5.843 5.842 5.843 15.349.001 21.191-6.607 6.607-10.247 15.393-10.247 24.737z"/><path id="XMLID_571_" d="m201.898 87.738c1.953 1.953 4.512 2.929 7.071 2.929s5.118-.976 7.071-2.929c3.905-3.905 3.905-10.237 0-14.143-5.843-5.842-5.843-15.348 0-21.191 13.64-13.641 13.64-35.835 0-49.476-3.906-3.905-10.236-3.905-14.143 0-3.905 3.905-3.905 10.237 0 14.143 5.843 5.842 5.843 15.349 0 21.191-13.639 13.641-13.639 35.835.001 49.476z"/><path id="XMLID_572_" d="m295.96 87.738c1.953 1.953 4.512 2.929 7.071 2.929s5.118-.976 7.071-2.929c3.905-3.905 3.905-10.237 0-14.143-5.843-5.842-5.843-15.348 0-21.191 13.64-13.641 13.64-35.835 0-49.476-3.906-3.905-10.236-3.905-14.143 0-3.905 3.905-3.905 10.237 0 14.143 5.843 5.842 5.843 15.349 0 21.191-13.639 13.641-13.639 35.835.001 49.476z"/><path id="XMLID_573_" d="m390.023 87.738c1.953 1.953 4.512 2.929 7.071 2.929s5.118-.976 7.071-2.929c3.905-3.905 3.905-10.237 0-14.143-5.843-5.842-5.843-15.348 0-21.19 6.607-6.608 10.247-15.394 10.247-24.738s-3.64-18.13-10.248-24.738c-3.904-3.905-10.237-3.905-14.142 0s-3.905 10.237.001 14.142c2.83 2.83 4.389 6.593 4.389 10.595s-1.559 7.766-4.39 10.596c-13.639 13.641-13.639 35.835.001 49.476z"/><path id="XMLID_574_" d="m256.16 231.16c2.63 0 5.21-1.07 7.069-2.93 1.86-1.86 2.931-4.44 2.931-7.07s-1.07-5.21-2.931-7.07c-1.859-1.86-4.439-2.93-7.069-2.93s-5.21 1.07-7.07 2.93-2.93 4.44-2.93 7.07 1.069 5.21 2.93 7.07c1.86 1.86 4.44 2.93 7.07 2.93z"/></g></g></svg>