<svg id="Capa_1" enable-background="new 0 0 512 512" height="512" viewBox="0 0 512 512" width="512" xmlns="http://www.w3.org/2000/svg"><g id="XMLID_1263_"><path id="XMLID_1328_" d="m174.002 459.045v-390.474l275.284-58.571v58.571z" fill="#bedaff"/><path id="XMLID_1311_" d="m174.002 68.571h327.998v390.474h-327.998z" fill="#ffd88e"/><g id="XMLID_1359_"><path id="XMLID_1307_" d="m338.001 304.333-58.261-58.261c-16.088-16.088-16.088-42.173 0-58.261 16.088-16.088 42.173-16.088 58.261 0 16.088-16.088 42.173-16.088 58.261 0 16.088 16.088 16.088 42.173 0 58.261z" fill="#ff7a7a"/><path id="XMLID_1306_" d="m396.262 246.072c16.088-16.089 16.088-42.173 0-58.261-16.088-16.088-42.173-16.088-58.261 0v116.523z" fill="#ffbcbc"/></g><g id="XMLID_1303_"><g id="XMLID_1374_"><path id="XMLID_1375_" d="m196.002 502c-34.187 0-62-27.813-62-62s27.813-62 62-62 62 27.813 62 62-27.814 62-62 62zm0-84c-12.131 0-22 9.869-22 22s9.869 22 22 22 22-9.869 22-22-9.87-22-22-22z" fill="#a0c8ff"/></g><path id="XMLID_1373_" d="m134.002 440v-203.875c0-23.719 16.742-44.14 40-48.792v194.703z" fill="#a0c8ff"/></g><g id="XMLID_1297_"><g id="XMLID_1299_"><path id="XMLID_1300_" d="m28.13 344.661c24.174-24.174 63.508-24.174 87.681 0s24.174 63.508 0 87.681-63.508 24.174-87.681 0-24.173-63.508 0-87.681zm28.284 28.284c-8.578 8.578-8.578 22.535 0 31.113s22.535 8.578 31.113 0 8.578-22.535 0-31.113-22.535-8.578-31.113 0z" fill="#bedaff"/></g><path id="XMLID_1298_" d="m115.811 432.342 144.161-144.161c16.772-16.772 19.374-43.05 6.217-62.785l-137.676 137.676z" fill="#bedaff"/></g><g id="XMLID_292_"><path id="XMLID_813_" d="m502 58.571h-42.714v-48.571c0-3.018-1.362-5.874-3.708-7.772-2.346-1.899-5.422-2.635-8.374-2.009l-275.191 58.551c-.021.004-.042.009-.062.013l-.03.006v.001c-4.524.958-7.919 4.971-7.919 9.78v111.167c-23.601 8.287-40 30.814-40 56.387v102.642c-.375-.392-.734-.792-1.119-1.177-28.072-28.072-73.75-28.072-101.823 0-13.581 13.581-21.06 31.662-21.06 50.913 0 19.25 7.479 37.332 21.059 50.911 13.58 13.581 31.661 21.06 50.912 21.06s37.332-7.479 50.912-21.059l1.163-1.163c-.014.583-.044 1.163-.044 1.749 0 39.701 32.299 72 72 72 29.368 0 54.67-17.684 65.859-42.955h77.139c5.523 0 10-4.477 10-10s-4.477-10-10-10h-71.587c.374-2.966.588-5.98.588-9.045 0-39.701-32.299-72-72-72-.587 0-1.166.03-1.749.044l72.792-72.792c8.76-8.76 14.294-19.738 16.441-31.293l47.445 47.445c1.875 1.875 4.419 2.929 7.071 2.929s5.196-1.054 7.071-2.929l58.261-58.261c19.961-19.962 19.961-52.442 0-72.404-17.747-17.746-45.39-19.714-65.333-5.906-19.942-13.807-47.585-11.839-65.333 5.906-10.673 10.673-15.634 24.925-14.893 38.929l-73.773 73.773v-214.87h307.999v370.474h-63c-5.523 0-10 4.477-10 10s4.477 10 10 10h73c5.523 0 10-4.477 10-10v-390.474c0-5.523-4.477-10-10-10zm-253.999 381.429c0 28.673-23.327 52-52 52s-52-23.327-52-52 23.327-52 52-52 52 23.327 52 52zm191.285-381.429h-170.232l170.232-36.22zm-275.285 143.065v111.805l-20 20v-97.316c0-14.506 7.931-27.543 20-34.489zm-128.8 223.635c-9.803-9.803-15.201-22.861-15.201-36.769 0-13.909 5.398-26.967 15.202-36.77 10.138-10.139 23.452-15.206 36.769-15.206 13.314 0 26.633 5.07 36.77 15.206 20.275 20.275 20.275 53.265 0 73.539-9.803 9.803-22.861 15.202-36.77 15.202-13.909-.001-26.967-5.399-36.77-15.202zm217.7-144.161-109.002 109.002c.184-8.3-1.05-16.622-3.712-24.572l122.96-122.96c3.623 13.447.012 28.273-10.246 38.53zm136.29-86.228c12.164 12.164 12.164 31.955 0 44.119l-41.19 41.19v-87.883c12.228-9.511 29.959-8.658 41.19 2.574zm-102.381 0c6.083-6.083 14.07-9.123 22.06-9.123 6.764 0 13.524 2.189 19.131 6.55v87.883l-41.19-41.192c-12.165-12.163-12.165-31.955-.001-44.118z"/><path id="XMLID_851_" d="m384 348h-91.999c-5.523 0-10 4.477-10 10s4.477 10 10 10h91.999c5.523 0 10-4.477 10-10s-4.477-10-10-10z"/><path id="XMLID_1122_" d="m196.001 472c17.645 0 32-14.355 32-32s-14.355-32-32-32-32 14.355-32 32 14.355 32 32 32zm0-44c6.617 0 12 5.383 12 12s-5.383 12-12 12-12-5.383-12-12 5.384-12 12-12z"/><path id="XMLID_1148_" d="m49.343 365.874c-6.037 6.038-9.362 14.074-9.362 22.628s3.325 16.59 9.362 22.627c6.037 6.038 14.073 9.363 22.627 9.363s16.59-3.325 22.628-9.362c12.476-12.477 12.477-32.778 0-45.255-12.476-12.478-32.778-12.477-45.255-.001zm31.113 31.112c-2.26 2.26-5.273 3.505-8.485 3.505s-6.225-1.245-8.485-3.505-3.504-5.273-3.504-8.485 1.245-6.226 3.505-8.485c2.339-2.34 5.412-3.509 8.485-3.509s6.146 1.17 8.485 3.509c4.678 4.679 4.678 12.292-.001 16.97z"/><path id="XMLID_1149_" d="m384 449.049c-2.63 0-5.21 1.06-7.07 2.92s-2.93 4.44-2.93 7.07c0 2.64 1.07 5.22 2.93 7.08s4.44 2.93 7.07 2.93 5.21-1.07 7.07-2.93 2.93-4.44 2.93-7.08c0-2.63-1.07-5.21-2.93-7.07s-4.44-2.92-7.07-2.92z"/></g></g></svg>