<svg id="Capa_1" enable-background="new 0 0 512 512" height="512" viewBox="0 0 512 512" width="512" xmlns="http://www.w3.org/2000/svg"><g id="XMLID_1431_"><g id="XMLID_1719_"><path id="XMLID_690_" d="m79.447 110.966-34.546-34.546c-11.077-11.077-11.077-29.036 0-40.113 11.077-11.077 29.036-11.077 40.113 0 11.077-11.077 29.036-11.077 40.113 0 11.077 11.077 11.077 29.036 0 40.113l-34.546 34.546c-3.075 3.075-8.06 3.075-11.134 0z" fill="#ff7a7a"/></g><g id="XMLID_1712_"><g id="XMLID_1714_"><path id="XMLID_689_" d="m184.764 182.43c-11.507-26.902-6.302-59.245 15.653-81.2 4.426-4.426 9.277-8.165 14.418-11.231 17.231-46.699 62.135-79.999 114.819-79.999 52.684 0 97.588 33.3 114.819 79.999 5.141 3.066 9.992 6.805 14.418 11.231 21.955 21.955 27.159 54.299 15.653 81.2 28.634 31.868 27.628 80.938-3.026 111.593-31.699 31.699-83.093 31.699-114.792 0-11.413-11.413-18.696-25.379-21.886-40.058h-10.371c-3.19 14.678-10.473 28.645-21.886 40.058-31.699 31.699-83.093 31.699-114.792 0-30.655-30.654-31.66-79.725-3.027-111.593z" fill="#ffd88e"/></g></g><g id="XMLID_1068_"><path id="XMLID_686_" d="m50 455v-160.962c0-11.046-8.954-20-20-20-11.046 0-20 8.954-20 20v167.962c0 22.091 17.909 40 40 40h52.475z" fill="#ffe4b4"/></g><g id="XMLID_1640_"><path id="XMLID_673_" d="m157.307 338.052v163.948h105.268 163.06c42.175 0 76.365-34.19 76.365-76.365v-87.583c0-48.505-39.321-87.827-87.827-87.827h-24.599-22.192-122.248c-48.505 0-87.827 39.321-87.827 87.827z" fill="#ff7a7a"/></g><g id="XMLID_1611_"><path d="m396.419 123.285v37.45c0 36.873-29.892 66.765-66.765 66.765-36.873 0-66.765-29.892-66.765-66.765v-37.45h37.151c15.185 0 29.574-6.792 39.226-18.515 6.267 11.418 18.258 18.515 31.284 18.515z" fill="#ffd0c6"/></g><g id="XMLID_1918_"><path d="m362.172 216.623v35.635c0 17.959-14.559 32.518-32.518 32.518-17.959 0-32.518-14.559-32.518-32.518v-35.635z" fill="#ffd0c6"/></g><g id="XMLID_1049_"><path id="XMLID_672_" d="m142.432 294.215c51.05 0 92.435 41.384 92.435 92.435v65.428c0 27.572-22.351 49.923-49.923 49.923h-85.024c-27.572 0-49.923-22.351-49.923-49.923v-65.428c0-51.051 41.385-92.435 92.435-92.435z" fill="#ffe4b4"/></g><g id="XMLID_1048_"><path id="XMLID_671_" d="m142.432 502h41.858v-17.124c0-11.559-9.37-20.929-20.929-20.929-11.559 0-20.929 9.37-20.929 20.929z" fill="#b5bac6"/></g><g id="XMLID_1046_"><path id="XMLID_661_" d="m100.574 502h41.858v-17.124c0-11.559-9.37-20.929-20.929-20.929-11.559 0-20.929 9.37-20.929 20.929z" fill="#b5bac6"/></g><g id="XMLID_1600_"><path id="XMLID_333_" d="m166.196 231.005c7.422-7.896 16.438-14.23 26.489-18.507 4.263-1.814 9.119.849 9.879 5.419 1.026 6.164 1.326 12.551.813 19.062-.419 5.321-1.364 10.475-2.775 15.417 8.939 10.879 14.307 24.802 14.307 39.981 0 34.807-28.217 63.024-63.024 63.024h-18.907c-34.807 0-63.024-28.217-63.024-63.024 0-15.18 5.369-29.104 14.308-39.983l-.086.051c-1.418-4.957-2.368-10.128-2.788-15.467-.513-6.511-.213-12.898.813-19.062.761-4.57 5.617-7.232 9.879-5.419 10.059 4.28 19.082 10.621 26.507 18.526z" fill="#ffe4b4"/></g><g id="XMLID_1009_"><path d="m254.302 443.567h21.958v58.433h-21.958c-16.136 0-29.217-13.081-29.217-29.217.001-16.135 13.082-29.216 29.217-29.216z" fill="#ffd0c6"/></g><g id="XMLID_295_"><path id="XMLID_296_" d="m134.749 318.329c1.9 2.28 4.715 3.599 7.683 3.599s5.782-1.318 7.682-3.598l5.982-7.178c2.484-2.98 3.021-7.13 1.374-10.644-1.646-3.514-5.176-5.759-9.056-5.759h-11.964c-3.88 0-7.41 2.244-9.056 5.759-1.646 3.514-1.11 7.662 1.373 10.643z"/><path id="XMLID_655_" d="m329.654 194.903c5.091 0 10.182-1.938 14.058-5.813 3.905-3.905 3.904-10.236-.001-14.142-3.877-3.879-10.146-3.904-14.058-.084-3.911-3.822-10.179-3.792-14.058.083-3.905 3.905-3.905 10.237 0 14.143 3.877 3.876 8.967 5.813 14.059 5.813z"/><path id="XMLID_658_" d="m72.375 118.037c3.376 3.376 7.864 5.235 12.639 5.235s9.263-1.859 12.639-5.235l34.546-34.546c14.957-14.958 14.957-39.296 0-54.255-12.778-12.777-32.403-14.642-47.175-5.587-5.977-3.681-12.871-5.649-20.067-5.649-10.247 0-19.881 3.99-27.127 11.236-14.958 14.958-14.958 39.298 0 54.256zm-20.402-74.659c3.467-3.468 8.079-5.378 12.984-5.378s9.517 1.91 12.985 5.379c3.906 3.904 10.236 3.904 14.143 0 7.159-7.161 18.81-7.16 25.971-.001 7.16 7.161 7.16 18.812 0 25.972l-33.042 33.041-33.041-33.041c-7.161-7.161-7.161-18.811 0-25.972z"/><path id="XMLID_662_" d="m493.704 281.152c17.957-31.981 14.947-71.687-7.717-100.632 10.38-30.198 2.833-63.504-20.025-86.362-4.07-4.07-8.55-7.714-13.351-10.861-9.468-23.743-25.478-44.076-46.468-58.966-22.44-15.918-48.889-24.331-76.49-24.331s-54.05 8.413-76.489 24.331c-20.99 14.89-37 35.223-46.468 58.966-4.801 3.147-9.28 6.791-13.351 10.861-22.86 22.861-30.407 56.17-20.023 86.37-9.193 11.784-15.371 25.762-17.943 40.481l-32.615.012c-7.794-7.522-16.78-13.476-26.767-17.725-4.872-2.073-10.333-1.8-14.981.75-4.647 2.55-7.811 7.007-8.679 12.227-1.176 7.064-1.485 14.295-.918 21.491.332 4.212.965 8.404 1.89 12.518-8.646 12.259-13.355 27.013-13.355 42.095 0 .016.001.031.001.046-.842-15.794-13.955-28.385-29.955-28.385-16.542 0-30 13.458-30 30v48.98c0 5.522 4.478 10 10 10s10-4.478 10-10v-48.98c0-5.514 4.486-10 10-10s10 4.486 10 10v160.962c0 .718-.031 1.437.113 2.112 1.112 13.351 6.72 25.451 15.169 34.888h-5.282c-16.542 0-30-13.458-30-30v-28.981c0-5.522-4.478-10-10-10s-10 4.478-10 10v28.981c0 27.57 22.43 50 50 50h375.635c47.622 0 86.365-38.743 86.365-86.365v-87.583c0-21.207-6.786-40.857-18.296-56.9zm-286.216-172.851c3.743-3.744 7.938-7.012 12.469-9.713 1.964-1.172 3.468-2.981 4.26-5.127 16.213-43.94 58.585-73.461 105.436-73.461 46.853 0 89.225 29.521 105.438 73.461.792 2.146 2.296 3.955 4.26 5.127 4.53 2.701 8.726 5.969 12.469 9.713 18.531 18.531 23.842 46.085 13.529 70.197-1.53 3.579-.846 7.721 1.756 10.616 18.919 21.057 23.312 50.859 12.244 76.051-17.315-15.5-40.162-24.94-65.175-24.94h-42.001v-15.614c20.629-13.776 34.247-37.262 34.247-63.875v-37.45c0-5.522-4.478-10-10-10h-22.184c-8.709 0-16.841-3.945-22.253-10.54 3.328-6.969 5.197-14.764 5.197-22.988 0-5.522-4.478-10-10-10s-10 4.478-10 10c0 18.487-15.041 33.527-33.528 33.527h-40.763c-5.522 0-10 4.478-10 10v37.45c0 26.613 13.619 50.099 34.247 63.876v15.614h-42.002c-11.351 0-22.343 1.897-32.815 5.639.462-2.683.814-5.387 1.027-8.1.567-7.195.258-14.426-.918-21.488-.868-5.222-4.031-9.679-8.679-12.229s-10.109-2.824-14.979-.751c-2.945 1.253-5.791 2.672-8.557 4.218 2.979-6.643 6.99-12.834 11.99-18.399 2.602-2.896 3.286-7.037 1.756-10.616-10.313-24.112-5.003-51.667 13.529-70.198zm65.401 24.984h30.763c13.964 0 26.69-5.38 36.231-14.169 9.013 8.937 21.301 14.169 34.353 14.169h12.184v27.45c0 31.3-25.465 56.765-56.766 56.765-31.3 0-56.765-25.465-56.765-56.765zm34.247 100.839c7.124 2.19 14.685 3.376 22.518 3.376s15.394-1.186 22.519-3.376v18.133c0 12.417-10.102 22.519-22.519 22.519-12.416 0-22.518-10.102-22.518-22.519zm-82.27 212.789c-6.081 6.91-9.78 15.964-9.78 25.87 0 1.714.123 3.398.337 5.054-5.516 6.518-12.93 11.068-21.133 13.045v-79.457c0-5.522-4.478-10-10-10s-10 4.478-10 10v44.522c-3.401-1.289-7.083-2.001-10.93-2.001-3.846 0-7.528.711-10.929 2v-51.616c0-5.522-4.478-10-10-10s-10 4.478-10 10v51.616c-3.4-1.289-7.082-2-10.929-2-4.095 0-8.003.807-11.583 2.259v-44.781c0-5.522-4.478-10-10-10s-10 4.478-10 10v79.305c-17.154-4.441-29.867-20.028-29.92-38.539v-65.664c.025-17.732 5.617-34.607 15.942-48.629 13.393 16.745 33.976 27.501 57.036 27.501h18.907c23.059 0 43.642-10.755 57.035-27.5 10.349 14.053 15.946 30.969 15.946 48.749v60.266zm-132.877-188.17c2.361-2.874 2.854-6.716 1.533-10.013-1.103-4.084-1.83-8.297-2.165-12.537-.34-4.325-.273-8.664.198-12.942 7.403 3.633 14.031 8.539 19.744 14.619 1.89 2.013 4.527 3.153 7.288 3.153h.004l47.607-.019c2.758-.001 5.394-1.142 7.283-3.151 5.707-6.072 12.33-10.973 19.728-14.603.472 4.278.538 8.616.198 12.942-.359 4.556-1.174 9.084-2.422 13.458-.9 3.157-.194 6.556 1.89 9.093 7.76 9.444 12.033 21.389 12.033 33.633 0 29.237-23.786 53.023-53.023 53.023h-18.907c-29.237 0-53.024-23.786-53.024-53.023 0-12.243 4.275-24.188 12.035-33.633zm-31.989 35.443c.218 8.888 2.027 17.384 5.161 25.218-1.811 2.075-3.535 4.208-5.161 6.401zm50.574 197.814v-7.124c0-6.026 4.902-10.929 10.929-10.929s10.929 4.902 10.929 10.929v7.124zm41.858-7.124c0-6.026 4.903-10.929 10.93-10.929s10.929 4.902 10.929 10.929v7.124h-21.858v-7.124zm82.654-12.093c0-10.596 8.621-19.217 19.217-19.217h11.958v38.434h-11.958c-10.596 0-19.217-8.621-19.217-19.217zm256.914-47.148c0 36.594-29.771 66.365-66.365 66.365h-139.374v-38.434h134.333c5.522 0 10-4.478 10-10s-4.478-10-10-10h-166.291c-3.253 0-6.412.405-9.437 1.155v-48.072c0-24.985-8.889-48.601-25.163-67.247 3.346-8.366 5.206-17.48 5.206-27.026 0-9.585-1.908-19.035-5.514-27.799 8.216-2.887 16.836-4.353 25.738-4.353h42.761c3.741 19.648 21.037 34.551 41.758 34.551s38.017-14.902 41.759-34.551h42.761c42.914 0 77.827 34.913 77.827 77.827v87.584z"/><path id="XMLID_684_" d="m10 398.02c2.63 0 5.21-1.069 7.069-2.93 1.86-1.86 2.931-4.44 2.931-7.07s-1.07-5.21-2.931-7.069c-1.859-1.86-4.439-2.931-7.069-2.931-2.641 0-5.21 1.07-7.07 2.931-1.861 1.859-2.93 4.429-2.93 7.069 0 2.63 1.069 5.21 2.93 7.07s4.44 2.93 7.07 2.93z"/></g></g></svg>