<svg id="Capa_1" enable-background="new 0 0 512 512" height="512" viewBox="0 0 512 512" width="512" xmlns="http://www.w3.org/2000/svg"><g id="XMLID_1084_"><g id="XMLID_1498_"><path id="XMLID_1506_" d="m436.083 282h-97.965c-13.889 0-24.734-12.003-23.331-25.821l23.063-227.018c1.106-10.882 10.269-19.161 21.207-19.161h56.087c10.938 0 20.101 8.279 21.207 19.162l23.063 227.018c1.404 13.817-9.442 25.82-23.331 25.82z" fill="#9da5be"/><path id="XMLID_1505_" d="m409.716 406h-45.231l-22.677 83.423c-1.722 6.336 3.048 12.577 9.614 12.577h71.356c6.566 0 11.337-6.241 9.614-12.577z" fill="#ff7a7a"/><path id="XMLID_1502_" d="m364.486 282h45.231v124h-45.231z" fill="#f8f8f8"/></g><path id="XMLID_1497_" d="m52.536 502v-253.342c0-29.859 15.036-57.711 40-74.094h96c24.964 16.383 40 44.235 40 74.094v253.342z" fill="#f0c9bc"/><path id="XMLID_1496_" d="m140.536 272.653c-26.51 0-48-21.49-48-48v-91.2c0-13.255 10.745-24 24-24h48c13.255 0 24 10.745 24 24v91.2c0 26.509-21.49 48-48 48z" fill="#ff7a7a"/><path id="XMLID_1495_" d="m175.817 112.268c-3.363-1.795-7.202-2.815-11.281-2.815h-48c-13.255 0-24 10.745-24 24v62.096z" fill="#fff"/><path id="XMLID_1494_" d="m188.536 133.453c0-9.116-5.082-17.044-12.567-21.107l-83.433 83.433v28.874c0 12.17 4.538 23.274 12.002 31.734l83.998-83.998z" fill="#a0c8ff"/><g id="XMLID_117_"><path id="XMLID_146_" d="m469.364 255.168-23.064-227.017c-1.631-16.049-15.024-28.151-31.155-28.151h-56.088c-16.131 0-29.524 12.102-31.155 28.151l-23.062 227.017c-.954 9.395 2.129 18.801 8.459 25.807 6.331 7.006 15.377 11.025 24.82 11.025h16.367v112.667l-22.327 82.133c-1.646 6.051-.405 12.379 3.403 17.361s9.589 7.839 15.86 7.839h71.355c6.271 0 12.052-2.857 15.86-7.839s5.049-11.31 3.403-17.36l-22.326-82.134v-112.667h16.367c9.442 0 18.489-4.018 24.819-11.024 6.334-7.007 9.418-16.413 8.464-25.808zm-117.906 236.878 20.672-76.046h29.945l20.703 76zm48.258-96.046h-25.23v-104h25.23zm46.348-128.433c-2.583 2.859-6.128 4.433-9.98 4.433h-97.965c-3.853 0-7.397-1.574-9.98-4.433s-3.79-6.544-3.4-10.377l23.061-227.018c.589-5.799 5.429-10.172 11.257-10.172h56.088c5.828 0 10.668 4.373 11.257 10.172l23.063 227.017c.39 3.834-.818 7.519-3.401 10.378z"/><path id="XMLID_163_" d="m198.536 169.357v-35.905c0-18.748-15.252-34-34-34h-48c-18.748 0-34 15.252-34 34v35.905c-25.143 18.56-40 47.805-40 79.3v44.698c0 5.523 4.478 10 10 10s10-4.477 10-10v-44.698c0-19.641 7.251-38.181 20-52.409v28.405c0 31.981 26.019 58 58 58s58-26.019 58-58v-28.405c12.749 14.228 20 32.769 20 52.409v253.343c0 5.523 4.478 10 10 10s10-4.477 10-10v-253.342c0-31.496-14.857-60.741-40-79.301zm-92.439 71.33c-2.279-4.875-3.56-10.307-3.56-16.034v-24.731l73.865-73.865c1.345 2.149 2.135 4.679 2.135 7.396v34.794zm10.439-121.234h38.184l-52.184 52.184v-38.184c0-7.72 6.281-14 14-14zm24 143.2c-7.958 0-15.349-2.463-21.459-6.661l59.459-59.46v28.121c0 20.953-17.046 38-38 38z"/><path id="XMLID_166_" d="m52.536 373.356c-5.522 0-10 4.477-10 10v118.644c0 5.523 4.478 10 10 10s10-4.477 10-10v-118.644c0-5.523-4.477-10-10-10z"/><path id="XMLID_828_" d="m52.466 348.36c2.63 0 5.2-1.07 7.07-2.93 1.859-1.87 2.93-4.44 2.93-7.07s-1.07-5.21-2.93-7.07c-1.87-1.87-4.44-2.93-7.07-2.93-2.64 0-5.21 1.06-7.08 2.93-1.859 1.86-2.92 4.44-2.92 7.07s1.061 5.2 2.92 7.07c1.87 1.86 4.45 2.93 7.08 2.93z"/></g></g></svg>