<svg id="Capa_1" enable-background="new 0 0 512 512" height="512" viewBox="0 0 512 512" width="512" xmlns="http://www.w3.org/2000/svg"><g id="XMLID_756_"><g fill="#bedaff"><path id="XMLID_1938_" d="m388.333 388.333 33.249 86.939c6.157 16.097 21.604 26.728 38.838 26.728 22.964 0 41.58-18.616 41.58-41.58 0-17.234-10.631-32.681-26.727-38.837z"/><path id="XMLID_1937_" d="m100.583 100.583-64.829-19.623c-15.294-4.629-25.754-18.724-25.754-34.702 0-20.025 16.233-36.258 36.258-36.258 15.979 0 30.074 10.46 34.703 25.754z"/><path id="XMLID_1936_" d="m167.575 100.685-25.635-47.887c-6.047-11.297-3.986-25.221 5.074-34.282 11.355-11.355 29.765-11.355 41.119 0 9.061 9.061 11.122 22.985 5.074 34.282z"/><path id="XMLID_1935_" d="m100.685 167.575-47.887-25.635c-11.297-6.047-25.221-3.986-34.282 5.074-11.355 11.355-11.355 29.765 0 41.119 9.061 9.061 22.985 11.122 34.282 5.074z"/></g><g id="XMLID_1931_"><path id="XMLID_1934_" d="m194.368 470.368c42.177-42.177 63.861-132.243 21.685-174.42s-132.243-20.492-174.42 21.685-42.177 110.558 0 152.735 110.558 42.176 152.735 0z" fill="#ffbcbc"/><path id="XMLID_1933_" d="m194.368 470.368c2.467-2.467 4.861-5.104 7.18-7.88-.002-28.052-22.743-50.791-50.795-50.791-28.054 0-50.796-22.742-50.796-50.796 0-27.805-22.343-50.378-50.053-50.777-2.921 2.42-5.687 4.925-8.27 7.509-42.177 42.177-42.177 110.558 0 152.735s110.557 42.176 152.734 0z" fill="#ff7a7a"/><path id="XMLID_1932_" d="m265.903 286.402-40.305-40.305-20.973 38.424 22.854 22.854z" fill="#ffbcbc"/></g><g id="XMLID_1869_"><path id="XMLID_1927_" d="m470.368 107.844c-42.177-42.177-132.243-63.861-174.42-21.685s-20.492 132.243 21.685 174.42 110.558 42.177 152.735 0 42.176-110.558 0-152.735z" fill="#f7e4bf"/><path id="XMLID_1926_" d="m427.126 176.858c-20.515 20.515-53.776 20.515-74.291 0-20.515-20.515-53.776-20.515-74.291 0 0 0-1.106-.581-3.046-1.529 5.72 32.403 21.462 64.579 42.134 85.25 42.177 42.177 110.559 42.177 152.735 0 22.959-22.96 33.417-53.685 31.379-83.721h-.33c-20.515-20.515-53.775-20.515-74.29 0z" fill="#ffe4b4"/><path id="XMLID_1870_" d="m286.402 36.308-40.305 40.306 38.424 20.972 22.854-22.853z" fill="#f7e4bf"/></g><path id="XMLID_1854_" d="m324.541 378.598 29.776 55.624c7.024 13.122 4.63 29.296-5.894 39.82-13.189 13.189-34.573 13.189-47.763 0-10.525-10.525-12.919-26.698-5.894-39.82z" fill="#bedaff"/><g id="XMLID_254_"><path id="XMLID_488_" d="m232.669 239.026c-2.228-2.229-5.375-3.275-8.495-2.827-3.119.449-5.844 2.341-7.354 5.107l-17.099 31.328c-19.9-9.272-44.757-11.895-72.497-7.344-35.495 5.82-70.135 22.744-92.663 45.271-46.007 46.008-46.007 120.869 0 166.877 23.004 23.004 53.222 34.506 83.439 34.506s60.435-11.502 83.438-34.506c22.527-22.528 39.451-57.168 45.271-92.663 4.549-27.74 1.926-52.597-7.345-72.496l31.329-17.1c2.766-1.51 4.658-4.234 5.107-7.354s-.599-6.267-2.827-8.495zm-183.965 224.27c-38.21-38.21-38.21-100.382 0-138.592 1.487-1.487 3.053-2.947 4.675-4.382 20.52 2.118 36.577 19.507 36.577 40.578 0 33.523 27.272 60.796 60.795 60.796 21.302 0 38.833 16.415 40.633 37.258-1.341 1.503-2.702 2.956-4.088 4.342-38.21 38.211-100.382 38.212-138.592 0zm178.27-81.757c-3.247 19.801-10.612 39.712-20.547 56.57-9.415-21.415-30.821-36.413-55.675-36.413-22.495 0-40.795-18.301-40.795-40.796 0-24.648-14.752-45.901-35.883-55.435 16.819-9.881 36.657-17.204 56.387-20.439 7.6-1.247 14.962-1.859 22.004-1.859 23.575 0 43.53 6.872 56.509 19.845l.02.02c16.844 16.855 23.398 45.468 17.98 78.507zm2.284-86.527-6.115-6.115c-.007-.007-.013-.014-.02-.02s-.014-.013-.02-.02l-6.114-6.114 10.986-20.128 21.41 21.41z"/><path id="XMLID_1168_" d="m241.306 85.392 31.329 17.1c-9.271 19.9-11.893 44.757-7.345 72.496 5.82 35.495 22.744 70.135 45.271 92.663 10.28 10.28 22.171 18.472 35.342 24.347 1.324.59 2.707.87 4.068.87 3.827 0 7.479-2.209 9.139-5.93 2.25-5.044-.016-10.956-5.059-13.206-10.93-4.875-20.803-11.679-29.347-20.224-17.772-17.772-31.246-44.068-37.558-71.033 16.673-15.111 42.536-14.628 58.618 1.455 12.192 12.192 28.202 18.287 44.217 18.286 16.011-.001 32.027-6.097 44.216-18.286 15.792-15.791 41.005-16.533 57.697-2.251.665 25.933-8.849 52.081-28.597 71.829-8.544 8.545-18.417 15.349-29.345 20.223-5.044 2.25-7.309 8.163-5.059 13.207 2.25 5.043 8.163 7.308 13.207 5.059 13.169-5.875 25.06-14.065 35.34-24.346 46.007-46.008 46.007-120.869 0-166.877-22.528-22.527-57.168-39.452-92.663-45.272-27.74-4.549-52.597-1.926-72.497 7.345l-17.1-31.329c-1.51-2.766-4.235-4.658-7.354-5.107-3.118-.448-6.267.599-8.495 2.827l-40.305 40.305c-2.228 2.229-3.275 5.376-2.827 8.495s2.341 5.844 5.107 7.354zm221.99 29.523c11.887 11.887 20.072 26.095 24.562 41.178-22.595-9.168-49.506-4.604-67.805 13.694-16.583 16.583-43.565 16.583-60.148 0-20.652-20.651-52.269-23.804-76.277-9.47-2.127-26.275 3.424-51.12 19.39-67.085 36.671-36.671 120.175-18.42 160.278 21.683zm-179.271-62.088 10.986 20.127-12.269 12.269-20.127-10.986z"/><path id="XMLID_1184_" d="m32.857 90.532 64.829 19.622c.954.289 1.929.429 2.896.429 2.614 0 5.169-1.026 7.072-2.929 2.607-2.608 3.568-6.439 2.5-9.968l-19.622-64.829c-5.949-19.653-23.741-32.857-44.274-32.857-25.507 0-46.258 20.751-46.258 46.258 0 20.533 13.204 38.325 32.857 44.274zm13.401-70.532c11.655 0 21.755 7.495 25.131 18.651l14.211 46.949-46.949-14.21c-11.156-3.377-18.651-13.477-18.651-25.132 0-14.479 11.779-26.258 26.258-26.258z"/><path id="XMLID_1202_" d="m158.758 105.405c1.74 3.251 5.129 5.281 8.816 5.281s7.076-2.029 8.816-5.281l25.634-47.888c8.186-15.292 5.445-33.807-6.82-46.072-7.379-7.381-17.192-11.445-27.629-11.445s-20.25 4.064-27.63 11.445c-12.266 12.265-15.006 30.78-6.82 46.072zm-4.672-79.818c3.603-3.603 8.393-5.587 13.488-5.587s9.885 1.984 13.488 5.587c5.988 5.987 7.326 15.026 3.33 22.491l-16.818 31.417-16.818-31.417c-3.996-7.465-2.657-16.503 3.33-22.491z"/><path id="XMLID_1206_" d="m39.009 206.701c6.287 0 12.636-1.532 18.508-4.676l47.888-25.634c3.251-1.74 5.281-5.129 5.281-8.816s-2.029-7.076-5.281-8.816l-47.888-25.634c-15.292-8.186-33.808-5.445-46.072 6.82-7.381 7.379-11.445 17.192-11.445 27.63s4.064 20.25 11.445 27.631c7.555 7.554 17.48 11.495 27.564 11.495zm-13.422-52.615c3.688-3.688 8.533-5.612 13.456-5.612 3.069 0 6.168.748 9.036 2.283l31.417 16.818-31.417 16.818c-7.465 3.995-16.504 2.659-22.491-3.33-3.604-3.603-5.588-8.393-5.588-13.488s1.984-9.886 5.587-13.489z"/><path id="XMLID_1240_" d="m478.845 412.243-86.939-33.25c-3.686-1.41-7.854-.521-10.643 2.269s-3.679 6.959-2.27 10.644l33.249 86.939c7.585 19.831 26.946 33.155 48.177 33.155 28.442 0 51.581-23.139 51.581-51.58 0-21.232-13.324-40.594-33.155-48.177zm-18.426 79.757c-12.999 0-24.853-8.158-29.497-20.3l-25.253-66.03 66.031 25.254c12.142 4.642 20.3 16.496 20.3 29.496 0 17.413-14.167 31.58-31.581 31.58z"/><path id="XMLID_1248_" d="m333.357 373.878c-1.74-3.251-5.129-5.28-8.816-5.28s-7.076 2.029-8.816 5.28l-29.775 55.625c-9.17 17.131-6.1 37.871 7.639 51.61 8.268 8.268 19.26 12.821 30.953 12.821s22.685-4.554 30.953-12.821c13.739-13.739 16.809-34.479 7.64-51.61zm7.994 93.093c-9.269 9.27-24.352 9.27-33.62 0-7.462-7.462-9.129-18.726-4.149-28.028l20.959-39.155 20.959 39.154c4.98 9.303 3.313 20.568-4.149 28.029z"/><path id="XMLID_1250_" d="m386.93 285.14c-1.86 1.86-2.93 4.44-2.93 7.07 0 2.64 1.07 5.21 2.93 7.07 1.86 1.869 4.44 2.93 7.07 2.93s5.21-1.061 7.07-2.93c1.86-1.86 2.93-4.44 2.93-7.07s-1.07-5.21-2.93-7.07c-1.86-1.859-4.44-2.93-7.07-2.93s-5.21 1.07-7.07 2.93z"/></g></g></svg>