<svg id="Capa_1" enable-background="new 0 0 512.014 512.014" height="512" viewBox="0 0 512.014 512.014" width="512" xmlns="http://www.w3.org/2000/svg"><g id="XMLID_805_"><path id="XMLID_1548_" d="m353.483 268.52c-61.955 16.083-132.997 16.083-194.952 0-43.206-11.216-73.375-50.21-73.375-94.848v-56.748c0-44.638 30.169-83.632 73.375-94.848 71.559-18.576 155.24-15.696 223.04 8.639 27.236 9.776 45.287 35.75 45.287 64.687v78.27c0 44.638-30.169 83.632-73.375 94.848z" fill="#a0c8ff"/><path id="XMLID_1545_" d="m369.772 180.496c-2.21-1.29-3.541-3.654-3.54-6.213 0-.014 0-.028 0-.043 0-60.876-49.35-110.226-110.226-110.226s-110.226 49.35-110.226 110.226v.043c.001 2.559-1.329 4.923-3.54 6.213-31.891 18.613-53.236 53.324-52.879 92.996.519 57.623 47.487 104.764 105.107 105.485 22.852.286 44.07-6.634 61.537-18.622 17.467 11.988 38.685 18.908 61.537 18.622 57.621-.721 104.589-47.861 105.108-105.484.358-39.672-20.987-74.384-52.878-92.997z" fill="#c68966"/><path id="XMLID_1543_" d="m214.663 502.014h-158.485v-56.592c0-50.371 40.834-91.205 91.205-91.205h31.96c21.517 0 38.96-17.443 38.96-38.96h75.407c0 21.517 17.443 38.96 38.96 38.96h31.96c50.371 0 91.205 40.834 91.205 91.205v56.592h-158.484z" fill="#ffbcbc"/><path id="XMLID_1542_" d="m332.606 354.281s.026-.026.063-.064c-21.517-.001-38.959-17.444-38.959-38.96h-75.407c0 21.517-17.443 38.96-38.96 38.96h-.101l.056.064c42.335 42.335 110.973 42.335 153.308 0z" fill="#ffd0c6"/><path id="XMLID_1537_" d="m180.6 202.152v42.297c0 41.646 33.761 75.407 75.407 75.407 41.646 0 75.407-33.761 75.407-75.407v-42.297h-47.601l-39.809-13.995-35.472 13.995z" fill="#ffd0c6"/><path id="XMLID_1530_" d="m430.025 430.032h-348.037c-39.754 0-71.982 32.227-71.982 71.982h492c.001-39.754-32.226-71.982-71.981-71.982z" fill="#ffd88e"/><g id="XMLID_308_"><path id="XMLID_309_" d="m276.375 252.014h14.023c5.523 0 10-4.477 10-10s-4.477-10-10-10h-14.023c-5.523 0-10 4.477-10 10s4.478 10 10 10z"/><path id="XMLID_310_" d="m221.615 252.014h14.023c5.523 0 10-4.477 10-10s-4.477-10-10-10h-14.023c-5.523 0-10 4.477-10 10s4.477 10 10 10z"/><path id="XMLID_313_" d="m464.241 427.543c-6.261-35.182-30.481-63.628-62.434-76.254 19.517-21.129 30.581-48.611 30.843-77.706.148-16.459-3.223-32.49-9.565-47.166 9.016-16.092 13.773-34.21 13.773-52.744v-78.27c0-33.178-20.86-62.956-51.908-74.1-69.18-24.832-154.763-28.16-228.932-8.906-47.61 12.359-80.862 55.342-80.862 104.527v56.749c0 18.534 4.756 36.652 13.772 52.743-6.342 14.676-9.714 30.707-9.565 47.166.262 29.095 11.326 56.577 30.844 77.707-31.953 12.626-56.172 41.072-62.433 76.253-28.162 12.991-47.766 41.477-47.766 74.472 0 5.523 4.477 10 10 10s10-4.477 10-10c0-34.177 27.805-61.981 61.981-61.981h129.081c5.523 0 10-4.477 10-10s-4.477-10-10-10h-129.082c-4.098 0-8.124.311-12.062.895 10.449-33.184 41.48-56.71 77.457-56.71h27.822c22.68 21.168 51.711 31.76 80.748 31.76s58.068-10.592 80.748-31.76h27.931c35.977 0 67.008 23.526 77.457 56.71-3.938-.583-7.964-.895-12.062-.895h-128.957c-5.523 0-10 4.477-10 10s4.477 10 10 10h128.955c34.177 0 61.981 27.805 61.981 61.981 0 5.523 4.477 10 10 10s10-4.477 10-10c.001-32.995-19.603-61.48-47.765-74.471zm-369.085-253.871v-56.749c0-40.075 27.094-75.098 65.888-85.168 70.429-18.283 151.606-15.153 217.15 8.372 23.126 8.3 38.665 30.514 38.665 55.275v78.27c0 10.797-1.987 21.418-5.796 31.389-9.145-12.882-20.922-23.977-34.839-32.366-.827-65.586-54.438-118.682-120.216-118.682-65.763 0-119.363 53.069-120.216 118.681-13.917 8.389-25.693 19.483-34.838 32.365-3.812-9.969-5.798-20.59-5.798-31.387zm105.763 185.521c13.429-6.622 23.403-19.217 26.427-34.299 8.964 3.204 18.61 4.962 28.661 4.962 10.052 0 19.697-1.759 28.661-4.962 3.018 15.058 12.966 27.636 26.364 34.266-33.131 22.398-76.972 22.41-110.113.033zm-10.319-147.041h15.055c14.826 0 28.771-6.108 38.782-16.511 10.637 10.214 25.061 16.511 40.937 16.511h36.04v32.297c0 36.066-29.341 65.407-65.407 65.407s-65.407-29.341-65.407-65.407zm142.07 132.065c-15.968 0-28.958-12.99-28.96-28.957 22.731-15.362 37.704-41.371 37.704-70.811v-42.297c0-5.523-4.477-10-10-10h-46.04c-21.594 0-39.162-17.568-39.162-39.162 0-5.523-4.477-10-10-10s-10 4.477-10 10c0 9.375 2.201 18.242 6.1 26.127-6.346 8.139-16.144 13.035-26.657 13.035h-25.055c-5.523 0-10 4.477-10 10v42.297c0 29.44 14.973 55.448 37.704 70.811-.002 15.967-12.992 28.957-28.96 28.957h-31.96c-4.978 0-9.877.372-14.677 1.071-20.994-18.225-33.095-44.181-33.344-71.887-.311-34.545 18.051-66.836 47.919-84.269 5.246-3.062 8.502-8.754 8.499-14.893 0-55.265 44.961-100.226 100.227-100.226 55.265 0 100.226 44.961 100.226 100.263-.003 6.102 3.253 11.794 8.499 14.855 29.869 17.433 48.231 49.723 47.92 84.27-.249 27.705-12.35 53.66-33.344 71.885-4.799-.699-9.698-1.071-14.676-1.071h-31.963z"/><path id="XMLID_317_" d="m462.007 20.014h15.858l-22.929 22.929c-2.86 2.86-3.715 7.162-2.167 10.898 1.548 3.737 5.194 6.173 9.239 6.173h40c5.523 0 10-4.477 10-10s-4.477-10-10-10h-15.858l22.929-22.929c2.86-2.86 3.715-7.162 2.167-10.898-1.548-3.737-5.194-6.173-9.239-6.173h-40c-5.523 0-10 4.477-10 10s4.477 10 10 10z"/><path id="XMLID_318_" d="m459.768 161.115c1.548 3.737 5.194 6.173 9.239 6.173h28c5.523 0 10-4.477 10-10s-4.477-10-10-10h-3.858l10.929-10.929c2.86-2.86 3.715-7.161 2.167-10.898s-5.194-6.173-9.239-6.173h-28c-5.523 0-10 4.477-10 10s4.477 10 10 10h3.858l-10.929 10.929c-2.859 2.86-3.715 7.161-2.167 10.898z"/><path id="XMLID_319_" d="m242.385 284.433c3.741 3.74 8.654 5.611 13.567 5.611 4.914 0 9.827-1.871 13.568-5.611 3.905-3.905 3.905-10.237 0-14.143-3.719-3.719-9.64-3.896-13.567-.532-3.929-3.364-9.849-3.188-13.568.532-3.905 3.906-3.905 10.238 0 14.143z"/><path id="XMLID_320_" d="m256.067 420.094c-2.63 0-5.21 1.07-7.07 2.93s-2.93 4.44-2.93 7.07 1.07 5.21 2.93 7.07c1.86 1.87 4.44 2.93 7.07 2.93 2.64 0 5.21-1.06 7.07-2.93 1.87-1.86 2.93-4.44 2.93-7.07s-1.06-5.21-2.93-7.07c-1.86-1.86-4.43-2.93-7.07-2.93z"/></g></g></svg>