<svg id="Capa_1" enable-background="new 0 0 511.997 511.997" height="512" viewBox="0 0 511.997 511.997" width="512" xmlns="http://www.w3.org/2000/svg"><g id="XMLID_1469_"><path id="XMLID_2080_" d="m125.995 90.456h260v357.542h-260z" fill="#ffd88e"/><path id="XMLID_2171_" d="m125.995 250.908 43.327-43.327 43.328 43.327 43.328-43.327 43.327 43.327 43.328-43.327 43.328 43.327v-64.438l-43.328-43.327-43.328 43.327-43.327-43.327-43.328 43.327-43.328-43.327-43.327 43.327z" fill="#fff"/><circle id="XMLID_1987_" cx="56.235" cy="125.331" fill="#bedaff" r="29.231"/><circle id="XMLID_1984_" cx="455.763" cy="125.331" fill="#bedaff" r="29.231"/><path id="XMLID_2185_" d="m125.995 395.575 43.327-43.328 43.328 43.328 43.328-43.328 43.327 43.328 43.328-43.328 43.328 43.328v-64.438l-43.328-43.328-43.328 43.328-43.327-43.328-43.328 43.328-43.328-43.328-43.327 43.328z" fill="#fff"/><g id="XMLID_652_"><path id="XMLID_668_" d="m475.379 91.356c-15.743-9.089-35.228-5.987-47.469 6.348l-166.911-96.367c-3.206-1.851-7.005-1.717-9.996.007l-.004-.007-166.912 96.367c-12.24-12.335-31.726-15.437-47.469-6.348-18.733 10.816-25.175 34.857-14.359 53.591 7.259 12.572 20.472 19.608 34.041 19.608 6.65-.001 13.388-1.691 19.55-5.249 9.075-5.239 15.566-13.698 18.279-23.821 1.826-6.816 1.783-13.835-.034-20.465l21.899-12.644v399.621c0 5.522 4.478 10 10 10s10-4.478 10-10v-44h32v44c0 5.522 4.478 10 10 10s10-4.478 10-10v-44h32v44c0 5.522 4.478 10 10 10s10-4.478 10-10v-44h32v44c0 5.522 4.478 10 10 10s10-4.478 10-10v-44h32v44c0 5.522 4.478 10 10 10s10-4.478 10-10v-44h32v44c0 5.522 4.478 10 10 10s10-4.478 10-10v-399.625l21.907 12.648c-1.818 6.63-1.86 13.649-.034 20.465 2.713 10.123 9.204 18.582 18.279 23.821 6.163 3.559 12.897 5.249 19.55 5.248 13.568-.001 26.783-7.036 34.041-19.607 10.816-18.734 4.375-42.775-14.358-53.591zm-400.568 38.953c-1.33 4.962-4.512 9.108-8.961 11.677-9.185 5.302-20.969 2.144-26.271-7.039-5.302-9.184-2.144-20.968 7.039-26.271 3.021-1.743 6.322-2.572 9.583-2.572 6.651 0 13.129 3.449 16.688 9.612 2.569 4.448 3.251 9.631 1.922 14.593zm61.184 124.742 33.327-33.328 36.257 36.257c1.876 1.875 4.419 2.929 7.071 2.929s5.196-1.054 7.071-2.929l36.256-36.257 36.257 36.257c1.876 1.875 4.419 2.929 7.071 2.929s5.195-1.054 7.071-2.929l36.256-36.257 33.362 33.362v51.943l-26.291-26.291c-1.876-1.875-4.419-2.929-7.071-2.929s-5.195 1.054-7.071 2.929l-36.256 36.257-36.257-36.257c-1.876-1.875-4.419-2.929-7.071-2.929s-5.195 1.054-7.071 2.929l-36.256 36.257-36.257-36.257c-1.876-1.875-4.419-2.929-7.071-2.929s-5.195 1.054-7.071 2.929l-26.256 26.256zm0 80.229 33.327-33.328 36.257 36.257c1.876 1.875 4.419 2.929 7.071 2.929s5.196-1.054 7.071-2.929l36.256-36.257 36.257 36.257c1.876 1.875 4.419 2.929 7.071 2.929s5.195-1.054 7.071-2.929l36.256-36.257 33.362 33.362v36.153l-26.291-26.29c-3.906-3.904-10.236-3.904-14.143 0l-36.256 36.257-36.257-36.257c-3.906-3.904-10.236-3.904-14.143 0l-36.256 36.257-36.257-36.257c-3.906-3.904-10.236-3.904-14.143 0l-26.256 26.256v-36.153zm240-108.48-26.291-26.291c-1.876-1.875-4.419-2.929-7.071-2.929s-5.195 1.054-7.071 2.929l-36.256 36.257-36.257-36.257c-1.876-1.875-4.419-2.929-7.071-2.929s-5.195 1.054-7.071 2.929l-36.256 36.257-36.257-36.257c-1.876-1.875-4.419-2.929-7.071-2.929s-5.195 1.054-7.071 2.929l-26.256 26.256v-36.153l33.327-33.328 36.257 36.257c1.876 1.875 4.419 2.929 7.071 2.929s5.196-1.054 7.071-2.929l36.256-36.257 36.257 36.257c1.876 1.875 4.419 2.929 7.071 2.929s5.195-1.054 7.071-2.929l36.256-36.257 33.362 33.362zm-240 172.917 33.327-33.328 36.257 36.257c3.906 3.904 10.236 3.904 14.143 0l36.256-36.257 36.257 36.257c1.953 1.952 4.512 2.929 7.071 2.929s5.118-.977 7.071-2.929l36.256-36.257 33.362 33.362v38.246h-240zm165.056-299.261h74.943v61.906l-26.291-26.291c-1.876-1.875-4.419-2.929-7.071-2.929s-5.195 1.054-7.071 2.929l-36.256 36.257-36.257-36.257c-1.876-1.875-4.419-2.929-7.071-2.929s-5.195 1.054-7.071 2.929l-36.256 36.257-36.257-36.257c-1.876-1.875-4.419-2.929-7.071-2.929s-5.195 1.054-7.071 2.929l-26.256 26.256v-61.872h75.057c5.522 0 10-4.478 10-10s-4.478-10-10-10h-57.089l102.037-58.911 102.037 58.911h-56.984c-5.522 0-10 4.478-10 10s4.476 10.001 9.998 10.001zm171.367 34.491c-5.304 9.185-17.088 12.342-26.271 7.039-4.449-2.568-7.631-6.715-8.961-11.677-1.329-4.962-.646-10.145 1.922-14.593 3.559-6.163 10.036-9.612 16.688-9.612 3.259 0 6.562.829 9.582 2.572 9.183 5.303 12.341 17.087 7.04 26.271z"/><path id="XMLID_681_" d="m256.049 80.528c-2.63 0-5.21 1.069-7.07 2.93-1.859 1.859-2.93 4.439-2.93 7.07 0 2.63 1.07 5.21 2.93 7.069 1.86 1.86 4.44 2.931 7.07 2.931s5.21-1.07 7.07-2.931c1.87-1.859 2.93-4.439 2.93-7.069 0-2.631-1.06-5.211-2.93-7.07-1.86-1.861-4.431-2.93-7.07-2.93z"/></g></g></svg>