<svg id="Capa_1" enable-background="new 0 0 512 512" height="512" viewBox="0 0 512 512" width="512" xmlns="http://www.w3.org/2000/svg"><g id="XMLID_1055_"><path id="XMLID_2144_" d="m408 414h-358c-22.091 0-40-17.909-40-40v-304c0-22.091 17.909-40 40-40h358c22.091 0 40 17.909 40 40v304c0 22.092-17.909 40-40 40z" fill="#f7e4bf"/><path id="XMLID_2137_" d="m408 30h-179v384h179c22.091 0 40-17.909 40-40v-304c0-22.091-17.909-40-40-40z" fill="#ffe4b4"/><path id="XMLID_2136_" d="m50 70h139v104h-139z" fill="#bedaff"/><path id="XMLID_2122_" d="m189 130c-10.803 5.668-23.701 5.668-34.504 0s-23.701-5.668-34.504 0c-10.803 5.668-23.701 5.668-34.504 0s-23.701-5.668-34.504 0c0 0-.347.155-.983.442v43.558h139v-44z" fill="#f8f8f8"/><path id="XMLID_2646_" d="m50 254h139v120h-139z" fill="#bedaff"/><path id="XMLID_2121_" d="m189 263.333-56.812 56.813 53.854 53.854h2.958z" fill="#d5ea7a"/><path id="XMLID_2120_" d="m116.125 305.875-66.125 66.125v2h134.25z" fill="#d5ea7a"/><path id="XMLID_2118_" d="m269 70h139v120h-139z" fill="#fff"/><g id="XMLID_1944_" fill="#bedaff"><path id="XMLID_2114_" d="m269 230h139v120h-139z"/><path id="XMLID_1977_" d="m269 230h139v120h-139z"/></g><path id="XMLID_1691_" d="m340.93 330.43h139v120h-139z" fill="#ff7a7a" transform="matrix(.707 -.707 .707 .707 -155.864 404.572)"/><path id="XMLID_2616_" d="m338.5 134.5c-13.556 0-24.546-10.989-24.546-24.545v-15.409c.001-13.557 10.99-24.546 24.546-24.546 13.556 0 24.545 10.989 24.545 24.545v15.409c0 13.557-10.989 24.546-24.545 24.546z" fill="#f4c6af"/><path id="XMLID_1421_" d="m347.129 135.5h-17.258c-30.099 0-54.5 24.4-54.5 54.5h126.258c0-30.099-24.4-54.5-54.5-54.5z" fill="#ffd88e"/><g id="XMLID_186_"><path id="XMLID_433_" d="m50 184h139c5.522 0 10-4.477 10-10v-104c0-5.523-4.478-10-10-10h-139c-5.522 0-10 4.477-10 10v104c0 5.523 4.478 10 10 10zm10-20v-26.965c6.85-2.182 14.361-1.58 20.841 1.82 13.715 7.196 30.087 7.194 43.798 0 7.893-4.142 17.318-4.142 25.211 0 6.856 3.598 14.377 5.396 21.898 5.396 2.426 0 4.849-.208 7.252-.582v20.331zm119-84v43.252c-6.58 1.826-13.686 1.132-19.857-2.107-13.714-7.196-30.085-7.195-43.797 0-7.893 4.141-17.317 4.142-25.212 0-9.369-4.916-19.979-6.468-30.134-4.666v-36.479z"/><path id="XMLID_498_" d="m269 200h139c5.522 0 10-4.477 10-10v-120c0-5.523-4.478-10-10-10h-139c-5.522 0-10 4.477-10 10v120c0 5.523 4.478 10 10 10zm17.504-20c4.55-19.739 22.267-34.5 43.367-34.5h17.258c21.101 0 38.817 14.761 43.367 34.5zm37.45-85.454c0-8.021 6.525-14.545 14.546-14.545s14.546 6.525 14.546 14.545v15.409c0 8.021-6.525 14.545-14.546 14.545s-14.546-6.525-14.546-14.545zm74.046 55.872c-7.756-9.945-18.352-17.562-30.565-21.624 3.543-5.423 5.611-11.892 5.611-18.839v-15.409c0-5.195-1.16-10.121-3.223-14.545h28.177zm-90.823-70.418c-2.063 4.424-3.223 9.351-3.223 14.545v15.409c0 6.947 2.068 13.416 5.611 18.839-12.213 4.062-22.81 11.679-30.565 21.624v-70.417z"/><path id="XMLID_578_" d="m509.071 376.641-51.071-51.072v-255.569c0-27.57-22.43-50-50-50h-358c-27.57 0-50 22.43-50 50v304c0 27.57 22.43 50 50 50h281.569l65.071 65.071c1.953 1.952 4.512 2.929 7.071 2.929s5.118-.977 7.071-2.929l98.288-98.288c3.907-3.905 3.907-10.237.001-14.142zm-489.071-2.641v-304c0-16.542 13.458-30 30-30h169v137c0 5.523 4.478 10 10 10s10-4.477 10-10v-137h169c16.542 0 30 13.458 30 30v235.569l-13.781-13.781c-1.736-1.735-3.951-2.695-6.219-2.887v-58.901c0-5.523-4.478-10-10-10h-139c-5.522 0-10 4.477-10 10v120c0 5.522 4.478 10 10 10h72.864l-30.076 30.076c-3.835 3.835-3.895 10.005-.198 13.924h-72.59v-137c0-5.522-4.478-10-10-10s-10 4.478-10 10v137h-169c-16.542 0-30-13.458-30-30zm341.864-34h-82.864v-100h119v63.864zm41.848 127.858-70.71-70.71 84.146-84.146 70.71 70.71z"/><path id="XMLID_582_" d="m50 224h76.75c5.522 0 10-4.477 10-10s-4.478-10-10-10h-76.75c-5.522 0-10 4.477-10 10s4.478 10 10 10z"/><path id="XMLID_613_" d="m199 254c0-5.523-4.478-10-10-10h-139c-5.522 0-10 4.477-10 10v120c0 5.522 4.478 10 10 10h139c5.522 0 10-4.478 10-10zm-20 100.608-33.566-33.566 33.566-33.566zm-18.893 9.392h-87.964l43.982-43.982zm14.083-100-42.899 42.899-8.095-8.095c-3.906-3.904-10.236-3.904-14.143 0l-49.053 49.054v-83.858z"/><path id="XMLID_616_" d="m229 232c2.63 0 5.21-1.07 7.069-2.93 1.86-1.86 2.931-4.44 2.931-7.07s-1.07-5.21-2.931-7.07c-1.859-1.86-4.439-2.93-7.069-2.93s-5.21 1.07-7.07 2.93-2.93 4.44-2.93 7.07 1.069 5.21 2.93 7.07 4.44 2.93 7.07 2.93z"/></g></g></svg>