<svg id="Capa_1" enable-background="new 0 0 512.062 512.062" height="512" viewBox="0 0 512.062 512.062" width="512" xmlns="http://www.w3.org/2000/svg"><g id="XMLID_1651_"><path id="XMLID_857_" d="m449.031 277h-164v87c0 45.287 36.713 82 82 82 45.287 0 82-36.713 82-82z" fill="#f8f8f8"/><path id="XMLID_1700_" d="m474.031 446h-436c-15.464 0-28 12.536-28 28 0 15.464 12.536 28 28 28h436c15.464 0 28-12.536 28-28 0-15.464-12.536-28-28-28z" fill="#ffd88e"/><g id="XMLID_852_"><path id="XMLID_856_" d="m143.031 10-56.5 90.805-56.5-90.805z" fill="#a0c8ff"/><path id="XMLID_855_" d="m256.031 10-56.5 90.805-56.5-90.805z" fill="#d5ea7a"/><path id="XMLID_854_" d="m369.031 10-56.5 90.805-56.5-90.805z" fill="#ffd88e"/><path id="XMLID_853_" d="m482.031 10-56.5 90.805-56.5-90.805z" fill="#ff7a7a"/></g><path id="XMLID_2076_" d="m333.031 328h48v48h-48z" fill="#ff7a7a"/><path id="XMLID_2143_" d="m63.031 277h164v87c0 45.287-36.713 82-82 82-45.287 0-82-36.713-82-82z" fill="#f8f8f8"/><path id="XMLID_2140_" d="m131.031 328h48v48h-48z" fill="#ff7a7a" transform="matrix(-1 0 0 -1 310.062 704)"/><g id="XMLID_437_"><path id="XMLID_440_" d="m10.265 20h14.21l53.565 86.088c1.825 2.933 5.035 4.717 8.49 4.717s6.665-1.784 8.49-4.717l48.01-77.159 48.01 77.159c1.825 2.933 5.035 4.717 8.49 4.717s6.665-1.784 8.49-4.717l48.01-77.159 48.01 77.159c1.825 2.933 5.035 4.717 8.49 4.717s6.665-1.784 8.49-4.717l48.01-77.159 48.01 77.159c1.825 2.933 5.035 4.717 8.49 4.717s6.665-1.784 8.49-4.717l53.566-86.088h14.21c5.522 0 10-4.477 10-10s-4.478-10-10-10h-491.531c-5.522 0-10 4.477-10 10s4.478 10 10 10zm453.766 0-38.5 61.876-38.5-61.876zm-113 0-38.5 61.876-38.5-61.876zm-113 0-38.5 61.876-38.5-61.876zm-113 0-38.5 61.876-38.5-61.876z"/><path id="XMLID_445_" d="m354.745 175.414c0-9.345-3.64-18.13-10.248-24.738-3.904-3.905-10.237-3.905-14.142 0-3.905 3.906-3.905 10.237.001 14.142 2.83 2.83 4.389 6.593 4.389 10.595s-1.559 7.766-4.39 10.596c-13.64 13.641-13.64 35.835 0 49.476 1.953 1.953 4.512 2.929 7.071 2.929s5.118-.976 7.071-2.929c3.905-3.905 3.905-10.237 0-14.143-5.843-5.842-5.843-15.349-.001-21.191 6.609-6.607 10.249-15.393 10.249-24.737z"/><path id="XMLID_462_" d="m403.707 134.847c-3.906-3.905-10.236-3.905-14.143 0-3.905 3.905-3.905 10.237 0 14.143 5.843 5.842 5.843 15.348 0 21.19-6.607 6.608-10.247 15.394-10.247 24.738s3.64 18.13 10.247 24.738c1.953 1.953 4.512 2.929 7.071 2.929s5.119-.977 7.071-2.929c3.905-3.905 3.905-10.237 0-14.142-2.831-2.83-4.39-6.593-4.39-10.595s1.559-7.766 4.39-10.596c13.64-13.641 13.64-35.836.001-49.476z"/><path id="XMLID_463_" d="m132.745 175.414c0-9.345-3.64-18.13-10.248-24.738-3.904-3.905-10.237-3.905-14.142 0-3.905 3.906-3.905 10.237.001 14.142 2.83 2.83 4.389 6.593 4.389 10.595s-1.559 7.766-4.39 10.596c-13.64 13.641-13.64 35.835 0 49.476 1.953 1.953 4.512 2.929 7.071 2.929s5.118-.976 7.071-2.929c3.905-3.905 3.905-10.237 0-14.143-5.843-5.842-5.843-15.349-.001-21.191 6.609-6.607 10.249-15.393 10.249-24.737z"/><path id="XMLID_464_" d="m181.707 134.847c-3.906-3.905-10.236-3.905-14.143 0-3.905 3.905-3.905 10.237 0 14.143 5.843 5.842 5.843 15.348 0 21.19-6.607 6.608-10.247 15.394-10.247 24.738s3.64 18.13 10.247 24.738c1.953 1.953 4.512 2.929 7.071 2.929s5.119-.977 7.071-2.929c3.905-3.905 3.905-10.237 0-14.142-2.831-2.83-4.39-6.593-4.39-10.595s1.559-7.766 4.39-10.596c13.64-13.641 13.64-35.836.001-49.476z"/><path id="XMLID_879_" d="m451.619 400.167h20.048c22.257 0 40.364-18.107 40.364-40.364v-36.605c0-22.257-18.107-40.364-40.364-40.364h-12.636v-5.834c0-5.523-4.478-10-10-10h-164c-5.522 0-10 4.477-10 10v87c0 29.126 13.608 55.131 34.797 72h-107.595c21.189-16.869 34.797-42.874 34.797-72v-87c0-5.523-4.478-10-10-10h-164c-5.522 0-10 4.477-10 10v5.833h-12.635c-22.257 0-40.364 18.107-40.364 40.364v36.605c0 22.257 18.107 40.364 40.364 40.364h20.048c6.053 14.102 15.532 26.397 27.385 35.833h-49.797c-20.953 0-38 17.047-38 38s17.047 38 38 38h173.063c5.522 0 10-4.477 10-10s-4.478-10-10-10h-173.063c-9.925 0-18-8.075-18-18s8.075-18 18-18h436c9.925 0 18 8.075 18 18s-8.075 18-18 18h-172.938c-5.522 0-10 4.477-10 10s4.478 10 10 10h172.938c20.953 0 38-17.047 38-38s-17.047-38-38-38h-49.797c11.852-9.436 21.332-21.73 27.385-35.832zm-398.588-20h-12.636c-11.229 0-20.364-9.135-20.364-20.364v-36.605c0-11.229 9.136-20.364 20.364-20.364h12.636zm20-16.167v-77h72v31h-14c-5.522 0-10 4.477-10 10v48c0 5.523 4.478 10 10 10h48c5.522 0 10-4.477 10-10v-48c0-5.523-4.478-10-10-10h-14v-31h52v77c0 39.701-32.299 72-72 72s-72-32.299-72-72zm96-26v28h-28v-28zm302.636-35.167c11.229 0 20.364 9.135 20.364 20.364v36.605c0 11.229-9.136 20.364-20.364 20.364h-12.636v-77.333zm-176.636 61.167v-77h52v31h-14c-5.522 0-10 4.477-10 10v48c0 5.523 4.478 10 10 10h48c5.522 0 10-4.477 10-10v-48c0-5.523-4.478-10-10-10h-14v-31h72v77c0 39.701-32.299 72-72 72s-72-32.299-72-72zm76-26v28h-28v-28z"/><path id="XMLID_1144_" d="m256.09 492.062c-2.63 0-5.21 1.07-7.069 2.93-1.86 1.86-2.931 4.44-2.931 7.07s1.07 5.21 2.931 7.07c1.859 1.86 4.439 2.93 7.069 2.93s5.21-1.07 7.07-2.93c1.87-1.86 2.93-4.44 2.93-7.07s-1.06-5.21-2.93-7.07c-1.86-1.861-4.44-2.93-7.07-2.93z"/></g></g></svg>