<svg id="Capa_1" enable-background="new 0 0 512 512" height="512" viewBox="0 0 512 512" width="512" xmlns="http://www.w3.org/2000/svg"><g id="XMLID_1143_"><path id="XMLID_1644_" d="m441.937 10h-372c-22.091 0-40 17.909-40 40v165.02c0 22.091 17.909 40 40 40h372c22.091 0 40-17.909 40-40v-165.02c0-22.091-17.909-40-40-40z" fill="#ff7a7a"/><g fill="#ffd88e"><path id="XMLID_1875_" d="m66 462h48v40h-48z"/><path id="XMLID_1874_" d="m398.127 462h48v40h-48z"/><path id="XMLID_1873_" d="m66 462h48v40h-48z"/><path id="XMLID_1872_" d="m398.127 462h48v40h-48z"/></g><path id="XMLID_1467_" d="m127.937 255.02c-18.79 0-34.023-15.232-34.023-34.023v-15.121c0-18.79 15.232-34.023 34.023-34.023 18.79 0 34.023 15.232 34.023 34.023v15.121c-.001 18.79-15.233 34.023-34.023 34.023z" fill="#9da5be"/><path id="XMLID_1567_" d="m159.27 255.02h-62.667c-18.041 0-32.667 14.625-32.667 32.667v25.333h128v-25.333c.001-18.042-14.625-32.667-32.666-32.667z" fill="#d5ea7a"/><path id="XMLID_1648_" d="m255.937 255.02c-18.79 0-34.023-15.232-34.023-34.023v-15.121c0-18.79 15.232-34.023 34.023-34.023 18.79 0 34.023 15.232 34.023 34.023v15.121c-.001 18.79-15.233 34.023-34.023 34.023z" fill="#ffd88e"/><path id="XMLID_1573_" d="m287.27 255.02h-62.667c-18.041 0-32.667 14.625-32.667 32.667v25.333h128v-25.333c.001-18.042-14.625-32.667-32.666-32.667z" fill="#fff"/><path id="XMLID_1226_" d="m383.937 255.02c-18.79 0-34.023-15.232-34.023-34.023v-15.121c0-18.79 15.232-34.023 34.023-34.023 18.79 0 34.023 15.232 34.023 34.023v15.121c-.001 18.79-15.233 34.023-34.023 34.023z" fill="#c68966"/><path id="XMLID_1578_" d="m415.27 255.02h-62.667c-18.041 0-32.667 14.625-32.667 32.667v25.333h128v-25.333c.001-18.042-14.625-32.667-32.666-32.667z" fill="#bedaff"/><path id="XMLID_1580_" d="m446.127 462h-380.127c-19.847 0-35.937-16.089-35.937-35.937v-90.813c0-20.009 16.221-36.23 36.23-36.23h379.54c20.009 0 36.23 16.221 36.23 36.23v90.813c0 19.848-16.089 35.937-35.936 35.937z" fill="#ffd88e"/><path id="XMLID_1217_" d="m238.748 92.622 41.353 23.875c8.855 5.113 8.855 17.894 0 23.006l-41.353 23.875c-8.855 5.113-19.924-1.278-19.924-11.503v-47.75c0-10.225 11.069-16.616 19.924-11.503z" fill="#fff"/><g id="XMLID_175_"><path id="XMLID_830_" d="m457.937 290.638v-2.952c0-8.671-2.606-16.741-7.067-23.481 23.32-4.225 41.067-24.665 41.067-49.185v-165.02c0-27.57-22.43-50-50-50h-372c-27.57 0-50 22.43-50 50v165.02c0 24.52 17.747 44.96 41.067 49.185-4.461 6.741-7.067 14.811-7.067 23.481v3.024c-19.508 5.42-33.873 23.328-33.873 44.539v90.813c0 21.895 15.402 40.249 35.937 44.827v31.111c0 5.523 4.478 10 10 10h48c5.522 0 10-4.477 10-10v-30h86.998c5.522 0 10-4.477 10-10s-4.478-10-10-10h-144.999c-14.302 0-25.937-11.635-25.937-25.937v-90.813c0-14.463 11.767-26.23 26.23-26.23h379.539c14.464 0 26.23 11.767 26.23 26.23v90.813c0 14.301-11.635 25.937-25.937 25.937h-145.124c-5.522 0-10 4.477-10 10s4.478 10 10 10h87.126v30c0 5.523 4.478 10 10 10h48c5.522 0 10-4.477 10-10v-31.109c20.535-4.579 35.937-22.932 35.937-44.827v-90.814c-.001-21.303-14.489-39.278-34.127-44.612zm-353.937 181.362v20h-28v-20zm-30.063-182.98v-1.333c0-12.499 10.168-22.667 22.667-22.667h62.666c12.499 0 22.667 10.168 22.667 22.667v1.333zm29.977-68.023v-15.121c0-13.246 10.776-24.023 24.022-24.023s24.022 10.777 24.022 24.023v15.121c0 13.246-10.776 24.023-24.022 24.023s-24.022-10.777-24.022-24.023zm128 0v-15.121c0-13.246 10.776-24.023 24.022-24.023s24.022 10.777 24.022 24.023v15.121c0 13.246-10.776 24.023-24.022 24.023s-24.022-10.777-24.022-24.023zm-3.09-69.122v-47.75c0-1.649 1.028-2.489 1.642-2.843.361-.209.942-.458 1.651-.458.492 0 1.046.12 1.631.458l41.354 23.875c1.428.824 1.641 2.135 1.641 2.843s-.213 2.019-1.641 2.843l-41.354 23.875c-1.427.825-2.67.354-3.282 0-.613-.354-1.642-1.194-1.642-2.843zm131.09 69.122v-15.121c0-13.246 10.776-24.023 24.022-24.023s24.022 10.777 24.022 24.023v15.121c0 13.246-10.776 24.023-24.022 24.023s-24.022-10.777-24.022-24.023zm-157.977 66.69c0-12.499 10.168-22.667 22.667-22.667h62.666c12.499 0 22.667 10.168 22.667 22.667v1.333h-108zm128 0c0-12.499 10.168-22.667 22.667-22.667h62.666c12.499 0 22.667 10.168 22.667 22.667v1.333h-108zm-290-72.667v-165.02c0-16.542 13.458-30 30-30h372c16.542 0 30 13.458 30 30v165.02c0 16.542-13.458 30-30 30h-21.138c4.521-6.914 7.16-15.164 7.16-24.023v-15.121c0-24.274-19.748-44.023-44.022-44.023s-44.022 19.749-44.022 44.023v15.121c0 8.859 2.64 17.109 7.16 24.023h-54.275c4.521-6.914 7.16-15.164 7.16-24.023v-15.121c0-22.598-17.117-41.264-39.065-43.736l24.208-13.976c7.288-4.209 11.64-11.747 11.64-20.164s-4.352-15.955-11.641-20.164l-41.354-23.875c-7.289-4.209-15.993-4.209-23.282 0-7.29 4.208-11.642 11.747-11.642 20.164v47.75c0 8.417 4.352 15.955 11.642 20.164 1.596.921 3.261 1.628 4.961 2.146-8.321 8.014-13.513 19.254-13.513 31.691v15.121c0 8.859 2.64 17.109 7.16 24.023h-54.275c4.521-6.914 7.16-15.164 7.16-24.023v-15.121c0-24.274-19.748-44.023-44.022-44.023s-44.022 19.749-44.022 44.023v15.121c0 8.859 2.64 17.109 7.16 24.023h-21.138c-16.542 0-30-13.458-30-30zm396.19 276.98h-28v-20h28z"/><path id="XMLID_1082_" d="m256 452.06c-2.63 0-5.21 1.07-7.07 2.93s-2.93 4.44-2.93 7.07c0 2.64 1.069 5.21 2.93 7.07 1.86 1.87 4.44 2.93 7.07 2.93s5.21-1.06 7.069-2.93c1.86-1.86 2.931-4.44 2.931-7.07s-1.07-5.21-2.931-7.07c-1.859-1.86-4.439-2.93-7.069-2.93z"/></g></g></svg>