<svg id="Capa_1" enable-background="new 0 0 512 512" height="512" viewBox="0 0 512 512" width="512" xmlns="http://www.w3.org/2000/svg"><g id="XMLID_1031_"><path id="XMLID_2776_" d="m43 190v312h426v-312l-213-143.5z" fill="#ffd88e"/><path id="XMLID_2376_" d="m284.543 86.791-129.915 129.915 173.667 173.667 140.543-140.543-.162-40.15z" fill="#fff1d8"/><path id="XMLID_2371_" d="m403.667 105.727v-52.06h44.333v84.499z" fill="#9da5be"/><g id="XMLID_2368_"><path id="XMLID_2370_" d="m468.676 209.68-212.676-141.968-212.675 141.968-26.649-39.923 239.324-159.757 239.325 159.757z" fill="#ff7a7a"/></g><g id="XMLID_2366_"><path id="XMLID_2367_" d="m468.676 209.68-212.676-141.968-212.675 141.968-26.649-39.923 239.324-159.757 239.325 159.757z" fill="#ff7a7a"/></g><g id="XMLID_2128_"><g><path id="XMLID_177_" d="m202.198 197.002h46v245.602h-46z" fill="#a0c8ff" transform="matrix(.707 -.707 .707 .707 -160.176 252.907)"/><g id="XMLID_174_"><path d="m58.557 486.444 15.556 15.556 109.366-109.366 36.875 12.17c6.728 2.221 14.134.461 19.144-4.549l16.814-16.814-47.376-47.376-47.376-47.376-16.814 16.814c-5.01 5.01-6.77 12.415-4.549 19.144l12.17 36.875-109.367 109.366z" fill="#9da5be"/></g></g></g><g id="XMLID_326_"><path id="XMLID_493_" d="m502 492h-23v-279.775l24.642-36.917c3.066-4.594 1.828-10.803-2.766-13.869l-42.876-28.621v-79.15c0-5.522-4.477-10-10-10h-44.333c-5.523 0-10 4.478-10 10v36.206l-132.115-88.191c-3.361-2.244-7.742-2.244-11.104 0l-239.324 159.756c-4.594 3.066-5.832 9.275-2.766 13.869l24.642 36.917v71.271c0 5.522 4.477 10 10 10s10-4.478 10-10v-68.251l203-135.509 12.867 8.589-153.837 153.837c-3.905 3.905-3.905 10.237 0 14.143l32.386 32.386-9.742 9.742c-7.728 7.727-10.4 18.973-6.975 29.349l10.24 31.025-87.939 87.939v-73.25c0-5.522-4.477-10-10-10s-10 4.478-10 10v118.504h-23c-5.523 0-10 4.478-10 10s4.477 10 10 10h492c5.523 0 10-4.478 10-10s-4.477-10-10-10zm-88.333-428.333h24.333v55.8l-24.333-16.243zm-157.667-5.955c-1.936 0-3.872.561-5.552 1.683l-204.358 136.416-15.545-23.289 225.455-150.498 225.456 150.498-15.545 23.289-204.359-136.416c-1.68-1.122-3.616-1.683-5.552-1.683zm117.013 100.133-97.428 97.428c-3.905 3.905-3.905 10.237 0 14.143 1.953 1.952 4.512 2.929 7.071 2.929s5.119-.977 7.071-2.929l100.248-100.248 35.111 23.438-76.24 76.24c-3.905 3.905-3.905 10.237 0 14.143 1.953 1.952 4.512 2.929 7.071 2.929s5.119-.977 7.071-2.929l79.06-79.06 16.952 11.316v30.281l-130.705 130.704-116.108-116.108 41.378-41.377c3.905-3.905 3.906-10.237 0-14.143-3.906-3.903-10.237-3.904-14.142 0l-41.378 41.378-29.274-29.274 117.058-117.059zm-218.385 73.003 159.524 159.524-18.385 18.385-159.524-159.524zm4.809 137.745c2.67-2.671 3.609-6.619 2.425-10.205l-12.17-36.876c-1.043-3.16-.229-6.584 2.124-8.938l9.743-9.742 80.61 80.61-9.741 9.742c-2.354 2.353-5.779 3.165-8.939 2.124l-36.875-12.171c-3.586-1.183-7.535-.246-10.206 2.425l-102.295 102.296-16.971-16.97zm-61.182 123.407 87.939-87.939 31.025 10.24c10.375 3.424 21.622.752 29.35-6.974l9.742-9.742 32.386 32.386c1.875 1.875 4.419 2.929 7.071 2.929s5.196-1.054 7.071-2.929l156.161-156.161v218.19z"/><path id="XMLID_691_" d="m41.424 67.667h12.576v12.576c0 5.522 4.477 10 10 10s10-4.478 10-10v-12.576h12.577c5.523 0 10-4.478 10-10s-4.477-10-10-10h-12.577v-12.577c0-5.522-4.477-10-10-10s-10 4.478-10 10v12.577h-12.576c-5.523 0-10 4.478-10 10s4.477 10 10 10z"/><path id="XMLID_692_" d="m429.526 412.9h-12.577v-12.577c0-5.522-4.477-10-10-10s-10 4.478-10 10v12.577h-12.577c-5.523 0-10 4.478-10 10s4.477 10 10 10h12.577v12.576c0 5.522 4.477 10 10 10s10-4.478 10-10v-12.576h12.577c5.523 0 10-4.478 10-10s-4.477-10-10-10z"/><path id="XMLID_693_" d="m43 338.491c2.63 0 5.21-1.061 7.07-2.931 1.86-1.859 2.93-4.43 2.93-7.069 0-2.631-1.07-5.21-2.93-7.07s-4.44-2.93-7.07-2.93-5.21 1.069-7.07 2.93c-1.86 1.86-2.93 4.439-2.93 7.07 0 2.64 1.07 5.21 2.93 7.069 1.86 1.87 4.44 2.931 7.07 2.931z"/></g></g></svg>