<svg id="Capa_1" enable-background="new 0 0 512.001 512.001" height="512" viewBox="0 0 512.001 512.001" width="512" xmlns="http://www.w3.org/2000/svg"><g id="XMLID_1309_"><path id="XMLID_2196_" d="m397.544 128v-87.5h-47.017v49.221z" fill="#9da5be"/><path id="XMLID_2192_" d="m88.807 165.735h322.126v234.364h-322.126z" fill="#f8f8f8"/><path id="XMLID_2189_" d="m53.092 165.735 196.778-155.735 196.778 155.735z" fill="#ff7a7a"/><path id="XMLID_2694_" d="m20.859 422.634 67.178-67.178c22.548-22.548 53.129-35.215 85.016-35.215 22.324 0 43.733 8.868 59.519 24.653h65.579c15.244 0 27.602 12.358 27.602 27.602 0 15.244-12.358 27.602-27.602 27.602h-76.019 28.5 68.745c27.755 0 54.373-11.026 73.999-30.651l49.459-49.459c9.892-9.892 25.529-11.072 36.793-2.774 13.944 10.272 15.473 30.547 3.227 42.794l-49.101 49.101c-33.866 33.866-79.797 52.891-127.688 52.891h-138.891l-40.001 40.001z" fill="#f4c6af"/><g id="XMLID_729_"><path id="XMLID_730_" d="m333.088 449.846c-8.901 1.429-17.993 2.153-27.022 2.153h-138.891c-2.652 0-5.196 1.054-7.071 2.929l-40.001 40.002c-3.905 3.905-3.905 10.237 0 14.143 1.953 1.952 4.512 2.929 7.071 2.929s5.119-.977 7.071-2.929l37.072-37.073h134.749c10.087 0 20.245-.81 30.191-2.405 5.453-.876 9.165-6.006 8.289-11.459s-6.01-9.164-11.458-8.29z"/><path id="XMLID_812_" d="m501.034 337.119c-.84-11.14-6.481-21.329-15.476-27.954-15.361-11.318-36.303-9.738-49.795 3.753l-14.83 14.83v-152.013h25.715c4.256 0 8.046-2.694 9.445-6.715s.099-8.485-3.239-11.127l-45.31-35.86v-81.533c0-5.522-4.477-10-10-10h-47.018c-5.523 0-10 4.478-10 10v28.494l-84.45-66.836c-3.637-2.877-8.775-2.877-12.412 0l-196.778 155.735c-3.337 2.642-4.637 7.106-3.239 11.127s5.188 6.715 9.445 6.715h25.715v174.809l-65.02 65.02c-3.905 3.905-3.905 10.237 0 14.143 1.953 1.952 4.512 2.929 7.071 2.929s5.119-.977 7.071-2.929l67.177-67.178c20.82-20.82 48.502-32.286 77.946-32.286 19.812 0 38.438 7.715 52.448 21.725 1.875 1.875 4.418 2.929 7.071 2.929h65.579c9.706 0 17.602 7.896 17.602 17.603 0 9.705-7.896 17.602-17.602 17.602h-76.019c-5.523 0-10 4.478-10 10s4.477 10 10 10h97.245c30.625 0 59.416-11.926 81.069-33.58l49.459-49.459c6.445-6.447 16.451-7.201 23.791-1.793 4.298 3.165 6.993 8.033 7.394 13.356.402 5.322-1.533 10.54-5.307 14.314l-49.103 49.102c-5.07 5.07-10.516 9.868-16.187 14.259-4.367 3.382-5.166 9.662-1.785 14.029 1.971 2.545 4.926 3.879 7.914 3.878 2.138 0 4.294-.683 6.115-2.093 6.336-4.906 12.421-10.267 18.085-15.932l49.102-49.101c7.902-7.902 11.951-18.823 11.111-29.963zm-140.507-286.619h27.018v55.705l-27.018-21.382zm-110.657-27.748 168.029 132.982h-336.058zm136.434 339.624c-14.919 14.92-33.944 24.24-54.526 26.917 2.537-5.059 3.974-10.761 3.974-16.796 0-20.734-16.868-37.603-37.602-37.603h-61.568c-17.396-15.93-39.793-24.653-63.53-24.653-26.929 0-52.607 8.125-74.246 23.203v-157.71h302.126v172.012z"/><path id="XMLID_837_" d="m377.87 437.1c-2.63 0-5.21 1.07-7.07 2.931-1.86 1.859-2.93 4.439-2.93 7.069s1.07 5.21 2.93 7.07 4.44 2.93 7.07 2.93 5.21-1.069 7.07-2.93 2.93-4.44 2.93-7.07-1.07-5.21-2.93-7.069c-1.859-1.861-4.439-2.931-7.07-2.931z"/></g></g></svg>