<svg id="Capa_1" enable-background="new 0 0 512 512" height="512" viewBox="0 0 512 512" width="512" xmlns="http://www.w3.org/2000/svg"><g id="XMLID_753_"><path id="XMLID_2289_" d="m256 10c-125.645 0-227.5 101.855-227.5 227.5 0 67.525 29.43 128.168 76.15 169.833v94.667l57.297-57.297c28.666 13.033 60.51 20.297 94.053 20.297 125.645 0 227.5-101.855 227.5-227.5s-101.855-227.5-227.5-227.5z" fill="#a0c8ff"/><g id="XMLID_2274_"><path id="XMLID_2276_" d="m260.234 296.159h116.895v83.799h-116.895z" fill="#ffd88e"/><path id="XMLID_2275_" d="m260.234 296.159 58.447-58.659 58.448 58.659z" fill="#ff7a7a"/></g><g id="XMLID_21_"><path id="XMLID_22_" d="m156.577 135.062c-9.827-3.625-18.975-7.572-21.783-8.802-2.178-1.751-2.104-4.189-1.958-5.206.203-1.412 1.229-4.863 6.363-6.409 11.265-3.395 21.708 4.843 22.016 5.089 4.227 3.506 10.499 2.947 14.038-1.263 3.554-4.228 3.007-10.536-1.22-14.09-.755-.635-18.75-15.47-40.602-8.887-11.044 3.326-18.858 12.031-20.392 22.717-1.439 10.026 2.906 19.672 11.342 25.172.441.288.905.54 1.387.756.463.206 11.479 5.11 23.887 9.687 3.507 1.294 11.55 4.944 10.489 10.891-.798 4.472-6.244 9.097-13.975 9.097-7.951 0-15.603-3.205-20.469-8.574-3.709-4.093-10.033-4.403-14.125-.693-4.092 3.709-4.403 10.032-.694 14.125 8.594 9.481 21.786 15.143 35.288 15.143 16.86 0 31.018-10.759 33.664-25.581 1.992-11.157-3.072-25.728-23.256-33.172z"/><path id="XMLID_479_" d="m396.977 119.956c-5.218-1.804-10.914.964-12.719 6.184l-10.43 30.168-10.719-30.242c-1.845-5.206-7.56-7.929-12.766-6.085-5.206 1.846-7.93 7.562-6.084 12.767l19.093 53.864-6.751 19.527c-1.805 5.22.964 10.914 6.184 12.719 1.082.374 2.184.552 3.268.552 4.145 0 8.02-2.598 9.451-6.735l27.659-80c1.802-5.22-.967-10.914-6.186-12.719z"/><path id="XMLID_482_" d="m244.821 124.614c0-5.522-4.477-10-10-10h-1.591v-10.802c0-5.522-4.477-10-10-10s-10 4.478-10 10v10.802h-1.488c-5.523 0-10 4.478-10 10s4.477 10 10 10h1.488v49.198c0 5.522 4.477 10 10 10s10-4.478 10-10v-49.198h1.591c5.523 0 10-4.477 10-10z"/><path id="XMLID_485_" d="m303.288 187.299c1.417 3.801 5.068 6.513 9.363 6.513 5.523 0 10-4.478 10-10v-54.405c0-5.522-4.477-10-10-10-4.295 0-7.946 2.713-9.363 6.513-4.439-2.127-9.406-3.321-14.648-3.321-18.753 0-34.01 15.257-34.01 34.01 0 18.754 15.257 34.011 34.01 34.011 5.242 0 10.209-1.194 14.648-3.321zm-28.658-30.69c0-7.725 6.285-14.01 14.01-14.01s14.01 6.285 14.01 14.01c0 7.726-6.285 14.011-14.01 14.011s-14.01-6.285-14.01-14.011z"/><path id="XMLID_489_" d="m220.286 313.812c5.523 0 10-4.478 10-10v-49.198h1.488c5.523 0 10-4.478 10-10s-4.477-10-10-10h-1.488v-10.802c0-5.522-4.477-10-10-10s-10 4.478-10 10v10.802h-1.591c-5.523 0-10 4.478-10 10s4.477 10 10 10h1.591v49.198c0 5.523 4.477 10 10 10z"/><path id="XMLID_702_" d="m156.949 245.92c-4.439-2.127-9.406-3.321-14.648-3.321-18.753 0-34.01 15.257-34.01 34.01 0 18.754 15.257 34.011 34.01 34.011 5.242 0 10.209-1.194 14.648-3.321 1.417 3.801 5.068 6.513 9.363 6.513 5.523 0 10-4.478 10-10v-54.405c0-5.522-4.477-10-10-10-4.295 0-7.946 2.713-9.363 6.513zm-14.648 44.7c-7.725 0-14.01-6.285-14.01-14.011 0-7.725 6.285-14.01 14.01-14.01s14.01 6.285 14.01 14.01c.001 7.726-6.285 14.011-14.01 14.011z"/><path id="XMLID_705_" d="m250.234 379.958c0 5.522 4.477 10 10 10h116.895c5.523 0 10-4.478 10-10v-83.799c-.008 0-.016-.001-.024-.001-.001-2.595-.988-5.146-2.892-7.057l-58.448-58.659c-1.876-1.883-4.426-2.941-7.084-2.941s-5.208 1.059-7.084 2.941l-58.447 58.659.001.001c-1.802 1.809-2.917 4.303-2.917 7.057zm116.895-10h-96.895v-63.799h96.895zm-48.448-118.29 34.367 34.491h-68.734z"/><path id="XMLID_707_" d="m460.969 117.452c-2.795-4.764-8.924-6.357-13.686-3.562-4.763 2.795-6.358 8.923-3.563 13.686 19.482 33.195 29.78 71.207 29.78 109.925 0 119.929-97.57 217.499-217.5 217.499-31.349 0-61.601-6.527-89.915-19.4-3.793-1.725-8.262-.916-11.21 2.032l-40.226 40.226v-70.524c0-2.851-1.217-5.565-3.344-7.463-46.268-41.265-72.805-100.445-72.805-162.371 0-119.93 97.57-217.5 217.5-217.5 47.611 0 92.818 15.098 130.737 43.661 4.413 3.323 10.682 2.441 14.004-1.971 3.323-4.411 2.441-10.681-1.97-14.004-41.415-31.197-90.784-47.686-142.771-47.686-63.438 0-123.08 24.704-167.938 69.562-44.857 44.858-69.562 104.5-69.562 167.938 0 66.114 27.698 129.362 76.149 174.256v90.244c0 4.045 2.437 7.691 6.173 9.239 1.237.512 2.536.761 3.825.761 2.602 0 5.16-1.016 7.073-2.929l52.473-52.473c29.078 12.215 59.927 18.402 91.807 18.402 63.438 0 123.08-24.704 167.937-69.562 44.858-44.858 69.563-104.5 69.563-167.938 0-42.274-11.249-83.786-32.531-120.048z"/><path id="XMLID_708_" d="m425.85 96.149c2.63 0 5.21-1.069 7.07-2.93s2.93-4.439 2.93-7.07c0-2.63-1.07-5.21-2.93-7.069-1.86-1.86-4.44-2.931-7.07-2.931s-5.21 1.07-7.07 2.931c-1.86 1.859-2.93 4.439-2.93 7.069 0 2.631 1.07 5.21 2.93 7.07s4.44 2.93 7.07 2.93z"/></g></g></svg>