<svg id="Capa_1" enable-background="new 0 0 512 512" height="512" viewBox="0 0 512 512" width="512" xmlns="http://www.w3.org/2000/svg"><g id="XMLID_767_"><path id="XMLID_2222_" d="m60 188.862h392v313.138h-392z" fill="#f8f8f8"/><path id="XMLID_2218_" d="m448 156.833v-112.319h-54v68.354z" fill="#9da5be"/><path id="XMLID_2215_" d="m30 188.862 226-178.862 226 178.862z" fill="#ff7a7a"/><g id="XMLID_1814_"><path id="XMLID_2212_" d="m143 188.862-56.5 90.804-56.5-90.804z" fill="#a0c8ff"/><path id="XMLID_1924_" d="m256 188.862-56.5 90.804-56.5-90.804z" fill="#d5ea7a"/><path id="XMLID_1922_" d="m369 188.862-56.5 90.804-56.5-90.804z" fill="#ffd88e"/><path id="XMLID_1915_" d="m482 188.862-56.5 90.804-56.5-90.804z" fill="#ff7a7a"/></g><path id="XMLID_1806_" d="m196 328h120v120h-120z" fill="#bedaff"/><g id="XMLID_12_"><path id="XMLID_38_" d="m482 492h-20v-252.066l28.491-45.789s.707-1.289.954-1.998c1.398-4.02.099-8.485-3.239-11.126l-30.206-23.907v-112.6c0-5.523-4.477-10-10-10h-54c-5.523 0-10 4.477-10 10v54.035l-121.794-96.391c-3.637-2.878-8.775-2.878-12.412 0l-226 178.862c-3.337 2.642-4.637 7.106-3.239 11.126.247.709.954 1.998.954 1.998l28.491 45.79v103.066c0 5.523 4.477 10 10 10s10-4.477 10-10v-70.922l8.009 12.872c1.825 2.933 5.036 4.717 8.491 4.717s6.666-1.784 8.491-4.717l48.009-77.159 48.009 77.159c1.825 2.933 5.036 4.717 8.491 4.717s6.666-1.784 8.491-4.717l48.009-77.159 48.009 77.159c1.825 2.933 5.036 4.717 8.491 4.717s6.666-1.784 8.491-4.717l48.009-77.159 48.009 77.159c1.825 2.933 5.036 4.717 8.491 4.717s6.666-1.784 8.491-4.717l8.009-12.873v219.923h-372v-59c0-5.523-4.477-10-10-10s-10 4.477-10 10v59h-20c-5.523 0-10 4.477-10 10s4.477 10 10 10h452c5.523 0 10-4.477 10-10s-4.477-10-10-10zm-78-437.486h34v86.772l-34-26.908zm-317.5 206.224-38.5-61.876h77zm113 0-38.5-61.876h77zm113 0-38.5-61.876h77zm-253.751-81.876 197.251-156.109 197.251 156.109zm366.751 81.876-38.5-61.876h77z"/><path id="XMLID_2404_" d="m316 458c5.523 0 10-4.477 10-10v-120c0-5.523-4.477-10-10-10h-120c-5.523 0-10 4.477-10 10v120c0 5.523 4.477 10 10 10zm-110-60h40v40h-40zm60 40v-40h40v40zm40-60h-40v-40h40zm-60-40v40h-40v-40z"/><path id="XMLID_2408_" d="m60 398c2.63 0 5.21-1.07 7.07-2.93s2.93-4.44 2.93-7.07-1.07-5.21-2.93-7.07-4.44-2.93-7.07-2.93-5.21 1.07-7.07 2.93-2.93 4.44-2.93 7.07 1.07 5.21 2.93 7.07c1.86 1.859 4.44 2.93 7.07 2.93z"/></g></g></svg>