<svg id="Capa_1" enable-background="new 0 0 512 512" height="512" viewBox="0 0 512 512" width="512" xmlns="http://www.w3.org/2000/svg"><g id="XMLID_1083_"><g id="XMLID_877_"><g id="XMLID_1081_"><path id="XMLID_1079_" d="m109.96 454v-67.576h-45.574c-29.129 0-50.495-27.385-43.412-55.639l24.703-98.533h54.248v84.894l1.339-18.569.155-.155c32.205-32.205 75.885-50.298 121.43-50.298h65.548 15.715c54.619 0 105.572 27.483 135.572 73.125 17.395 26.465 26.665 57.442 26.665 89.112 0 24.101-19.538 43.638-43.638 43.638h-13.656-299.095z" fill="#d5ea7a"/><path id="XMLID_925_" d="m72.801 179.683c14.98 0 27.124 12.144 27.124 27.124v25.445h-54.248v-25.445c0-14.98 12.144-27.124 27.124-27.124z" fill="#d0a084"/></g><path id="XMLID_1072_" d="m288.518 206.289v35.635c0 17.959-14.559 32.518-32.518 32.518-17.959 0-32.518-14.559-32.518-32.518v-35.635z" fill="#d0a084"/><g id="XMLID_1483_"><path id="XMLID_1482_" d="m256 213.348c-42.823 0-77.538-34.715-77.538-77.538v-48.272c0-42.823 34.715-77.538 77.538-77.538 42.823 0 77.538 34.715 77.538 77.538v48.272c0 42.823-34.715 77.538-77.538 77.538z" fill="#d0a084"/><path id="XMLID_1481_" d="m256 10c-42.823 0-77.538 34.715-77.538 77.538v12.631h12.56c23.348 0 45.879-6.88 64.978-19.379 19.1 12.499 41.63 19.379 64.978 19.379h12.56v-12.631c0-42.823-34.715-77.538-77.538-77.538z" fill="#9da5be"/></g><path id="XMLID_3251_" d="m478 454h-444c-13.255 0-24 10.745-24 24 0 13.255 10.745 24 24 24h444c13.255 0 24-10.745 24-24 0-13.255-10.745-24-24-24z" fill="#ffd88e"/><path id="XMLID_3334_" d="m363 347c0 59.094-47.906 107-107 107s-107-47.906-107-107z" fill="#bedaff"/><g id="XMLID_1591_"><path id="XMLID_890_" d="m162.811 220.331c12.361 0 22.381-10.02 22.381-22.381v-18.267h-44.763v18.267c0 12.361 10.021 22.381 22.382 22.381z" fill="#f4c6af"/><path id="XMLID_889_" d="m162.811 220.331c12.361 0 22.381-10.02 22.381-22.381v-18.267h-44.763v18.267c0 12.361 10.021 22.381 22.382 22.381z" fill="#bedaff"/></g></g><g id="XMLID_100_"><path id="XMLID_101_" d="m259.67 155.998c-1.935 1.936-5.086 1.938-7.022 0-3.906-3.905-10.236-3.905-14.143 0-3.905 3.905-3.905 10.237 0 14.143 4.867 4.867 11.261 7.3 17.653 7.3 6.394 0 12.787-2.434 17.654-7.3 3.905-3.905 3.905-10.237 0-14.143-3.906-3.906-10.236-3.906-14.142 0z"/><path id="XMLID_133_" d="m478 444h-13.551c7.436-9.208 11.901-20.909 11.901-33.639 0-33.717-9.789-66.431-28.308-94.605-31.952-48.611-85.758-77.632-143.929-77.632h-5.595v-25.82c26.831-14.973 45.02-43.647 45.02-76.494v-48.272c0-48.268-39.269-87.538-87.538-87.538s-87.538 39.27-87.538 87.538v48.272c0 12.003 2.43 23.448 6.821 33.873h-147.391c-5.522 0-10 4.477-10 10s4.478 10 10 10h11.987c-2.678 5.128-4.202 10.95-4.202 17.124v24.209l-24.403 97.337c-4.13 16.476-.506 33.606 9.943 46.998 10.448 13.392 26.183 21.072 43.169 21.072h35.574v47.577h-65.96c-18.748 0-34 15.252-34 34s15.252 34 34 34h177c5.522 0 10-4.477 10-10s-4.478-10-10-10h-177c-7.72 0-14-6.28-14-14s6.28-14 14-14h444c7.72 0 14 6.28 14 14s-6.28 14-14 14h-177c-5.522 0-10 4.477-10 10s4.478 10 10 10h177c18.748 0 34-15.252 34-34s-15.252-34-34-34zm-199.481-202.076c0 12.417-10.102 22.518-22.519 22.518s-22.519-10.102-22.519-22.518v-21.517c7.188 1.915 14.735 2.942 22.519 2.942s15.33-1.027 22.519-2.942zm-65.038-3.56c-38.061 1.92-73.959 15.527-103.556 39.09v-70.647c0-6.174-1.524-11.996-4.202-17.124h24.706v8.267c0 17.855 14.526 32.381 32.381 32.381 17.604 0 31.962-14.123 32.363-31.633 5.467 5.289 11.619 9.873 18.308 13.606zm42.519-35.016c-37.24 0-67.538-30.297-67.538-67.538v-25.641h2.56c22.936 0 45.267-6.073 64.979-17.618 19.712 11.545 42.043 17.618 64.979 17.618h2.56v25.641c-.002 37.241-30.3 67.538-67.54 67.538zm0-183.348c37.24 0 67.538 30.297 67.538 67.538v2.631h-2.56c-21.187 0-41.763-6.136-59.503-17.746-3.326-2.177-7.625-2.177-10.951 0-17.74 11.61-38.316 17.746-59.503 17.746h-2.56v-2.631c.001-37.241 30.299-67.538 67.539-67.538zm-80.808 169.683v8.267c0 6.827-5.555 12.381-12.382 12.381s-12.381-5.554-12.381-12.381v-8.267zm-85.266 17.124v15.445h-34.249v-15.445c0-9.442 7.683-17.124 17.125-17.124s17.124 7.682 17.124 17.124zm166.074 237.193c-50.11 0-91.468-38.194-96.488-87h192.977c-5.021 48.806-46.379 87-96.489 87zm65.357 0c18.234-12.326 32.817-29.656 41.776-50h37.2c5.522 0 10-4.477 10-10s-4.478-10-10-10h-30.483c2.056-8.671 3.15-17.71 3.15-27 0-5.523-4.478-10-10-10h-214c-5.522 0-10 4.477-10 10 0 40.327 20.509 75.954 51.643 97h-70.683v-57.577c0-5.523-4.478-10-10-10h-45.574c-10.781 0-20.769-4.875-27.401-13.375-6.633-8.5-8.933-19.374-6.311-29.832l22.806-90.964h36.446v74.894c0 5.523 4.478 10 10 10s10-4.477 10-10v-13.053c28.92-28.23 66.577-44.36 106.82-45.844 6.414 15.365 21.592 26.193 39.254 26.193 17.71 0 32.919-10.887 39.303-26.317h8.81c51.416 0 98.974 25.651 127.216 68.617 16.368 24.902 25.021 53.818 25.021 83.62 0 18.548-15.09 33.639-33.638 33.639h-101.355z"/><path id="XMLID_141_" d="m256 492c-2.63 0-5.21 1.07-7.07 2.93s-2.93 4.44-2.93 7.07 1.069 5.21 2.93 7.07 4.44 2.93 7.07 2.93 5.21-1.07 7.069-2.93c1.86-1.86 2.931-4.44 2.931-7.07s-1.07-5.21-2.931-7.07c-1.859-1.86-4.439-2.93-7.069-2.93z"/></g></g></svg>