<svg id="Capa_1" enable-background="new 0 0 511.986 511.986" height="512" viewBox="0 0 511.986 511.986" width="512" xmlns="http://www.w3.org/2000/svg"><g id="XMLID_825_"><path id="XMLID_3385_" d="m36.326 198.034v295.917h426v-295.917l-213-143.5z" fill="#f8f8f8"/><path id="XMLID_3380_" d="m396.992 113.76v-52.059h44.334v84.499z" fill="#9da5be"/><g id="XMLID_3378_"><path id="XMLID_3379_" d="m462.001 217.713-212.675-141.967-212.676 141.967-26.649-39.923 239.325-159.756 239.324 159.756z" fill="#ff7a7a"/></g><g id="XMLID_3376_"><path id="XMLID_3377_" d="m462.001 217.713-212.675-141.967-212.676 141.967-26.649-39.923 239.325-159.756 239.324 159.756z" fill="#ff7a7a"/></g><path id="XMLID_3419_" d="m133.481 310.16c2.698-6.387 4.191-13.408 4.191-20.778 0-29.509-23.922-53.432-53.432-53.432s-53.432 23.922-53.432 53.432c0 7.37 1.492 14.391 4.191 20.778-15.332 13.6-24.998 33.446-24.998 55.553 0 41.001 33.238 74.239 74.239 74.239s74.239-33.238 74.239-74.239c0-22.107-9.666-41.953-24.998-55.553z" fill="#ffd88e"/><path id="XMLID_1590_" d="m388.234 393.751 76.285 76.285c8.575 8.575 22.477 8.575 31.051 0 8.575-8.575 8.575-22.477 0-31.051l-76.285-76.285z" fill="#bedaff"/><circle id="XMLID_1531_" cx="383.308" cy="357.773" fill="#bedaff" r="74.996"/><g id="XMLID_76_"><path id="XMLID_77_" d="m265.001 380.451c-5.523 0-10 4.477-10 10v16c0 5.523 4.477 10 10 10s10-4.477 10-10v-16c0-5.523-4.477-10-10-10z"/><path id="XMLID_112_" d="m250.501 429.951h-16c-5.523 0-10 4.477-10 10s4.477 10 10 10h16c5.523 0 10-4.477 10-10s-4.477-10-10-10z"/><path id="XMLID_116_" d="m234.829 302.623h16c5.523 0 10-4.477 10-10s-4.477-10-10-10h-16c-5.523 0-10 4.477-10 10s4.477 10 10 10z"/><path id="XMLID_120_" d="m235.569 213.359h16c5.523 0 10-4.477 10-10s-4.477-10-10-10h-16c-5.523 0-10 4.477-10 10s4.477 10 10 10z"/><path id="XMLID_121_" d="m265.001 316.451c-5.523 0-10 4.477-10 10v16c0 5.523 4.477 10 10 10s10-4.477 10-10v-16c0-5.523-4.477-10-10-10z"/><path id="XMLID_122_" d="m197.59 206.723c-3.417-4.337-9.705-5.083-14.043-1.666-5.157 4.063-9.5 8.963-12.909 14.563-2.871 4.718-1.375 10.87 3.343 13.742 1.624.988 3.418 1.459 5.19 1.459 3.375 0 6.668-1.708 8.552-4.802 2.165-3.557 4.924-6.669 8.202-9.252 4.337-3.418 5.083-9.706 1.665-14.044z"/><path id="XMLID_123_" d="m195.475 274.855c-3.234-2.636-5.941-5.793-8.046-9.384-2.793-4.765-8.919-6.364-13.684-3.57-4.764 2.792-6.363 8.919-3.57 13.684 3.315 5.655 7.577 10.626 12.667 14.773 1.855 1.512 4.09 2.249 6.311 2.249 2.902 0 5.781-1.258 7.758-3.684 3.488-4.28 2.846-10.579-1.436-14.068z"/><path id="XMLID_124_" d="m186.501 429.951h-16c-5.523 0-10 4.477-10 10s4.477 10 10 10h16c5.523 0 10-4.477 10-10s-4.477-10-10-10z"/><path id="XMLID_773_" d="m315.569 213.359c5.523 0 10-4.477 10-10s-4.477-10-10-10h-16c-5.523 0-10 4.477-10 10s4.477 10 10 10z"/><path id="XMLID_775_" d="m358.064 234.864c5.523 0 10-4.477 10-10v-16c0-5.523-4.477-10-10-10s-10 4.477-10 10v16c0 5.523 4.477 10 10 10z"/><path id="XMLID_1036_" d="m502.641 431.913-30.315-30.315v-181.34l24.642-36.916c3.066-4.593 1.828-10.803-2.766-13.869l-42.876-28.621v-79.151c0-5.523-4.477-10-10-10h-44.333c-5.523 0-10 4.477-10 10v36.206l-132.115-88.191c-3.361-2.243-7.742-2.243-11.104 0l-239.325 159.757c-4.594 3.066-5.832 9.276-2.766 13.869l24.642 36.916v43.298c-3.535 7.895-5.518 16.631-5.518 25.826 0 6.179.875 12.228 2.608 18.06-14.955 15.62-23.414 36.497-23.414 58.27 0 24.03 10.13 45.725 26.325 61.086v67.152c0 5.523 4.477 10 10 10h168c5.523 0 10-4.477 10-10s-4.477-10-10-10h-110.086v-34.614c41.75-4.964 74.239-40.561 74.239-83.625 0-21.774-8.458-42.651-23.415-58.271 1.733-5.832 2.608-11.881 2.608-18.06 0-34.976-28.455-63.432-63.432-63.432-14.203 0-27.33 4.693-37.914 12.608v-15.28l203-135.509 203 135.509v84.979c-15.443-21.464-40.617-35.48-69.018-35.48-5.205 0-10.294.496-15.244 1.396v-1.309c0-5.523-4.477-10-10-10s-10 4.477-10 10v7.595c-29.321 13.42-49.753 43.016-49.753 77.314 0 46.867 38.129 84.997 84.997 84.997 11.733 0 22.917-2.391 33.094-6.709l35.924 35.924v11.967h-158c-5.523 0-10 4.477-10 10s4.477 10 10 10h168c5.523 0 10-4.477 10-10v-8.42c2.495.616 5.082.935 7.719.935 8.536 0 16.561-3.324 22.597-9.36 12.459-12.458 12.459-32.732-.001-45.192zm-95.649-360.212h24.333v55.8l-24.333-16.243zm-360.666 412.25v-43.05c8.573 4.341 17.979 7.255 27.914 8.437v34.614h-27.914zm37.914-238.001c23.948 0 43.432 19.483 43.432 43.432 0 5.86-1.145 11.542-3.403 16.887-1.669 3.951-.633 8.526 2.576 11.373 13.749 12.196 21.634 29.717 21.634 48.072 0 32.02-23.55 58.638-54.239 63.456v-23.247l25.822-25.822c3.905-3.905 3.905-10.237 0-14.143-3.905-3.905-10.237-3.905-14.143 0l-11.68 11.68v-46.362c0-5.523-4.477-10-10-10s-10 4.477-10 10v22.949l-10.646-10.646c-3.905-3.905-10.237-3.905-14.143 0s-3.905 10.237 0 14.143l24.788 24.788v46.66c-30.688-4.818-54.239-31.436-54.239-63.456 0-18.354 7.885-35.876 21.634-48.072 3.209-2.846 4.245-7.421 2.576-11.373-2.258-5.345-3.403-11.026-3.403-16.887.002-23.949 19.486-43.432 43.434-43.432zm165.086-180.204c-1.936 0-3.871.561-5.552 1.683l-204.358 136.415-15.546-23.289 225.456-150.498 225.456 150.498-15.545 23.289-204.359-136.416c-1.681-1.121-3.617-1.682-5.552-1.682zm68.985 292.027c0-35.839 29.157-64.996 64.997-64.996 35.839 0 64.996 29.157 64.996 64.996s-29.157 64.997-64.996 64.997c-35.84-.001-64.997-29.158-64.997-64.997zm170.188 105.191c-2.258 2.258-5.26 3.502-8.454 3.502s-6.196-1.244-8.454-3.502l-37.26-37.26c6.396-4.816 12.093-10.513 16.909-16.909l4.008 4.008.016.016 33.236 33.236c4.661 4.662 4.661 12.247-.001 16.909z"/><path id="XMLID_1225_" d="m249.321 483.952c-2.63 0-5.2 1.07-7.07 2.93-1.86 1.86-2.92 4.44-2.92 7.07s1.06 5.21 2.92 7.07c1.87 1.86 4.44 2.93 7.07 2.93 2.64 0 5.21-1.07 7.08-2.93 1.86-1.86 2.92-4.44 2.92-7.07 0-2.64-1.06-5.21-2.92-7.07s-4.44-2.93-7.08-2.93z"/></g></g></svg>