<svg id="Capa_1" enable-background="new 0 0 512 512" height="512" viewBox="0 0 512 512" width="512" xmlns="http://www.w3.org/2000/svg"><g id="XMLID_1106_"><path id="XMLID_1844_" d="m60 188.862h392v313.138h-392z" fill="#f8f8f8"/><path id="XMLID_1840_" d="m448 156.833v-112.319h-54v68.354z" fill="#9da5be"/><path id="XMLID_1837_" d="m30 188.862 226-178.862 226 178.862z" fill="#ff7a7a"/><ellipse id="XMLID_1834_" cx="306.677" cy="303.564" fill="#d5ea7a" rx="67.905" ry="39.198" transform="matrix(.707 -.707 .707 .707 -124.829 305.765)"/><ellipse id="XMLID_1177_" cx="205.323" cy="303.564" fill="#d5ea7a" rx="39.198" ry="67.905" transform="matrix(.707 -.707 .707 .707 -154.515 234.097)"/><path id="XMLID_1176_" d="m427.612 502.087c-30.713 0-60.169-12.201-81.886-33.918l-35.54-35.54c-29.926-29.926-78.446-29.926-108.371 0l-35.54 35.54c-21.718 21.718-51.173 33.918-81.886 33.918z" fill="#c68966"/><g id="XMLID_150_"><path id="XMLID_28_" d="m482 492h-20v-293.138h20c4.257 0 8.047-2.694 9.445-6.715 1.398-4.02.099-8.485-3.239-11.126l-30.206-23.907v-112.6c0-5.523-4.478-10-10-10h-54c-5.522 0-10 4.477-10 10v54.035l-121.794-96.391c-3.637-2.878-8.775-2.878-12.412 0l-226 178.862c-3.338 2.642-4.638 7.106-3.239 11.126 1.398 4.021 5.188 6.715 9.445 6.715h20v101.569c0 5.523 4.478 10 10 10s10-4.477 10-10v-101.568h372v293.138h-18.53c-26.707-1.021-51.669-11.898-70.673-30.903l-35.54-35.539c-13.98-13.981-31.903-22.572-51.257-24.784v-37.499c4.265.626 8.547.946 12.814.946 23.188 0 45.894-9.112 62.65-25.869 22.243-22.243 31.014-54.96 22.89-85.384-.923-3.458-3.624-6.159-7.081-7.082-30.423-8.123-63.142.646-85.385 22.89-6.466 6.465-11.784 13.82-15.889 21.742-4.105-7.922-9.423-15.276-15.889-21.741-22.243-22.243-54.963-31.013-85.385-22.89-3.457.923-6.158 3.624-7.081 7.082-8.124 30.424.646 63.142 22.89 85.384 16.758 16.758 39.461 25.869 62.65 25.869 4.267 0 8.549-.32 12.814-.946v37.499c-19.354 2.212-37.276 10.803-51.257 24.783l-35.54 35.54c-19.002 19.003-43.964 29.88-70.671 30.902h-18.53v-101.569c0-5.523-4.478-10-10-10s-10 4.477-10 10v101.569h-20c-5.522 0-10 4.477-10 10s4.478 10 10 10h452c5.522 0 10-4.477 10-10s-4.478-10-10-10zm-195.969-209.082c15.805-15.805 38.449-22.82 60.281-18.989 3.83 21.832-3.184 44.476-18.99 60.282-15.805 15.805-38.446 22.819-60.281 18.989-3.83-21.832 3.183-44.476 18.99-60.282zm-41.072 60.282c-21.833 3.83-44.478-3.185-60.281-18.99-15.807-15.806-22.82-38.45-18.99-60.281 21.832-3.829 44.478 3.185 60.281 18.99 15.806 15.805 22.82 38.449 18.99 60.281zm-92.314 148.8c7.387-4.791 14.328-10.387 20.701-16.76l35.54-35.54c12.585-12.584 29.316-19.516 47.114-19.516s34.529 6.931 47.114 19.516l35.54 35.54c6.373 6.373 13.314 11.97 20.701 16.76zm251.355-437.486h34v86.772l-34-26.909zm-345.251 124.348 197.251-156.109 197.251 156.109z"/><path id="XMLID_183_" d="m60 355.433c2.63 0 5.21-1.07 7.069-2.93 1.86-1.86 2.931-4.44 2.931-7.07s-1.07-5.21-2.931-7.07c-1.859-1.87-4.439-2.93-7.069-2.93s-5.21 1.06-7.07 2.93c-1.86 1.86-2.93 4.43-2.93 7.07 0 2.63 1.069 5.21 2.93 7.07 1.86 1.86 4.44 2.93 7.07 2.93z"/></g></g></svg>