<svg id="Capa_1" enable-background="new 0 0 512.076 512.076" height="512" viewBox="0 0 512.076 512.076" width="512" xmlns="http://www.w3.org/2000/svg"><g id="XMLID_114_"><g id="XMLID_858_"><g id="XMLID_2706_"><path d="m342.376 448.067v-157.89l3.053 14.083c7.139 32.933 22.803 63.602 45.298 88.694 7.744 8.637 16.233 16.542 25.34 23.631 13.693 10.658 33.713 6.312 41.925-8.974 6.511-12.12 3.218-27.074-7.604-35.568-25.082-19.686-43.15-47.786-50.065-79.684l-3.053-14.082c-5.062-23.355-18.096-44.48-36.698-59.482-18.603-15.001-42.009-23.264-65.907-23.264h-77.252c-23.898 0-47.304 8.262-65.907 23.264-18.602 15.002-31.636 36.127-36.698 59.482l-3.053 14.082c-6.915 31.898-24.983 59.998-50.065 79.684-10.822 8.494-14.115 23.448-7.604 35.568 8.211 15.286 28.231 19.631 41.925 8.974 9.107-7.089 17.596-14.993 25.34-23.63 22.495-25.091 38.158-55.761 45.298-88.694l3.053-14.083v157.89h172.674z" fill="#bedaff"/></g><g id="XMLID_244_"><path id="XMLID_4_" d="m450.221 372.209c-5.235-4.109-10.16-8.589-14.746-13.389l-39.787 39.787c6.319 6.52 13.072 12.586 20.212 18.144 13.693 10.658 33.713 6.312 41.925-8.974 6.511-12.12 3.218-27.074-7.604-35.568z" fill="#ffd0c6"/></g><g id="XMLID_243_"><path d="m62.109 372.209c5.235-4.109 10.16-8.589 14.746-13.389l39.787 39.787c-6.319 6.52-13.072 12.586-20.212 18.144-13.693 10.658-33.713 6.312-41.925-8.974-6.51-12.12-3.218-27.074 7.604-35.568z" fill="#ffd0c6"/></g><g id="XMLID_866_"><path id="XMLID_245_" d="m153.102 144.739v-31.609c0-56.92 46.143-103.063 103.063-103.063 56.92 0 103.063 46.143 103.063 103.063v31.609c0 28.052-22.741 50.792-50.792 50.792h-104.542c-28.052 0-50.792-22.74-50.792-50.792z" fill="#ff7a7a"/></g><g id="XMLID_2791_"><path d="m283.449 180.031v29.899c0 15.069-12.215 27.284-27.284 27.284-15.069 0-27.284-12.215-27.284-27.284v-29.899z" fill="#ffd0c6"/></g><g id="XMLID_1054_"><path d="m312.353 103.863v31.517c0 31.032-25.156 56.188-56.188 56.188-31.032 0-56.188-25.156-56.188-56.188v-31.517h35.469l29.663-10.428 26.431 10.428z" fill="#ffd0c6"/></g><g id="XMLID_1137_"><path d="m68.632 449.469c-5.982 27.005 14.57 52.607 42.229 52.607h244.106c18.456 0 32.327-16.842 28.788-34.956-2.452-12.549-12.75-22.064-25.453-23.518l-242.523-27.752c-22.005-2.517-42.357 11.994-47.147 33.619z" fill="#ffd88e"/></g><g id="XMLID_1135_"><g id="XMLID_1136_"><path d="m443.444 449.469c5.982 27.005-14.57 52.607-42.229 52.607h-244.106c-18.456 0-32.327-16.842-28.788-34.956 2.452-12.549 12.75-22.064 25.453-23.518l242.523-27.752c22.005-2.517 42.357 11.994 47.147 33.619z" fill="#ffd88e"/></g></g><g id="XMLID_2915_"><path id="XMLID_5_" d="m247.738 432.85-93.964 10.752c-12.703 1.454-23.002 10.969-25.453 23.518-3.539 18.114 10.332 34.956 28.788 34.956h90.63v-69.226z" fill="#ffd0c6"/></g></g><g id="XMLID_266_"><path id="XMLID_282_" d="m456.562 364.177c-23.651-18.563-40.153-44.821-46.466-73.936l-3.053-14.082c-5.545-25.581-19.819-48.718-40.194-65.148-7.722-6.228-16.203-11.389-25.18-15.405 16.58-10.869 27.56-29.604 27.56-50.866v-31.61c0-43.587-25.491-83.757-64.941-102.337-5-2.355-10.954-.21-13.308 4.786s-.21 10.954 4.786 13.308c32.478 15.296 53.463 48.363 53.463 84.243v31.609c0 22.493-18.3 40.792-40.793 40.792h-9.151c14.109-12.148 23.068-30.118 23.068-50.152v-31.517c0-5.522-4.478-10-10-10h-18.669c-6.519 0-12.625-2.811-16.869-7.551 2.625-5.829 4.099-12.284 4.099-19.081 0-5.522-4.478-10-10-10s-10 4.478-10 10c0 14.685-11.947 26.632-26.632 26.632h-34.306c-5.522 0-10 4.478-10 10v31.517c0 20.034 8.96 38.005 23.069 50.152h-9.151c-22.493 0-40.793-18.299-40.793-40.792v-31.609c0-35.837 20.949-68.888 53.371-84.2 4.994-2.358 7.13-8.318 4.771-13.312-2.359-4.993-8.318-7.131-13.312-4.771-39.383 18.6-64.83 58.749-64.83 102.284v31.609c0 21.219 10.936 39.923 27.459 50.801-9.033 4.025-17.567 9.208-25.333 15.47-20.375 16.431-34.649 39.567-40.194 65.148l-3.052 14.081c-6.313 29.115-22.815 55.373-46.467 73.936-14.72 11.553-19.026 31.81-10.239 48.167 4.493 8.364 11.869 14.659 20.676 17.832-3.257 5.122-5.698 10.878-7.083 17.132-3.51 15.847.305 32.195 10.465 44.853 10.161 12.657 25.297 19.917 41.528 19.917h290.354c16.231 0 31.367-7.26 41.528-19.917 10.16-12.658 13.975-29.006 10.464-44.854-1.385-6.253-3.826-12.008-7.083-17.13 8.808-3.173 16.184-9.468 20.677-17.833 8.787-16.358 4.48-36.614-10.239-48.166zm-217.681-164.914c5.514 1.493 11.305 2.304 17.284 2.304s11.771-.811 17.284-2.304v10.667c0 9.53-7.754 17.284-17.284 17.284s-17.284-7.754-17.284-17.284zm-28.904-85.401h24.306c11.63 0 22.271-4.29 30.448-11.357 7.766 7.182 18.055 11.357 28.954 11.357h8.669v21.517c0 25.469-20.72 46.188-46.188 46.188-25.469 0-46.188-20.72-46.188-46.188v-21.517zm-88.45 180.616 3.053-14.082c4.58-21.131 16.371-40.243 33.202-53.816s38.008-21.048 59.63-21.048h1.469v4.398c0 20.559 16.726 37.284 37.284 37.284s37.284-16.726 37.284-37.284v-4.398h1.215c21.622 0 42.799 7.475 59.63 21.048s28.622 32.686 33.202 53.816l3.054 14.083c5.256 24.244 16.615 46.765 32.764 65.478l-25.689 25.689c-21.041-23.686-35.708-52.538-42.422-83.505l-3.054-14.083c-1.171-5.398-6.496-8.829-11.892-7.653-4.687 1.016-7.883 5.164-7.878 9.772l-.003 122.923-76.338 8.735-76.339-8.735-.002-122.923c.004-4.608-3.193-8.757-7.88-9.773-5.394-1.166-10.721 2.258-11.892 7.655l-3.053 14.083c-6.7 30.908-21.326 59.708-42.303 83.368l-25.689-25.689c16.087-18.686 27.403-41.157 32.647-65.343zm230.849 59.501c8.18 16.482 18.552 31.872 30.905 45.65 2.105 2.348 4.272 4.648 6.491 6.903l-37.397 4.279v-56.832zm-195.267 138.097c-5.798 0-11.237-2.566-14.924-7.043-3.686-4.475-5.161-10.306-4.05-15.996 1.623-8.309 8.364-14.537 16.775-15.499l82.827-9.478v48.016zm-28.313-92.448c12.352-13.778 22.723-29.166 30.903-45.647v56.83l-37.396-4.279c2.22-2.255 4.388-4.556 6.493-6.904zm-60.934-19.719c2.393-1.878 4.719-3.829 6.983-5.84l25.662 25.662c-3.437 3.117-6.984 6.115-10.641 8.961-4.16 3.238-9.521 4.467-14.709 3.37-5.254-1.109-9.724-4.457-12.263-9.185-4.175-7.772-2.085-17.432 4.968-22.968zm17.068 99.731c-6.345-7.904-8.726-18.112-6.533-28.008 3.693-16.676 19.264-27.782 36.246-25.846l53.433 6.114-15.438 1.767c-17.112 1.958-30.829 14.631-34.131 31.535-1.817 9.301-.229 18.783 4.35 26.874h-11.996c-10.135 0-19.587-4.533-25.931-12.436zm342.216 0c-6.345 7.903-15.797 12.437-25.932 12.437h-143.476v-50.305l139.695-15.985c1.29-.148 2.572-.22 3.842-.22 15.429 0 28.991 10.657 32.404 26.065 2.193 9.895-.189 20.103-6.533 28.008zm22.036-76.762c-2.539 4.728-7.009 8.075-12.263 9.185-5.184 1.097-10.548-.132-14.709-3.37-3.609-2.809-7.113-5.766-10.508-8.84l25.664-25.664c2.222 1.969 4.502 3.881 6.848 5.722 7.054 5.534 9.143 15.194 4.968 22.967z"/><path id="XMLID_323_" d="m256.098 20c2.63 0 5.21-1.061 7.07-2.93 1.86-1.851 2.93-4.431 2.93-7.07 0-2.63-1.069-5.21-2.93-7.07-1.86-1.859-4.44-2.93-7.07-2.93s-5.2 1.07-7.069 2.93c-1.86 1.87-2.931 4.44-2.931 7.07 0 2.64 1.07 5.21 2.931 7.07 1.868 1.869 4.439 2.93 7.069 2.93z"/></g></g></svg>