<svg id="Capa_1" enable-background="new 0 0 512 512" height="512" viewBox="0 0 512 512" width="512" xmlns="http://www.w3.org/2000/svg"><g id="XMLID_1585_"><path id="XMLID_1794_" d="m403.667 105.726v-52.06h44.333v84.499z" fill="#9da5be"/><g id="XMLID_1792_"><path id="XMLID_1793_" d="m468.675 209.679-212.675-141.967-212.675 141.967-26.65-39.923 239.325-159.756 239.325 159.756z" fill="#ff7a7a"/></g><g id="XMLID_1790_"><path id="XMLID_1791_" d="m468.675 209.679-212.675-141.967-212.675 141.967-26.65-39.923 239.325-159.756 239.325 159.756z" fill="#ff7a7a"/></g><g id="XMLID_2446_"><path id="XMLID_2321_" d="m293.315 345.598-68.67-68.67-136.143 136.144c-9.199 9.199-9.199 24.113 0 33.311l35.358 35.358c9.199 9.199 24.113 9.199 33.311 0z" fill="#9da5be"/><path id="XMLID_2320_" d="m75.705 494.538c-9.764-9.764-9.764-25.594 0-35.358l12.797-12.797 35.358 35.358-12.797 12.797c-9.763 9.764-25.594 9.764-35.358 0z" fill="#9da5be"/><path id="XMLID_1976_" d="m223.855 276.138 70.251 70.251c26.495 4.488 54.69-3.492 75.138-23.941 33.537-33.537 33.537-87.911 0-121.448s-87.911-33.537-121.448 0c-20.449 20.448-28.428 48.643-23.941 75.138z" fill="#f8f8f8"/><path id="XMLID_1338_" d="m240.041 209.901c-14.653 19.312-20.054 43.404-16.186 66.237l70.251 70.251c22.833 3.867 46.925-1.534 66.237-16.186z" fill="#e0e1e7"/></g><g id="XMLID_2734_" fill="#bedaff"><circle id="XMLID_1507_" cx="384.825" cy="480" r="22"/><circle id="XMLID_1335_" cx="473.325" cy="441.666" r="22"/></g><g id="XMLID_1333_"><circle id="XMLID_1334_" cx="97.168" cy="299.592" fill="#bedaff" r="22"/></g><g id="XMLID_356_"><path id="XMLID_372_" d="m463.123 217.996c1.656 1.105 3.59 1.683 5.552 1.683.652 0 1.307-.064 1.955-.193 2.601-.519 4.89-2.049 6.362-4.255l26.649-39.923c3.066-4.593 1.828-10.803-2.766-13.869l-42.875-28.622v-79.151c0-5.523-4.477-10-10-10h-44.333c-5.523 0-10 4.477-10 10v36.207l-132.115-88.191c-3.361-2.243-7.742-2.243-11.104 0l-239.325 159.757c-4.594 3.066-5.832 9.276-2.766 13.869l26.649 39.923c1.473 2.206 3.761 3.737 6.362 4.255 2.601.52 5.301-.017 7.507-1.49l207.125-138.261zm-49.457-154.33h24.334v55.801l-24.333-16.243v-39.558zm-367.576 132.144-15.545-23.289 225.455-150.498 225.456 150.498-15.546 23.289-204.358-136.416c-1.681-1.122-3.616-1.683-5.552-1.683s-3.871.561-5.552 1.683z"/><path id="XMLID_419_" d="m359.132 343.134 2.069 2.069c1.953 1.953 4.512 2.929 7.071 2.929s5.119-.976 7.071-2.929c3.905-3.905 3.905-10.237 0-14.143l-.3-.3c.426-.411.853-.821 1.272-1.241 23.943-23.943 33.519-59.196 24.99-92.001-1.39-5.345-6.849-8.552-12.194-7.162s-8.552 6.849-7.162 12.194c6.752 25.971-.826 53.876-19.776 72.826-.42.42-.847.83-1.275 1.238l-107.269-107.268c.409-.428.819-.855 1.238-1.275 18.949-18.95 46.855-26.526 72.826-19.776 5.346 1.388 10.804-1.817 12.194-7.162s-1.817-10.805-7.162-12.194c-32.804-8.529-68.057 1.047-92.001 24.99-.42.42-.827.849-1.238 1.276l-.303-.304c-3.905-3.905-10.237-3.905-14.143 0-3.905 3.905-3.905 10.237 0 14.143l2.072 2.072c-11.541 18.601-16.502 40.823-13.675 62.878l-132.006 132.006c-10.621 10.621-12.619 26.65-5.995 39.306l-6.802 6.802c-6.611 6.611-10.252 15.401-10.252 24.75s3.641 18.139 10.252 24.75 15.401 10.252 24.75 10.252c9.35 0 18.14-3.641 24.75-10.252l6.802-6.802c4.861 2.544 10.22 3.817 15.579 3.817 8.593 0 17.186-3.271 23.727-9.812l132.001-132.002c4.063.521 8.131.782 12.181.782 17.944.002 35.532-5.04 50.708-14.457zm-265.747 148.728c-4.007 0-7.774-1.561-10.608-4.395-5.85-5.849-5.85-15.367 0-21.216l5.725-5.726 21.216 21.216-5.726 5.726c-2.833 2.834-6.6 4.395-10.607 4.395zm56.716-17.192c-5.285 5.285-13.885 5.285-19.169 0l-35.358-35.358c-5.285-5.285-5.285-13.884 0-19.169l129.072-129.072 54.528 54.528zm148.743-137.685-65.585-65.585c-2.023-15.863 1.045-31.833 8.479-45.659l102.765 102.765c-13.825 7.433-29.794 10.501-45.659 8.479z"/><path id="XMLID_422_" d="m222.599 347.65c-1.87-1.86-4.44-2.93-7.07-2.93-2.64 0-5.21 1.07-7.08 2.93-1.86 1.86-2.93 4.44-2.93 7.07s1.07 5.21 2.93 7.07c1.87 1.86 4.44 2.93 7.08 2.93 2.63 0 5.2-1.07 7.07-2.93 1.86-1.86 2.93-4.44 2.93-7.07s-1.069-5.21-2.93-7.07z"/><path id="XMLID_423_" d="m184.874 371.227-26.377 26.377c-3.905 3.905-3.905 10.237 0 14.143 1.953 1.953 4.512 2.929 7.071 2.929s5.119-.976 7.071-2.929l26.377-26.377c3.905-3.905 3.905-10.237 0-14.143-3.904-3.905-10.236-3.905-14.142 0z"/><path id="XMLID_426_" d="m494.598 340.144c-6.717-4.411-15.128-5.136-22.502-1.943l-60.944 26.398c-8.704 3.769-14.328 12.333-14.328 21.819v63.926c-3.708-1.506-7.757-2.343-12-2.343-17.645 0-32 14.355-32 32s14.355 32 32 32 32-14.355 32-32v-93.583c0-1.507.893-2.867 2.276-3.466l60.944-26.398c1.628-.704 2.939-.108 3.575.309.636.418 1.704 1.384 1.704 3.158v51.99c-3.708-1.506-7.757-2.343-12-2.343-17.645 0-32 14.355-32 32s14.355 32 32 32 32-14.355 32-32v-81.647c.002-8.037-4.008-15.467-10.725-19.877zm-109.773 151.856c-6.617 0-12-5.383-12-12s5.383-12 12-12 12 5.383 12 12-5.384 12-12 12zm88.5-38.334c-6.617 0-12-5.383-12-12s5.383-12 12-12 12 5.383 12 12-5.384 12-12 12z"/><path id="XMLID_843_" d="m156.887 181.747-42.25 21.477c-3.355 1.706-5.469 5.151-5.469 8.915v57.796c-3.708-1.506-7.757-2.343-12-2.343-17.645 0-32 14.355-32 32s14.355 32 32 32 32-14.355 32-32v-81.318l36.781-18.697c4.923-2.503 6.886-8.523 4.383-13.446-2.503-4.924-8.523-6.885-13.445-4.384zm-59.719 129.845c-6.617 0-12-5.383-12-12s5.383-12 12-12 12 5.383 12 12-5.383 12-12 12z"/><path id="XMLID_844_" d="m362.17 193.929c-1.86 1.86-2.93 4.44-2.93 7.07s1.07 5.21 2.93 7.07 4.44 2.93 7.07 2.93c2.64 0 5.22-1.07 7.08-2.93s2.92-4.44 2.92-7.07-1.06-5.21-2.92-7.07-4.44-2.93-7.08-2.93c-2.63.001-5.21 1.071-7.07 2.93z"/></g></g></svg>