<svg id="Capa_1" enable-background="new 0 0 512 512" height="512" viewBox="0 0 512 512" width="512" xmlns="http://www.w3.org/2000/svg"><g id="XMLID_822_"><g id="XMLID_2183_"><path id="XMLID_619_" d="m416.082 10h-176.887c-13.464 0-24.378 10.915-24.378 24.378v104.566c0 13.464 10.915 24.378 24.378 24.378h94.25v40.035l41.874-40.035h27.555c20.758 0 37.587-16.828 37.587-37.587v-91.357c-.001-13.463-10.915-24.378-24.379-24.378z" fill="#a0c8ff"/></g><g id="XMLID_1684_"><path d="m109.739 49.461h125.971c16.06 0 29.078 13.019 29.078 29.078v55.7c0 16.06-13.019 29.078-29.078 29.078h-67.724v40.154l-34.17-40.154h-24.078c-16.059 0-29.078-13.019-29.078-29.078v-55.7c.001-16.059 13.02-29.078 29.079-29.078z" fill="#ffd88e"/></g><g id="XMLID_2941_"><path id="XMLID_618_" d="m267.398 418.097v-108.998c0-53.571 43.428-96.999 96.999-96.999 53.571 0 96.999 43.428 96.999 96.999v108.997c0 26.401-21.402 47.804-47.804 47.804h-98.391c-26.401.001-47.803-21.402-47.803-47.803z" fill="#ff7a7a"/></g><g id="XMLID_1665_"><path id="XMLID_431_" d="m105.138 502h180.293v-43.338c0-35.762-28.991-64.753-64.753-64.753h-34.271-77.383-34.271c-35.762 0-64.753 28.991-64.753 64.753v43.338h180.293z" fill="#a0c8ff"/></g><g id="XMLID_1664_"><path d="m204.951 264.364v43.476c0 37.078-25.625 62.703-57.236 62.703-31.61 0-57.236-25.625-57.236-57.236v-48.943z" fill="#f4c6af"/></g><g id="XMLID_1663_"><path d="m176.333 364.338v31.36c0 15.805-12.813 28.618-28.618 28.618-15.805 0-28.618-12.813-28.618-28.618v-31.36z" fill="#f4c6af"/></g><g id="XMLID_1661_"><path id="XMLID_397_" d="m226.569 502v-18.238c0-40.698 32.992-73.69 73.69-73.69h32.37 63.31 32.37c40.698 0 73.69 32.992 73.69 73.69v18.238h-193.996z" fill="#d5ea7a"/></g><g id="XMLID_1660_"><path d="m391.569 381.879v29.899c0 15.069-12.215 27.284-27.284 27.284-15.069 0-27.284-12.215-27.284-27.284v-29.899z" fill="#f4c6af"/></g><g id="XMLID_2184_"><path id="XMLID_229_" d="m145.407 204.448h83.093v25.733c0 30.335-24.592 54.927-54.927 54.927h-83.093v-25.733c0-30.335 24.591-54.927 54.927-54.927z" fill="#c68966"/></g><g id="XMLID_1703_"><path d="m418.965 301.476v30.608c0 30.137-24.431 54.568-54.568 54.568-30.137 0-54.568-24.431-54.568-54.568v-30.608h34.446l28.808-10.128 25.669 10.128z" fill="#f4c6af"/></g><g id="XMLID_1030_"><path id="XMLID_240_" d="m471.396 412.045v-102.945c0-58.999-48-106.999-106.999-106.999-5.609 0-11.118.436-16.497 1.272l31.43-30.05h23.544c26.239 0 47.586-21.348 47.586-47.587v-91.358c0-18.956-15.422-34.378-34.378-34.378h-176.888c-18.956 0-34.378 15.422-34.378 34.378v5.083h-95.077c-21.548 0-39.078 17.53-39.078 39.078v55.7c0 21.548 17.53 39.078 39.078 39.078h19.457l17.981 21.131h-1.771c-35.801 0-64.927 29.126-64.927 64.927v53.933c0 22.709 11.328 42.81 28.618 54.989v15.612h-34.344c-41.219 0-74.753 33.534-74.753 74.753v43.338c0 5.522 4.478 10 10 10h309.284c5.522 0 10-4.478 10-10s-4.478-10-10-10h-82.715v-8.237c0-35.119 28.571-63.69 63.689-63.69h27.684c3.782 16.578 18.635 28.989 36.341 28.989 17.707 0 32.56-12.412 36.342-28.989h27.683c35.119 0 63.69 28.571 63.69 63.69v8.237h-82.716c-5.522 0-10 4.478-10 10s4.478 10 10 10h92.718c5.522 0 10-4.478 10-10v-18.237c0-30.399-16.295-57.058-40.604-71.718zm-246.58-377.667c0-7.928 6.45-14.378 14.378-14.378h176.888c7.928 0 14.378 6.45 14.378 14.378v91.358c0 15.212-12.375 27.587-27.586 27.587h-27.555c-2.574 0-5.05.993-6.91 2.771l-24.964 23.867v-16.639c0-5.522-4.478-10-10-10h-63.652c3.175-5.648 4.996-12.156 4.996-19.084v-55.7c0-21.548-17.531-39.078-39.079-39.078h-10.894zm-83.382 122.459c-1.9-2.233-4.685-3.52-7.616-3.52h-24.078c-10.52 0-19.078-8.559-19.078-19.078v-55.7c0-10.52 8.559-19.078 19.078-19.078h125.97c10.521 0 19.079 8.559 19.079 19.078v55.7c0 10.52-8.559 19.078-19.079 19.078h-67.724c-5.522 0-10 4.478-10 10v12.972zm-40.955 102.538c0-24.772 20.154-44.927 44.927-44.927h73.094v15.733c0 24.772-20.154 44.927-44.927 44.927h-73.094zm0 53.933v-18.199h73.094c7.489 0 14.679-1.29 21.378-3.633v16.366c0 30.538-19.865 52.703-47.235 52.703-26.046-.001-47.237-21.191-47.237-47.237zm65.854 64.612v17.778c0 10.266-8.352 18.617-18.617 18.617s-18.618-8.352-18.618-18.617v-17.797c5.917 1.708 12.159 2.643 18.618 2.643 6.513 0 12.744-.922 18.617-2.624zm50.236 105.843v8.237h-196.569v-33.338c0-30.19 24.562-54.753 54.753-54.753h35.232c3.775 17.361 19.255 30.406 37.731 30.406s33.955-13.045 37.73-30.406h35.232c11.818 0 23.17 3.814 32.502 10.703-22.083 15.083-36.611 40.449-36.611 69.151zm40.828-90.189c-11.083-6.255-23.69-9.665-36.72-9.665h-34.345v-15.819c17.533-12.85 28.618-34.592 28.618-60.25v-27.666c14.375-11.919 23.549-29.904 23.549-49.994v-25.733c0-5.522-4.478-10-10-10h-50.514v-21.131l145.459.006v30.034c0 2.242.769 4.347 2.074 6.056-39.834 15.589-68.122 54.395-68.122 99.686v84.476zm124.171 18.203c0 9.53-7.754 17.284-17.284 17.284s-17.283-7.754-17.283-17.284v-17.525c5.539 1.552 11.368 2.4 17.396 2.4 5.946 0 11.7-.824 17.172-2.336v17.461zm-17.172-35.125c-24.574 0-44.567-19.993-44.567-44.568v-20.607h23.316c11.273 0 21.595-4.123 29.56-10.929 7.573 6.917 17.559 10.929 28.128 10.929h8.131v20.607c.001 24.575-19.992 44.568-44.568 44.568zm87 26.684c-7.339-2.11-15.078-3.264-23.086-3.264h-26.741v-15.242c16.556-11.702 27.396-30.976 27.396-52.746v-30.607c0-5.522-4.478-10-10-10h-18.131c-6.183 0-11.979-2.64-16.042-7.1 2.517-5.652 3.928-11.901 3.928-18.476 0-5.522-4.478-10-10-10s-10 4.478-10 10c0 14.103-11.473 25.576-25.575 25.576h-33.316c-5.522 0-10 4.478-10 10v30.607c0 21.672 10.743 40.869 27.172 52.586v15.402h-26.742c-7.926 0-15.589 1.132-22.861 3.2v-94.172c0-47.972 39.027-86.999 86.999-86.999s86.999 39.027 86.999 86.999z"/><path id="XMLID_1284_" d="m364.29 492c-2.641 0-5.221 1.069-7.08 2.93-1.86 1.86-2.931 4.43-2.931 7.07 0 2.63 1.07 5.21 2.931 7.069 1.859 1.86 4.439 2.931 7.08 2.931 2.63 0 5.2-1.07 7.06-2.931 1.87-1.859 2.94-4.439 2.94-7.069s-1.07-5.21-2.94-7.07c-1.86-1.861-4.43-2.93-7.06-2.93z"/></g></g></svg>