<svg id="Capa_1" enable-background="new 0 0 512 512" height="512" viewBox="0 0 512 512" width="512" xmlns="http://www.w3.org/2000/svg"><g id="XMLID_1274_"><path id="XMLID_2492_" d="m32.031 190v-158c0-12.15 9.85-22 22-22 12.15 0 22 9.85 22 22v158z" fill="#ffd88e"/><path id="XMLID_2488_" d="m32.031 128h44v62h-44z" fill="#e0e1e7"/><path id="XMLID_2487_" d="m54.031 291.635-31.113-31.113c-17.183-17.183-17.183-45.042 0-62.225 17.183-17.183 45.042-17.183 62.225 0 17.183 17.183 17.183 45.042 0 62.225z" fill="#ff7a7a"/><path id="XMLID_2486_" d="m240.719 412h162.5l20.75 44h-204z" fill="#ffe4b4"/><path id="XMLID_2485_" d="m374.969 352 66.899 141.335c2.504 5.291 7.834 8.665 13.688 8.665h22.491c11.115 0 18.443-11.576 13.688-21.623l-60.766-128.377z" fill="#ffd88e"/><path id="XMLID_2484_" d="m268.969 352-66.899 141.335c-2.504 5.291-7.834 8.665-13.688 8.665h-22.491c-11.115 0-18.443-11.576-13.688-21.623l60.766-128.377z" fill="#ffd88e"/><path id="XMLID_2483_" d="m181.969 352h280c22.091 0 40-17.909 40-40v-208c0-22.091-17.909-40-40-40h-280c-22.091 0-40 17.909-40 40v208c0 22.091 17.909 40 40 40z" fill="#ffe4b4"/><path id="XMLID_2482_" d="m185.969 108h272v200h-272z" fill="#bedaff"/><g id="XMLID_1967_"><path id="XMLID_2010_" d="m306.302 248 94.545-81.878v81.878z" fill="#ff7a7a"/><circle id="XMLID_2008_" cx="262.721" cy="184.106" fill="#a0c8ff" r="32.106"/></g><g id="XMLID_75_"><path id="XMLID_739_" d="m511.969 312v-208c0-27.57-22.43-50-50-50h-95c-5.523 0-10 4.478-10 10s4.477 10 10 10h95c16.542 0 30 13.458 30 30v208c0 16.542-13.458 30-30 30h-280c-16.542 0-30-13.458-30-30v-208c0-16.542 13.458-30 30-30h95c5.523 0 10-4.478 10-10s-4.477-10-10-10h-95c-27.57 0-50 22.43-50 50v208c0 27.57 22.43 50 50 50h15.203l-54.007 114.099c-3.708 7.834-3.154 16.883 1.481 24.206s12.579 11.695 21.246 11.695h22.491c9.669 0 18.589-5.647 22.726-14.387l14.964-31.613h191.793l14.964 31.613c4.137 8.739 13.058 14.387 22.727 14.387h22.491c8.667 0 16.609-4.372 21.245-11.695s5.19-16.372 1.482-24.206l-54.009-114.099h15.203c27.571 0 50-22.43 50-50zm-143.33 50 18.933 40h-131.206l18.933-40zm-175.607 127.057c-.846 1.788-2.671 2.943-4.649 2.943h-22.491c-2.556 0-3.891-1.673-4.347-2.393-.455-.72-1.396-2.642-.303-4.952l58.058-122.655h33.873zm42.507-43.057 11.36-24h150.14l11.36 24zm247.157 38.655c1.093 2.31.152 4.232-.303 4.952s-1.791 2.393-4.347 2.393h-22.491c-1.978 0-3.803-1.155-4.649-2.943l-60.14-127.057h33.873z"/><path id="XMLID_745_" d="m262.721 142c-23.217 0-42.106 18.889-42.106 42.105 0 23.218 18.889 42.106 42.106 42.106s42.106-18.889 42.106-42.106c0-23.216-18.889-42.105-42.106-42.105zm0 64.212c-12.189 0-22.106-9.917-22.106-22.106s9.916-22.106 22.106-22.106 22.106 9.916 22.106 22.105-9.917 22.107-22.106 22.107z"/><path id="XMLID_748_" d="m405.002 157.026c-3.561-1.626-7.743-1.026-10.702 1.536l-94.544 81.878c-3.156 2.733-4.282 7.141-2.824 11.053 1.459 3.912 5.195 6.507 9.37 6.507h94.544c5.523 0 10-4.478 10-10v-81.878c.001-3.914-2.284-7.469-5.844-9.096zm-14.155 80.974h-57.722l57.722-49.989z"/><path id="XMLID_755_" d="m175.969 108v200c0 5.522 4.477 10 10 10h272c5.523 0 10-4.478 10-10v-200c0-5.522-4.477-10-10-10h-272c-5.523 0-10 4.478-10 10zm20 10h252v180h-252z"/><path id="XMLID_765_" d="m86.031 185.902v-153.902c0-17.645-14.355-32-32-32s-32 14.355-32 32v153.902c-2.171 1.604-4.239 3.379-6.184 5.323-10.2 10.199-15.816 23.76-15.816 38.184s5.617 27.984 15.816 38.185l31.113 31.112c1.953 1.952 4.512 2.929 7.071 2.929s5.118-.977 7.071-2.929l31.113-31.112c10.199-10.2 15.816-23.761 15.816-38.185s-5.617-27.984-15.816-38.184c-1.945-1.944-4.013-3.719-6.184-5.323zm-32-165.902c6.617 0 12 5.383 12 12v86h-24v-86c0-6.617 5.383-12 12-12zm-12 118h24v38.756c-3.894-.879-7.91-1.347-12-1.347s-8.106.467-12 1.347zm36.042 115.451-24.042 24.042-24.042-24.042c-6.422-6.422-9.958-14.96-9.958-24.042s3.537-17.619 9.958-24.041 14.96-9.959 24.042-9.959 17.62 3.537 24.042 9.959c6.421 6.422 9.958 14.959 9.958 24.041s-3.537 17.62-9.958 24.042z"/><path id="XMLID_771_" d="m321.97 74c2.63 0 5.21-1.07 7.07-2.931 1.86-1.859 2.93-4.439 2.93-7.069s-1.07-5.21-2.93-7.07-4.44-2.93-7.07-2.93-5.21 1.069-7.07 2.93-2.93 4.44-2.93 7.07 1.07 5.21 2.93 7.069c1.86 1.861 4.44 2.931 7.07 2.931z"/></g></g></svg>