<svg id="Capa_1" enable-background="new 0 0 511.983 511.983" height="512" viewBox="0 0 511.983 511.983" width="512" xmlns="http://www.w3.org/2000/svg"><g id="XMLID_1340_"><g fill="#fff"><path id="XMLID_2615_" d="m405.983 281.221 48-48.333 48 48.333v220.75h-96z"/><path id="XMLID_2609_" d="m253.983 281.221 48-48.333 48 48.333v220.75h-96z"/><path id="XMLID_2605_" d="m101.983 281.221 48-48.333 48 48.333v220.75h-96z"/></g><g id="XMLID_2561_"><path id="XMLID_2566_" d="m17.381 241.751c-9.864-9.864-9.864-25.857 0-35.722l107.428-107.428 35.722 35.722-107.428 107.428c-9.864 9.864-25.857 9.864-35.722 0z" fill="#ffd88e"/><path id="XMLID_2565_" d="m124.809 98.601 1.58-3.032c9.441-18.116 6.037-40.262-8.408-54.707-8.941-8.941-22.051-12.289-34.184-8.729 29.55-29.55 77.459-29.55 107.009 0l68.236 68.236c3.97 3.97 3.97 10.408 0 14.378l-26.399 26.399c-3.97 3.97-10.408 3.97-14.378 0l-16.101-16.101c-4.932-4.932-12.501-6.077-18.671-2.825l-22.963 12.103z" fill="#bedaff"/></g><g id="XMLID_1214_"><path id="XMLID_1215_" d="m446.913 308.481c-1.86 1.86-2.93 4.44-2.93 7.07 0 2.64 1.069 5.21 2.93 7.069 1.86 1.86 4.44 2.931 7.07 2.931s5.21-1.061 7.069-2.931c1.86-1.859 2.931-4.439 2.931-7.069s-1.07-5.2-2.931-7.07c-1.859-1.86-4.439-2.93-7.069-2.93s-5.21 1.07-7.07 2.93z"/><path id="XMLID_1275_" d="m453.983 437.641c-2.63 0-5.21 1.06-7.07 2.93-1.86 1.86-2.93 4.431-2.93 7.07 0 2.63 1.069 5.21 2.93 7.07 1.86 1.859 4.44 2.93 7.07 2.93s5.21-1.07 7.069-2.93c1.86-1.87 2.931-4.44 2.931-7.07s-1.07-5.21-2.931-7.07c-1.859-1.87-4.439-2.93-7.069-2.93z"/><path id="XMLID_1278_" d="m509.079 274.174-48-48.333c-1.878-1.89-4.432-2.953-7.096-2.953s-5.218 1.063-7.096 2.953l-48 48.333c-1.86 1.874-2.904 4.406-2.904 7.047v46.333h-36v-46.333c0-2.641-1.044-5.173-2.904-7.047l-48-48.333c-1.878-1.89-4.432-2.953-7.096-2.953s-5.218 1.063-7.096 2.953l-48 48.333c-1.86 1.874-2.904 4.406-2.904 7.047v46.333h-36v-46.333c0-2.641-1.044-5.173-2.904-7.047l-48-48.333c-1.878-1.89-4.432-2.953-7.096-2.953s-5.218 1.063-7.096 2.953l-48 48.333c-1.86 1.874-2.904 4.406-2.904 7.047v67.536c0 5.522 4.478 10 10 10s10-4.478 10-10v-63.414l38-38.264 38 38.264v206.628h-76v-53.214c0-5.522-4.478-10-10-10s-10 4.478-10 10v63.214c0 5.522 4.478 10 10 10h96c5.522 0 10-4.478 10-10v-58.333h36v58.333c0 5.522 4.478 10 10 10h96c5.522 0 10-4.478 10-10v-58.333h36v58.333c0 5.522 4.478 10 10 10h96c5.522 0 10-4.478 10-10v-220.75c0-2.64-1.044-5.173-2.904-7.047zm-301.096 149.464v-76.084h36v76.084zm132 68.333h-76v-206.628l38-38.264 38 38.264zm20-68.333v-76.084h36v76.084zm132 68.333h-76v-206.628l38-38.264 38 38.264z"/><path id="XMLID_1283_" d="m301.983 305.551c-2.63 0-5.21 1.069-7.07 2.93s-2.93 4.44-2.93 7.07c0 2.64 1.069 5.21 2.93 7.069 1.86 1.87 4.44 2.931 7.07 2.931s5.21-1.061 7.069-2.931c1.86-1.859 2.931-4.439 2.931-7.069s-1.07-5.2-2.931-7.07c-1.859-1.86-4.439-2.93-7.069-2.93z"/><path id="XMLID_1285_" d="m301.983 437.641c-2.63 0-5.21 1.06-7.07 2.93-1.86 1.86-2.93 4.431-2.93 7.07 0 2.63 1.069 5.21 2.93 7.07 1.86 1.859 4.44 2.93 7.07 2.93s5.21-1.07 7.069-2.93c1.86-1.87 2.931-4.44 2.931-7.07s-1.07-5.21-2.931-7.07c-1.859-1.87-4.439-2.93-7.069-2.93z"/><path id="XMLID_1292_" d="m149.983 325.551c2.63 0 5.21-1.061 7.069-2.931 1.86-1.859 2.931-4.439 2.931-7.069s-1.07-5.21-2.931-7.07c-1.859-1.86-4.439-2.93-7.069-2.93s-5.21 1.069-7.07 2.93-2.93 4.44-2.93 7.07 1.069 5.21 2.93 7.069c1.86 1.871 4.44 2.931 7.07 2.931z"/><path id="XMLID_1293_" d="m142.913 454.711c1.86 1.859 4.44 2.93 7.07 2.93s5.21-1.07 7.069-2.93c1.86-1.86 2.931-4.44 2.931-7.07 0-2.64-1.07-5.21-2.931-7.07-1.859-1.87-4.439-2.93-7.069-2.93s-5.21 1.06-7.07 2.93c-1.86 1.86-2.93 4.431-2.93 7.07 0 2.63 1.069 5.21 2.93 7.07z"/><path id="XMLID_1304_" d="m188.157 131.066c2.307-1.217 5.094-.794 6.936 1.05l16.102 16.102c3.932 3.932 9.095 5.896 14.26 5.896 5.163 0 10.329-1.966 14.261-5.896l26.399-26.399c7.861-7.863 7.86-20.657-.001-28.52l-68.236-68.236c-33.402-33.4-87.749-33.399-121.151 0-3.231 3.231-3.861 8.242-1.529 12.173 2.33 3.931 7.03 5.778 11.416 4.494 8.629-2.531 17.94-.154 24.298 6.204 11.414 11.414 14.071 28.7 6.611 43.015l-.869 1.668-106.344 106.34c-13.747 13.748-13.747 36.116 0 49.864 6.874 6.873 15.903 10.311 24.933 10.311 9.028 0 18.058-3.438 24.932-10.311l106.358-106.358zm-75.81-106.169c23.765-9.729 52.121-4.959 71.387 14.308l37.32 37.32c-2.942 3.917-2.641 9.497.923 13.062 1.953 1.952 4.512 2.929 7.071 2.929 2.113 0 4.219-.676 5.99-2.006l16.932 16.932c.065.064.064.171 0 .235l-26.397 26.397c-.066.066-.172.065-.236.001l-16.102-16.102c-8.081-8.079-20.298-9.927-30.405-4.6l-16.44 8.665-25.43-25.429c9.326-21.343 4.77-46.141-11.908-62.819-3.746-3.745-8.055-6.729-12.705-8.893zm-66.315 209.782c-5.949 5.951-15.63 5.949-21.579 0-5.95-5.949-5.95-15.63 0-21.579l100.356-100.356 21.579 21.579z"/><path id="XMLID_1308_" d="m101.983 403.761c2.63 0 5.21-1.07 7.069-2.931 1.86-1.869 2.931-4.439 2.931-7.069s-1.07-5.21-2.931-7.07c-1.859-1.86-4.439-2.93-7.069-2.93s-5.21 1.069-7.07 2.93-2.93 4.43-2.93 7.07c0 2.63 1.069 5.21 2.93 7.069 1.86 1.861 4.44 2.931 7.07 2.931z"/></g></g></svg>