<svg id="Capa_1" enable-background="new 0 0 512 512" height="512" viewBox="0 0 512 512" width="512" xmlns="http://www.w3.org/2000/svg"><g id="XMLID_757_"><path id="XMLID_865_" d="m357 64h-202c-22.091 0-40 17.909-40 40v112c0 22.091 17.909 40 40 40h202c22.091 0 40-17.909 40-40v-112c0-22.091-17.908-40-40-40z" fill="#ff7a7a"/><g id="XMLID_3451_"><path id="XMLID_3455_" d="m192 314.594c-18.79 0-34.023-15.232-34.023-34.023v-15.121c0-18.79 15.232-34.023 34.023-34.023 18.79 0 34.023 15.232 34.023 34.023v15.121c0 18.79-15.233 34.023-34.023 34.023z" fill="#9da5be"/><path id="XMLID_3454_" d="m223.334 314.594h-62.667c-18.041 0-32.667 14.625-32.667 32.667v22.739h128v-22.74c0-18.041-14.625-32.666-32.666-32.666z" fill="#d5ea7a"/></g><path id="XMLID_3449_" d="m351.333 314.594h-62.667c-18.041 0-32.667 14.625-32.667 32.667v22.739h128v-22.74c.001-18.041-14.624-32.666-32.666-32.666z" fill="#bedaff"/><path id="XMLID_3450_" d="m320 329.75c-18.79 0-34.023-15.232-34.023-34.023v-30.277c0-18.79 15.232-34.023 34.023-34.023 18.79 0 34.023 15.232 34.023 34.023v30.278c0 18.79-15.233 34.022-34.023 34.022z" fill="#ffd88e"/><path id="XMLID_3439_" d="m452 502h-392v-96.399c0-19.662 15.939-35.601 35.601-35.601h320.798c19.662 0 35.601 15.939 35.601 35.601z" fill="#ffd88e"/><g id="XMLID_864_"><path id="XMLID_1128_" d="m416.4 360h-22.4v-12.74c0-19.567-13.245-36.089-31.237-41.1.817-3.347 1.26-6.838 1.26-10.433v-30.23c24.256-3.425 42.977-24.311 42.977-49.497v-112c0-27.57-22.43-50-50-50h-79.46l31.461-37.581c3.545-4.234 2.986-10.542-1.249-14.087s-10.543-2.986-14.087 1.249l-38.192 45.622-17.16-17.16c-3.906-3.904-10.236-3.904-14.143 0-3.905 3.905-3.905 10.237 0 14.143l7.815 7.814h-76.985c-27.57 0-50 22.43-50 50v112c0 25.186 18.722 46.071 42.978 49.497v15.073c0 9.004 2.722 17.383 7.38 24.365-21.029 2.624-37.358 20.598-37.358 42.325v12.74h-22.399c-25.145 0-45.601 20.456-45.601 45.601v96.399c0 5.522 4.478 10 10 10h151.062c5.522 0 10-4.478 10-10s-4.478-10-10-10h-141.062v-86.399c0-14.116 11.485-25.601 25.601-25.601h320.799c14.116 0 25.6 11.485 25.6 25.601v86.399h-140.937c-5.522 0-10 4.478-10 10s4.478 10 10 10h150.937c5.522 0 10-4.478 10-10v-96.399c0-25.145-20.456-45.601-45.6-45.601zm-160.4-40.147c-6.757-8.041-16.42-13.553-27.357-14.918 4.658-6.982 7.38-15.36 7.38-24.365v-14.57h39.955v29.728c0 3.594.443 7.086 1.26 10.433-8.405 2.34-15.772 7.188-21.238 13.692zm-88.022-39.282v-15.121c0-13.246 10.776-24.022 24.022-24.022s24.022 10.776 24.022 24.022v15.121c0 13.246-10.776 24.022-24.022 24.022s-24.022-10.776-24.022-24.022zm128 15.157v-30.278c0-13.246 10.776-24.022 24.022-24.022s24.022 10.776 24.022 24.022v30.278c0 13.246-10.776 24.022-24.022 24.022s-24.022-10.776-24.022-24.022zm-170.978-79.728v-112c0-16.542 13.458-30 30-30h202c16.542 0 30 13.458 30 30v112c0 15.725-12.164 28.654-27.575 29.894-7.215-14.486-22.172-24.467-39.425-24.467-17.295 0-32.285 10.029-39.48 24.573h-49.04c-7.194-14.544-22.185-24.573-39.48-24.573-17.253 0-32.21 9.98-39.425 24.467-15.411-1.24-27.575-14.169-27.575-29.894zm13 131.26c0-12.499 10.168-22.667 22.667-22.667h62.666c12.499 0 22.667 10.168 22.667 22.667v12.74h-108zm128 12.74v-12.74c0-11.894 9.209-21.67 20.871-22.589 8.075 9.232 19.928 15.08 33.129 15.08s25.053-5.848 33.129-15.08c11.662.919 20.871 10.695 20.871 22.589v12.74z"/><path id="XMLID_1246_" d="m293.215 193.7c1.648 4.631 6.043 7.728 10.952 7.728.027 0 .056-.001.083-.001 4.942-.035 9.333-3.203 10.946-7.949l23.509-70.766c1.741-5.241-1.097-10.901-6.338-12.643-5.234-1.739-10.901 1.095-12.643 6.338l-15.731 47.354-16.526-47.613c-1.811-5.216-7.502-7.979-12.727-6.168-5.218 1.812-7.979 7.509-6.168 12.727z"/><path id="XMLID_1247_" d="m195.057 129.427h9.801v62c0 5.522 4.478 10 10 10s10-4.478 10-10v-62h9.962c5.522 0 10-4.478 10-10s-4.478-10-10-10h-39.763c-5.522 0-10 4.478-10 10s4.477 10 10 10z"/><path id="XMLID_1249_" d="m256.06 492c-2.63 0-5.2 1.069-7.069 2.93-1.86 1.86-2.931 4.44-2.931 7.07s1.07 5.21 2.931 7.069c1.859 1.86 4.439 2.931 7.069 2.931s5.21-1.07 7.07-2.931c1.86-1.859 2.93-4.439 2.93-7.069s-1.069-5.21-2.93-7.07-4.44-2.93-7.07-2.93z"/></g></g></svg>