<svg id="Capa_1" enable-background="new 0 0 512.003 512.003" height="512" viewBox="0 0 512.003 512.003" width="512" xmlns="http://www.w3.org/2000/svg"><g id="XMLID_1538_"><g id="XMLID_2292_"><circle id="XMLID_585_" cx="228.933" cy="100.599" fill="#bedaff" r="74.667"/></g><g id="XMLID_2249_"><path id="XMLID_584_" d="m447.859 502-11.972-32.676c-21.683-59.178-78.004-98.526-141.03-98.526h-65.924-65.923c-63.025 0-119.347 39.347-141.03 98.526l-11.972 32.676z" fill="#f8f8f8"/></g><g id="XMLID_2247_"><g id="XMLID_2248_"><path d="m226.721 456.876-62.459-85.945-55.403 12.521 86.154 118.548z" fill="#bedaff"/></g></g><g id="XMLID_2245_"><g id="XMLID_2246_"><path d="m198.441 502 95.164-131.069 55.403 12.521-86.154 118.548z" fill="#bedaff"/></g></g><g id="XMLID_2244_"><path id="XMLID_143_" d="m211.422 95.923.17-.337c5.344-10.587 18.258-14.837 28.844-9.493l70.928 35.801c31.417 15.858 44.03 54.181 28.172 85.598-2.527 5.006-8.634 7.016-13.64 4.489l-91.472-46.171c-25.651-12.947-35.949-44.236-23.002-69.887z" fill="#bedaff"/></g><g id="XMLID_2243_"><path id="XMLID_6_" d="m327.697 208.91v63.125c0 54.546-44.218 98.764-98.764 98.764-54.546 0-98.764-44.218-98.764-98.764v-63.125l98.764-40.145z" fill="#f0c9bc"/></g><g id="XMLID_2241_"><g id="XMLID_2242_"><circle id="XMLID_8_" cx="188.487" cy="254.444" fill="#d5ea7a" r="22.709"/></g></g><g id="XMLID_2236_"><g id="XMLID_2237_"><circle cx="269.512" cy="254.444" fill="#d5ea7a" r="22.709"/></g></g><g id="XMLID_1413_"><path d="m268.223 92.26c-8.236-16.317-28.139-22.867-44.456-14.632l-70.12 35.393c-32.445 16.376-45.47 55.954-29.094 88.398 4.219 8.359 14.417 11.716 22.776 7.496l98.935-49.938c24.488-12.358 34.319-42.229 21.959-66.717z" fill="#bedaff"/></g><g id="XMLID_2117_"><path d="m156.76 370.931 70.77 97.38-21.676 33.689 95.253-131.069z" fill="#f0c9bc"/></g><g id="XMLID_2523_"><g id="XMLID_2529_"><ellipse id="XMLID_130_" cx="422.833" cy="65.068" fill="#ffbcbc" rx="28.206" ry="55.068"/></g><g id="XMLID_2527_"><ellipse id="XMLID_126_" cx="462.195" cy="81.709" fill="#ff7a7a" rx="55.068" ry="28.206" transform="matrix(.707 -.707 .707 .707 77.597 350.753)"/></g><g id="XMLID_2525_"><ellipse id="XMLID_110_" cx="382.57" cy="81.709" fill="#ff7a7a" rx="28.206" ry="55.068" transform="matrix(.707 -.707 .707 .707 54.276 294.45)"/></g></g><g id="XMLID_586_"><path id="XMLID_589_" d="m221.195 254.444c0-18.036-14.673-32.708-32.709-32.708-18.035 0-32.708 14.673-32.708 32.708 0 18.036 14.673 32.709 32.708 32.709 18.036 0 32.709-14.673 32.709-32.709zm-32.709 12.709c-7.007 0-12.708-5.701-12.708-12.709 0-7.007 5.701-12.708 12.708-12.708 7.008 0 12.709 5.701 12.709 12.708 0 7.008-5.701 12.709-12.709 12.709z"/><path id="XMLID_592_" d="m302.22 254.444c0-18.036-14.673-32.708-32.708-32.708-18.036 0-32.709 14.673-32.709 32.708 0 18.036 14.673 32.709 32.709 32.709s32.708-14.673 32.708-32.709zm-32.708 12.709c-7.008 0-12.709-5.701-12.709-12.709 0-7.007 5.701-12.708 12.709-12.708 7.007 0 12.708 5.701 12.708 12.708 0 7.008-5.701 12.709-12.708 12.709z"/><path id="XMLID_593_" d="m237.458 311.47c-4.676 4.677-12.284 4.675-16.96 0-3.906-3.904-10.236-3.904-14.143 0-3.905 3.905-3.905 10.237 0 14.143 6.237 6.236 14.43 9.355 22.623 9.355 8.192 0 16.385-3.119 22.622-9.355 3.905-3.905 3.905-10.237 0-14.143-3.906-3.904-10.236-3.904-14.142 0z"/><path id="XMLID_598_" d="m390.788 392.699c-27.913-20.869-61.086-31.899-95.931-31.899h-3.138c27.801-19.722 45.978-52.159 45.978-88.764v-50.331c4.683-1.796 8.49-5.198 10.766-9.707 18.317-36.289 3.696-80.714-32.593-99.031l-2.971-1.5c.461-3.596.701-7.229.701-10.868 0-46.686-37.981-84.667-84.667-84.667s-84.667 37.981-84.667 84.667c0 2.024.081 4.052.225 6.074-33.875 20.166-46.895 63.534-28.866 99.254 1.221 2.419 2.764 4.57 4.544 6.437v59.672c0 36.604 18.177 69.042 45.978 88.764h-3.138c-32.982 0-64.708 9.984-91.745 28.873-27.038 18.89-47.327 45.243-58.674 76.212l-11.972 32.675c-1.9 5.186.764 10.93 5.949 12.83 1.136.416 2.297.613 3.439.613 4.076 0 7.906-2.512 9.391-6.562l11.973-32.676c13.012-35.517 39.687-63.489 72.719-78.867l82.834 113.981c1.882 2.589 4.89 4.121 8.09 4.121h3.429c3.2 0 6.208-1.532 8.09-4.121l92.297-127.001c12.202.337 24.146 2.214 35.628 5.587l-79.691 109.656c-3.246 4.468-2.257 10.722 2.211 13.969 1.775 1.29 3.832 1.911 5.871 1.911 3.092 0 6.141-1.43 8.098-4.122l82.913-114.09c8.725 4.063 17.082 9.041 24.956 14.927 4.421 3.309 10.69 2.402 13.996-2.021s2.401-10.69-2.023-13.996zm-60.179-189.714c-.033.065-.143.102-.208.068l-74.911-37.812c11.843-7.369 20.656-18.538 25.07-31.948 1.546-4.698 2.494-9.497 2.854-14.306l23.444 11.833c26.444 13.349 37.098 45.722 23.751 72.165zm-101.676-167.053c35.657 0 64.667 29.009 64.667 64.667 0 .371-.024.741-.031 1.112l-13.364-6.745c-.86-2.447-1.869-4.858-3.057-7.211h.001c-10.707-21.213-36.679-29.761-57.89-19.053l-54.842 27.681c2.183-33.698 30.277-60.451 64.516-60.451zm-70.781 86.017 70.12-35.393c3.328-1.68 6.874-2.475 10.369-2.475 8.445 0 16.596 4.645 20.653 12.685h.001c4.774 9.459 5.579 20.211 2.267 30.275s-10.346 18.236-19.804 23.01l-98.936 49.938c-3.425 1.728-7.615.349-9.343-3.075-13.865-27.47-2.797-61.099 24.673-74.965zm-17.982 150.087v-51.316c3.937-.064 7.92-.987 11.665-2.877l81.742-41.259 84.121 42.46v52.991c0 48.944-39.819 88.764-88.764 88.764s-88.764-39.819-88.764-88.763zm56.557 215.313-70.851-97.491 34.166-7.722 56.573 77.846zm-12.932-106.55h90.365l-45.182 62.172z"/><path id="XMLID_604_" d="m446.566 469.405c-1.901-5.187-7.647-7.85-12.83-5.949-5.186 1.9-7.85 7.645-5.949 12.83l10.683 29.155c1.484 4.051 5.313 6.562 9.391 6.562 1.143 0 2.305-.197 3.439-.613 5.186-1.9 7.85-7.645 5.949-12.83z"/><path id="XMLID_607_" d="m511.006 41.176c-.688-4.255-4.023-7.591-8.277-8.278-15.812-2.552-31.863-.113-45.995 6.606-5.186-15.012-14.846-28.082-28.046-37.612-3.496-2.523-8.213-2.523-11.707 0-13.3 9.601-23.018 22.81-28.174 37.978-14.317-7.002-30.665-9.574-46.769-6.973-4.254.687-7.59 4.023-8.277 8.278-3.983 24.666 4.164 49.918 21.795 67.548 14.684 14.684 34.648 22.789 55.163 22.789 3.878 0 7.779-.302 11.665-.892 3.887.59 7.786.892 11.665.892 20.513 0 40.48-8.106 55.163-22.789 17.63-17.629 25.777-42.881 21.794-67.547zm-88.172-18.247c8.085 7.579 13.764 17.213 16.456 27.954-1.409 1.218-2.784 2.484-4.11 3.81-5.074 5.074-9.357 10.781-12.797 16.921-3.44-6.14-7.723-11.848-12.797-16.921-1.091-1.091-2.212-2.145-3.359-3.163 2.624-10.998 8.364-20.873 16.607-28.601zm-10.482 88.562c-15.866.45-31.353-5.605-42.655-16.909-11.304-11.303-17.361-26.827-16.909-42.655 15.833-.442 31.352 5.604 42.655 16.909 11.304 11.303 17.361 26.827 16.909 42.655zm62.716-16.909c-11.303 11.304-26.779 17.359-42.655 16.909-.452-15.828 5.605-31.352 16.909-42.655 11.305-11.305 26.826-17.357 42.655-16.909.452 15.827-5.605 31.352-16.909 42.655z"/><path id="XMLID_610_" d="m416.498 422.88c-2.631 0-5.211 1.07-7.07 2.93-1.86 1.87-2.93 4.44-2.93 7.08 0 2.63 1.069 5.2 2.93 7.061 1.859 1.869 4.439 2.939 7.07 2.939 2.63 0 5.21-1.07 7.069-2.939 1.86-1.86 2.931-4.431 2.931-7.061s-1.07-5.21-2.931-7.08c-1.859-1.859-4.439-2.93-7.069-2.93z"/></g></g></svg>