<svg id="Capa_1" enable-background="new 0 0 512 512" height="512" viewBox="0 0 512 512" width="512" xmlns="http://www.w3.org/2000/svg"><g id="XMLID_882_"><path id="XMLID_1291_" d="m192.97 174.041h112.393v47.397h-112.393z" fill="#9da5be"/><path id="XMLID_1295_" d="m305.363 225.359v-3.921h-112.393v4.083c0 25.241-8.274 49.905-24.049 69.609-13.999 17.486-22.401 39.646-22.488 63.767-.202 56.047 45.228 102.322 101.269 103.103 57.409.799 104.198-45.498 104.198-102.724 0-24.273-8.42-46.577-22.496-64.155-15.805-19.737-24.041-44.475-24.041-69.762z" fill="#bedaff"/><path id="XMLID_1294_" d="m351.9 359.277c0-23.85-8.142-45.788-21.779-63.221h-1.652c-22.13 22.13-58.01 22.13-80.14 0-22.104-22.104-57.925-22.128-80.061-.075-13.599 17.353-21.75 39.18-21.835 62.917-.202 56.047 45.228 102.322 101.27 103.103 57.408.8 104.197-45.498 104.197-102.724z" fill="#a0c8ff"/><g fill="#d5ea7a"><ellipse id="XMLID_1288_" cx="249.166" cy="64.991" rx="30.49" ry="54.992"/><ellipse id="XMLID_1287_" cx="351.781" cy="100.25" rx="55.294" ry="30.657" transform="matrix(.857 -.515 .515 .857 -1.352 195.629)"/><ellipse id="XMLID_1286_" cx="146.552" cy="100.25" rx="30.657" ry="55.294" transform="matrix(.515 -.857 .857 .515 -14.886 174.178)"/></g><g id="XMLID_231_"><path id="XMLID_447_" d="m368.5 211.439h-53.137v-37.397c0-5.523-4.478-10-10-10h-26.665c7.098-9.529 15.865-17.7 25.957-24.159 9.449 4.011 19.425 6.014 29.377 6.014 13.399 0 26.752-3.618 38.702-10.804 22.341-13.435 35.96-37.045 36.431-63.158.069-3.83-2.055-7.362-5.47-9.096-23.285-11.826-50.525-10.866-72.866 2.569-20.588 12.381-33.76 33.405-36.071 57.062-14.235 8.934-26.314 20.691-35.591 34.574v-31.783c19.188-14.094 30.489-36.225 30.489-60.27 0-25.947-13.152-49.673-35.183-63.467-3.246-2.032-7.367-2.032-10.613 0-22.031 13.795-35.184 37.521-35.184 63.467 0 24.045 11.301 46.176 30.49 60.27v31.784c-9.277-13.884-21.356-25.641-35.592-34.576-2.311-23.658-15.482-44.682-36.07-57.062-22.34-13.436-49.581-14.396-72.866-2.569-3.415 1.734-5.539 5.267-5.47 9.096.471 26.113 14.09 49.723 36.431 63.158 11.951 7.188 25.301 10.805 38.701 10.804 9.951 0 19.929-2.003 29.377-6.013 10.092 6.459 18.859 14.63 25.957 24.159h-26.664c-5.522 0-10 4.477-10 10v51.48c0 23.253-7.762 45.755-21.855 63.359-16.054 20.053-24.589 44.252-24.682 69.977-.002.531 0 1.062.006 1.591.055 5.488 4.521 9.899 9.997 9.899h.104c5.522-.056 9.954-4.578 9.897-10.101-.004-.436-.006-.872-.004-1.312.074-20.613 6.751-40.019 19.294-56.25 17.544-17.072 45.292-17.578 63.439-1.513v8.303l-41.854 41.853c-3.905 3.905-3.905 10.237 0 14.142 1.953 1.953 4.512 2.929 7.071 2.929s5.118-.977 7.071-2.929l27.711-27.71v85.24c0 5.523 4.478 10 10 10s10-4.477 10-10v-54.946l7.628 7.628c1.953 1.953 4.512 2.929 7.071 2.929s5.118-.976 7.071-2.929c3.905-3.905 3.905-10.237 0-14.143l-21.771-21.771v-23.881c9.197 4.478 19.211 6.736 29.232 6.736 13.802 0 27.602-4.252 39.251-12.747 9.341 14.744 14.25 31.625 14.25 49.401 0 25.015-9.81 48.465-27.622 66.031-17.81 17.562-41.447 27.057-66.436 26.694-20.775-.289-40.362-7.378-56.644-20.501-4.3-3.466-10.596-2.791-14.062 1.51-3.466 4.3-2.789 10.595 1.511 14.061 19.796 15.956 43.626 24.576 68.915 24.928.541.007 1.08.011 1.619.011 29.825 0 57.873-11.492 79.139-32.463 21.653-21.354 33.579-49.862 33.579-80.271 0-25.519-8.769-50.523-24.69-70.406-12.861-16.061-20.426-36.261-21.65-57.433h52.94c18.932 0 34.333 15.402 34.333 34.333v191.894c0 18.932-15.401 34.333-34.333 34.333h-221.384c-5.522 0-10 4.477-10 10s4.478 10 10 10h221.388c29.959 0 54.333-24.374 54.333-54.333v-191.893c0-29.959-24.374-54.333-54.333-54.333zm-27.365-128.892c14.526-8.736 31.879-10.285 47.542-4.485-2.221 16.553-11.724 31.154-26.25 39.89-14.527 8.735-31.88 10.285-47.543 4.485 2.221-16.552 11.724-31.154 26.251-39.89zm-205.229 35.405c-14.526-8.736-24.029-23.337-26.25-39.891 15.66-5.798 33.013-4.251 47.542 4.485 14.526 8.736 24.029 23.337 26.25 39.891-15.661 5.8-33.016 4.252-47.542-4.485zm159.457 93.487h-36.196v-27.397h36.196zm-66.687-146.448c0-16.827 7.555-32.383 20.49-42.749 12.936 10.366 20.489 25.921 20.489 42.749 0 16.827-7.554 32.383-20.489 42.749-12.935-10.366-20.49-25.921-20.49-42.749zm-25.706 119.05h36.196v27.397h-36.196zm-8.662 86.924c4.945-12.486 7.869-25.856 8.521-39.527h36.337v45.627c-13.893-7.259-29.821-9.294-44.858-6.1zm64.859 21.394v-60.92h36.344c1.092 22.444 8.206 44.065 20.428 62.226-16.907 12.374-40.321 11.937-56.772-1.306z"/><path id="XMLID_461_" d="m156.83 414.139c2.63 0 5.21-1.07 7.069-2.93 1.87-1.87 2.931-4.44 2.931-7.07s-1.061-5.21-2.931-7.07c-1.859-1.87-4.439-2.93-7.069-2.93s-5.21 1.06-7.07 2.93c-1.86 1.86-2.93 4.43-2.93 7.07 0 2.63 1.069 5.21 2.93 7.07 1.86 1.861 4.44 2.93 7.07 2.93z"/></g></g></svg>