<svg id="Capa_1" enable-background="new 0 0 512 512" height="512" viewBox="0 0 512 512" width="512" xmlns="http://www.w3.org/2000/svg"><g id="XMLID_1204_"><circle id="XMLID_3293_" cx="256" cy="202.992" fill="#bedaff" r="149.58"/><circle id="XMLID_3292_" cx="256" cy="202.992" fill="#d0a084" r="102.207"/><path id="XMLID_3291_" d="m375.983 108.88 48.775-56.747c3.637-4.231 3.155-10.61-1.076-14.247l-29.538-25.388c-4.231-3.637-10.61-3.155-14.247 1.076l-48.775 56.747z" fill="#bedaff"/><path id="XMLID_3290_" d="m359.269 311.601 86.531-72.317.052-.719v-131.195c0-15.501 12.567-28.067 28.068-28.067h.013c15.502 0 28.068 12.567 28.068 28.069l-.013 229.603c-.001 27.665-7.656 54.791-22.118 78.376l-53.091 86.584h-134.779v-46.448c0-55.56 24.637-108.258 67.269-143.886z" fill="#ffd0c6"/><path id="XMLID_3281_" d="m152.731 311.601-86.531-72.317-.052-.719v-131.195c0-15.501-12.567-28.067-28.068-28.067h-.013c-15.501-.001-28.067 12.566-28.067 28.068l.013 229.603c.001 27.665 7.656 54.791 22.118 78.376l53.091 86.584h134.778v-46.448c0-55.559-24.637-108.257-67.269-143.885z" fill="#ffd0c6"/><path id="XMLID_2669_" d="m241.07 250.864-32.78-32.78c-13.175-13.175-13.175-34.535 0-47.71 13.175-13.175 34.535-13.175 47.71 0 13.175-13.175 34.535-13.175 47.71 0 13.175 13.175 13.175 34.535 0 47.71l-32.78 32.78c-8.246 8.245-21.614 8.245-29.86 0z" fill="#d8b79f"/><g id="XMLID_394_"><path id="XMLID_621_" d="m500.851 80.453c-7.189-7.19-16.749-11.15-26.932-11.15-20.99 0-38.067 17.077-38.067 38.067v127.195l-30.98 25.892c6.909-17.839 10.709-37.216 10.709-57.465 0-33.944-10.661-65.44-28.798-91.334l45.56-53.008c3.5-4.071 5.204-9.263 4.8-14.617s-2.869-10.231-6.941-13.731l-29.54-25.387c-8.406-7.227-21.123-6.265-28.35 2.141l-45.512 52.951c-21.347-10.613-45.387-16.595-70.8-16.595-87.993 0-159.58 71.587-159.58 159.58 0 20.249 3.799 39.625 10.709 57.464l-30.98-25.891v-127.195c0-20.99-17.077-38.067-38.081-38.067-10.169 0-19.729 3.96-26.918 11.15-7.191 7.189-11.151 16.75-11.15 26.919l.013 229.602c.001 29.523 8.159 58.433 23.592 83.604l53.092 86.584c1.888 3.077 5.172 4.773 8.535 4.773 1.782 0 3.587-.476 5.218-1.476 4.708-2.888 6.185-9.045 3.298-13.753l-53.092-86.584c-13.504-22.022-20.642-47.317-20.643-73.149l-.003-48.979 85.298 105.163c3.479 4.289 9.776 4.947 14.066 1.467 4.289-3.479 4.945-9.776 1.467-14.066l-87.35-107.692c-3.689-4.548-5.004-10.419-3.606-16.106 1.397-5.687 5.283-10.279 10.66-12.6 6.465-2.79 13.837-1.718 19.239 2.796l86.535 72.319c40.47 33.821 63.681 83.468 63.681 136.211v46.447c0 5.522 4.478 10 10 10s10-4.478 10-10v-46.447c0-36.685-10.092-72.025-28.659-102.558 17.058 6.238 35.468 9.645 54.659 9.645s37.601-3.407 54.659-9.645c-18.567 30.533-28.659 65.873-28.659 102.558v46.447c0 5.522 4.478 10 10 10s10-4.478 10-10v-46.447c0-52.743 23.211-102.391 63.682-136.213l86.533-72.318c5.403-4.516 12.776-5.587 19.241-2.797 5.376 2.32 9.262 6.913 10.659 12.6 1.397 5.688.083 11.559-3.606 16.106l-87.35 107.692c-3.479 4.29-2.822 10.587 1.467 14.066 4.29 3.479 10.586 2.822 14.066-1.467l85.298-105.163-.003 48.98c-.001 25.831-7.139 51.126-20.643 73.148l-53.092 86.584c-2.887 4.708-1.41 10.865 3.298 13.753 1.631 1 3.436 1.477 5.218 1.476 3.363 0 6.647-1.696 8.535-4.773l53.092-86.584c15.433-25.171 23.591-54.08 23.592-83.603l.013-229.601c.001-10.169-3.959-19.73-11.149-26.919zm-113.372-60.36c.03-.035.108-.046.146-.011l29.539 25.388c.042.037.047.102.01.145l-43.095 50.14c-8.794-9.675-18.763-18.261-29.671-25.547zm-354.859 205.702c-4.844 2.09-9.103 5.07-12.613 8.736l-.007-127.161c0-4.826 1.879-9.363 5.291-12.775 3.413-3.413 7.95-5.292 12.79-5.292 9.962 0 18.067 8.104 18.067 18.067v116.136c-7.726-1.699-15.929-.992-23.528 2.289zm83.8-22.803c0-76.965 62.615-139.58 139.58-139.58s139.58 62.615 139.58 139.58-62.615 139.581-139.58 139.581-139.58-62.616-139.58-139.581zm362.961 22.803c-7.6-3.28-15.803-3.989-23.529-2.29v-116.135c0-9.963 8.105-18.067 18.081-18.067 4.826 0 9.363 1.879 12.776 5.292 3.412 3.412 5.291 7.949 5.291 12.775l-.007 127.16c-3.511-3.665-7.769-6.645-12.612-8.735z"/><path id="XMLID_647_" d="m335.343 123.65c-15.283-15.283-34.481-25.768-55.519-30.318-20.476-4.43-41.711-3.076-61.412 3.911-5.205 1.847-7.928 7.562-6.082 12.768s7.563 7.926 12.768 6.082c33.364-11.836 71.087-3.316 96.103 21.7 35.951 35.951 35.951 94.448 0 130.399-17.978 17.978-41.585 26.966-65.2 26.963-23.609-.002-47.227-8.989-65.2-26.963-25.016-25.015-33.533-62.735-21.701-96.096 1.846-5.205-.877-10.921-6.082-12.768-5.206-1.844-10.921.877-12.768 6.082-6.987 19.701-8.34 40.936-3.909 61.409 4.552 21.035 15.035 40.232 30.317 55.515 21.875 21.874 50.609 32.812 79.343 32.812s57.468-10.938 79.343-32.812c43.748-43.749 43.748-114.934-.001-158.684z"/><path id="XMLID_650_" d="m201.219 225.155 32.78 32.78c5.877 5.876 13.69 9.112 22.001 9.112s16.124-3.236 22.001-9.112l32.78-32.78c17.053-17.053 17.053-44.8 0-61.853-14.857-14.857-37.835-16.771-54.781-5.737-16.949-11.033-39.925-9.12-54.781 5.737-17.053 17.053-17.053 44.8 0 61.853zm14.142-47.71c4.627-4.628 10.705-6.941 16.784-6.941 6.078 0 12.156 2.313 16.783 6.941 3.906 3.904 10.236 3.904 14.143 0 9.254-9.257 24.313-9.255 33.567 0 9.255 9.255 9.255 24.312 0 33.567l-32.78 32.78c-2.099 2.1-4.89 3.255-7.858 3.255s-5.76-1.155-7.858-3.255l-32.78-32.78c-9.256-9.254-9.256-24.312-.001-33.567z"/><path id="XMLID_651_" d="m183.729 140.724c2.63 0 5.21-1.069 7.07-2.93s2.93-4.44 2.93-7.07c0-2.64-1.069-5.21-2.93-7.069-1.86-1.87-4.44-2.931-7.07-2.931s-5.21 1.061-7.069 2.931c-1.86 1.859-2.931 4.43-2.931 7.069 0 2.63 1.07 5.21 2.931 7.07 1.86 1.861 4.44 2.93 7.069 2.93z"/></g></g></svg>