<svg id="Capa_1" enable-background="new 0 0 512 512" height="512" viewBox="0 0 512 512" width="512" xmlns="http://www.w3.org/2000/svg"><g id="XMLID_1434_"><path id="XMLID_3168_" d="m462 10h-352c-22.091 0-40 17.909-40 40v352c0 22.091 17.909 40 40 40h352c22.091 0 40-17.909 40-40v-352c0-22.091-17.909-40-40-40z" fill="#e0e1e7"/><path id="XMLID_3165_" d="m402 70h-352c-22.091 0-40 17.909-40 40v352c0 22.091 17.909 40 40 40h352c22.091 0 40-17.909 40-40v-352c0-22.091-17.909-40-40-40z" fill="#f8f8f8"/><path id="XMLID_3164_" d="m66 126h320v288h-320z" fill="#a0c8ff"/><path id="XMLID_3163_" d="m102 326c-13.026 0-25.284 3.282-36 9.057v78.943h112v-12c0-41.974-34.026-76-76-76z" fill="#ffd88e"/><path id="XMLID_3162_" d="m350 326c13.026 0 25.284 3.282 36 9.057v78.943h-112v-12c0-41.974 34.026-76 76-76z" fill="#ff7a7a"/><path id="XMLID_3161_" d="m350 326c-19.882 0-36-16.118-36-36v-16c0-19.882 16.118-36 36-36 19.882 0 36 16.118 36 36v16c0 19.882-16.118 36-36 36z" fill="#f4c6af"/><path id="XMLID_3160_" d="m102 326c19.882 0 36-16.118 36-36v-16c0-19.882-16.118-36-36-36-19.882 0-36 16.118-36 36v16c0 19.882 16.118 36 36 36z" fill="#e9cfa5"/><path id="XMLID_3159_" d="m226 326c-19.882 0-36-16.118-36-36v-16c0-19.882 16.118-36 36-36 19.882 0 36 16.118 36 36v16c0 19.882-16.118 36-36 36z" fill="#f4c6af"/><path id="XMLID_1822_" d="m226 326c-41.974 0-76 34.026-76 76v12h152v-12c0-41.974-34.026-76-76-76z" fill="#d5ea7a"/><g id="XMLID_15_"><path id="XMLID_535_" d="m462 0h-352c-27.57 0-50 22.43-50 50v10h-10c-27.57 0-50 22.43-50 50v352c0 27.57 22.43 50 50 50h352c27.57 0 50-22.43 50-50v-10h10c27.57 0 50-22.43 50-50v-352c0-27.57-22.43-50-50-50zm-60 492h-352c-16.542 0-30-13.458-30-30v-352c0-16.542 13.458-30 30-30h352c16.542 0 30 13.458 30 30v352c0 16.542-13.458 30-30 30zm90-90c0 16.542-13.458 30-30 30h-10v-322c0-27.57-22.43-50-50-50h-322v-10c0-16.542 13.458-30 30-30h352c16.542 0 30 13.458 30 30z"/><path id="XMLID_542_" d="m396 126c0-5.523-4.477-10-10-10h-115c-5.523 0-10 4.477-10 10s4.477 10 10 10h105v100.08c-7.402-5.091-16.357-8.08-26-8.08-25.364 0-46 20.636-46 46v16c0 12.644 5.13 24.111 13.415 32.435-11.035 4.526-21.093 11.324-29.454 20.019-8.235-8.566-18.215-15.435-29.373-20.022 8.284-8.324 13.412-19.79 13.412-32.432v-16c0-25.364-20.636-46-46-46s-46 20.636-46 46v16c0 12.642 5.128 24.108 13.412 32.431-11.158 4.587-21.138 11.456-29.373 20.022-8.361-8.694-18.419-15.493-29.454-20.019 8.285-8.323 13.415-19.79 13.415-32.434v-16c0-25.364-20.636-46-46-46-9.643 0-18.598 2.988-26 8.08v-100.08h105c5.523 0 10-4.477 10-10s-4.477-10-10-10h-115c-5.523 0-10 4.477-10 10v288c0 5.522 4.477 10 10 10h320c5.523 0 10-4.478 10-10zm-72 164v-16c0-14.337 11.664-26 26-26s26 11.663 26 26v16c0 14.337-11.664 26-26 26s-26-11.663-26-26zm-124 0v-16c0-14.337 11.664-26 26-26s26 11.663 26 26v16c0 14.337-11.664 26-26 26s-26-11.663-26-26zm-98-42c14.336 0 26 11.663 26 26v16c0 14.337-11.664 26-26 26s-26-11.663-26-26v-16c0-14.337 11.664-26 26-26zm-26 93.324c8.166-3.493 17.047-5.324 26-5.324 19.135 0 37.293 8.368 49.766 22.659-7.465 12.737-11.766 27.542-11.766 43.341v2h-64zm84 62.676v-2c0-36.393 29.607-66 66-66s66 29.607 66 66v2zm152 0v-2c0-15.799-4.301-30.604-11.766-43.341 12.473-14.291 30.631-22.659 49.766-22.659 8.953 0 17.834 1.831 26 5.324v62.676z"/><path id="XMLID_548_" d="m226 136c2.63 0 5.21-1.07 7.07-2.93s2.93-4.44 2.93-7.07-1.07-5.21-2.93-7.07-4.44-2.93-7.07-2.93-5.21 1.07-7.07 2.93-2.93 4.44-2.93 7.07 1.07 5.21 2.93 7.07 4.44 2.93 7.07 2.93z"/></g></g></svg>