<svg id="Capa_1" enable-background="new 0 0 512 512" height="512" viewBox="0 0 512 512" width="512" xmlns="http://www.w3.org/2000/svg"><g id="XMLID_2416_"><path id="XMLID_2419_" d="m436.055 226.695v-21.506c0-28.381-23.008-51.389-51.389-51.389-10.335 0-19.708-4.098-26.603-10.748v33.354c0 29.013 23.519 52.532 52.532 52.532h25.544c-.05-.743-.084-1.488-.084-2.243z" fill="#f4c6af"/></g><path id="XMLID_1034_" d="m400.888 252.546c10.354-15.002 27.419-23.959 45.648-23.959 30.632 0 55.464 24.832 55.464 55.464v150.811h-123.975v-108.941c0-26.212 7.974-51.803 22.863-73.375z" fill="#ff7a7a"/><path id="XMLID_2163_" d="m333.83 337.362h5.864c21.169 0 38.33 17.161 38.33 38.33v59.17h-82.524v-59.17c0-21.169 17.161-38.33 38.33-38.33z" fill="#ffd88e"/><circle id="XMLID_2162_" cx="339.036" cy="295.673" fill="#f0c9bc" r="36.005"/><g id="XMLID_2160_"><path id="XMLID_2161_" d="m58.597 434.862-48.597-181.368 44.833-12.012 39.378 146.966z" fill="#bedaff"/></g><path id="XMLID_1432_" d="m94.211 388.448h155.456v46.414h-191.07z" fill="#bedaff"/><path id="XMLID_1583_" d="m354.155 317.496 36.395-59.479c4.998-8.168 13.884-13.148 23.46-13.148 21.28 0 34.498 23.13 23.697 41.464l-39.45 66.962c-7.358 12.489-19.291 21.62-33.268 25.457l-97.377 26.731c-11.585 3.18-23.771-2.481-28.813-13.384-6.189-13.383.717-29.165 14.746-33.701l82.586-26.703c7.51-2.43 13.904-7.466 18.024-14.199z" fill="#f4c6af"/><path id="XMLID_1741_" d="m436.055 226.695v-21.506c0-28.381-23.008-51.389-51.389-51.389-21.17 0-38.332-17.162-38.332-38.332 0-21.17 17.162-38.332 38.332-38.332h19.165c37.382 0 67.636 30.401 67.455 67.783 19.377 15.04 30.714 38.192 30.714 62.721v19.055c0 18.21-14.762 32.973-32.973 32.973-18.21 0-32.972-14.762-32.972-32.973z" fill="#9da5be"/><g id="XMLID_204_"><path id="XMLID_1221_" d="m512 207.64c0-26.202-11.181-50.56-30.841-67.556-1.076-18.927-8.937-36.575-22.427-50.131-14.644-14.715-34.142-22.818-54.901-22.818h-19.165c-26.651 0-48.333 21.682-48.333 48.332 0 12.032 4.43 23.042 11.73 31.511v.01 29.417c0 30.639 22.156 56.183 51.283 61.499-7.083 3.026-13.219 8.181-17.326 14.893l-7.994 13.065c-8.572-10.004-21.279-16.194-34.989-16.194-25.367 0-46.005 20.638-46.005 46.006 0 13.593 6.005 25.943 15.553 34.418l-58.116 18.791c-9.408 3.041-17.076 9.98-21.04 19.038-1.477 3.376-2.388 6.931-2.735 10.527h-124.809l-37.394-139.554c-1.43-5.334-6.914-8.503-12.247-7.071l-44.832 12.011c-2.562.687-4.746 2.362-6.072 4.659s-1.686 5.026-.999 7.588l48.597 181.369c1.197 4.468 5.237 7.415 9.653 7.415.015 0 .03-.003.045-.003h191.031c5.522 0 10-4.478 10-10v-18.535c.453.018.904.049 1.359.049 3.054 0 6.155-.406 9.231-1.25l15.242-4.184v23.92c0 5.522 4.478 10 10 10h206.501c5.522 0 10-4.478 10-10v-150.811c0-11.342-2.862-22.25-8.327-31.972 5.229-7.118 8.327-15.894 8.327-25.383zm-127.334-120.505h19.165c15.399 0 29.862 6.012 40.726 16.927 10.862 10.915 16.804 25.408 16.729 40.809-.015 3.105 1.414 6.043 3.868 7.947 17.061 13.242 26.846 33.224 26.846 54.822v19.056c0 12.667-10.306 22.972-22.973 22.972s-22.973-10.305-22.973-22.972v-21.507c0-33.85-27.539-61.389-61.389-61.389-15.623 0-28.333-12.71-28.333-28.333.001-15.622 12.711-28.332 28.334-28.332zm-16.604 89.27v-15.543c5.18 1.9 10.773 2.938 16.604 2.938 22.822 0 41.389 18.566 41.389 41.389v13.802c-.34-.035-.686-.054-1.035-.054h-14.425c-23.452 0-42.533-19.08-42.533-42.532zm-29.026 93.262c10.131 0 19.292 5.97 23.528 14.924l-16.94 27.685c-2.48 4.055-6.154 7.225-10.483 9.106-12.549-1.89-22.11-12.808-22.11-25.709 0-14.34 11.666-26.006 26.005-26.006zm-316.789-9.102 25.514-6.836 35.516 132.543-20.269 26.415zm217.42 164.297h-160.792l20.269-26.414h131.669c2.275 4.15 5.312 7.669 8.854 10.473zm25.297-29.024c-3.64 1-7.353.531-10.495-1.076-.04-.022-.082-.042-.122-.063-2.762-1.446-5.074-3.774-6.473-6.799-1.774-3.839-1.819-8.087-.123-11.962 1.695-3.874 4.845-6.725 8.869-8.026l82.587-26.703c9.776-3.161 18.114-9.729 23.478-18.493l36.396-59.48c3.157-5.16 8.878-8.366 14.93-8.366 6.359 0 12.041 3.297 15.196 8.818 3.156 5.521 3.112 12.09-.116 17.569l-39.45 66.962c-4.028 6.838-9.66 12.395-16.358 16.292-.056.03-.108.065-.164.096-3.35 1.93-6.96 3.453-10.777 4.501zm40.536 9.613 62.136-17.057c.131-.036.258-.08.389-.117v36.584h-62.525zm186.5 19.411h-103.976v-46.051c7.586-5.323 14.018-12.243 18.848-20.441l39.45-66.962c4.703-7.982 6.242-17.042 4.627-25.743 5.5 2.562 11.622 4.001 18.078 4.001 6.788 0 13.21-1.588 18.924-4.403 2.662 5.849 4.049 12.211 4.049 18.787z"/></g></svg>