<svg id="Capa_1" enable-background="new 0 0 512.094 512.094" height="512" viewBox="0 0 512.094 512.094" width="512" xmlns="http://www.w3.org/2000/svg"><g id="XMLID_883_"><circle id="XMLID_2469_" cx="474.987" cy="62.38" fill="#bedaff" r="27.107"/><path id="XMLID_1914_" d="m163.546 287.937 16.935 34.315 37.868 5.502-27.401 26.71 6.468 37.715-33.87-17.807-33.87 17.807 6.469-37.715-27.402-26.71 37.868-5.502z" fill="#bedaff"/><circle id="XMLID_1913_" cx="42.271" cy="280.594" fill="#ffd88e" r="27.235"/><g id="XMLID_2420_"><path id="XMLID_2421_" d="m481.88 502.047c-11.046 0-20-8.954-20-20v.015c0-50.192-18.108-98.719-50.989-136.64-20.051-23.125-31.094-52.717-31.094-83.324h40c0 20.981 7.569 41.268 21.314 57.119 39.188 45.194 60.769 103.026 60.769 162.845v-.015c0 11.046-8.955 20-20 20z" fill="#ff7a7a"/></g><g id="XMLID_2417_"><path id="XMLID_2418_" d="m277.714 502.047c11.046 0 20-8.954 20-20v.015c0-50.192 18.108-98.719 50.989-136.64 20.051-23.125 31.094-52.717 31.094-83.324h-40c0 20.981-7.569 41.268-21.314 57.119-39.188 45.194-60.769 103.026-60.769 162.845v-.015c0 11.046 8.954 20 20 20z" fill="#ff7a7a"/></g><path id="XMLID_1707_" d="m379.797 170.098v-104c25.519 23.891 40 57.287 40 92.244v11.756z" fill="#f8f8f8"/><path id="XMLID_1705_" d="m379.797 170.098v-104c-25.519 23.891-40 57.287-40 92.244v11.756z" fill="#f8f8f8"/><path id="XMLID_1191_" d="m339.797 170.098h80v92h-80z" fill="#e0e1e7"/><g id="XMLID_401_"><path id="XMLID_404_" d="m219.787 317.858-32.665-4.747-13.576-27.506v-19.886c73.864-4.928 132.454-66.582 132.454-141.672v-43.147c0-44.583-36.271-80.853-80.854-80.853-44.582 0-80.853 36.271-80.853 80.853v19.137c-12.772 4.203-22.022 16.237-22.022 30.399 0 17.645 14.355 32 32 32s32-14.355 32-32c0-14.145-9.229-26.167-21.978-30.384v-19.152c0-33.555 27.299-60.853 60.853-60.853 33.555 0 60.854 27.298 60.854 60.853v43.147c0 67.271-54.729 122-122.001 122-67.271 0-121.999-54.729-121.999-122v-61.609c12.761-4.21 22-16.238 22-30.391 0-17.645-14.355-32-32-32s-32 14.355-32 32c0 14.153 9.239 26.181 22 30.391v61.609c0 40.184 16.781 76.519 43.7 102.375l-12.192 18.661c-5.87-1.866-12.146-2.248-18.36-1.037-9.763 1.903-18.199 7.493-23.756 15.742-11.472 17.027-6.952 40.213 10.074 51.685 6.367 4.291 13.594 6.344 20.75 6.344 11.979 0 23.753-5.758 30.936-16.417 9.643-14.313 7.983-32.975-2.902-45.376l10.918-16.71c20.675 14.9 45.499 24.382 72.379 26.348v19.942l-13.575 27.508-32.665 4.747c-3.768.547-6.896 3.186-8.073 6.806-1.176 3.62-.195 7.594 2.53 10.251l23.637 23.041-5.58 32.533c-.644 3.751.899 7.543 3.979 9.781 3.079 2.237 7.163 2.532 10.531.761l29.217-15.36 29.217 15.36c1.463.77 3.061 1.149 4.652 1.149 2.073 0 4.137-.644 5.879-1.91 3.079-2.237 4.621-6.029 3.979-9.781l-5.579-32.533 23.637-23.041c2.726-2.657 3.706-6.631 2.53-10.251-1.179-3.622-4.308-6.26-8.076-6.807zm-65.516-175.422c-6.617 0-12-5.383-12-12s5.383-12 12-12 12 5.383 12 12-5.382 12-12 12zm-122.271-122.389c6.617 0 12 5.383 12 12s-5.383 12-12 12-12-5.383-12-12 5.383-12 12-12zm24.565 270.177c-5.312 7.881-16.044 9.975-23.924 4.663-7.882-5.31-9.974-16.042-4.664-23.924 2.572-3.818 6.478-6.405 10.996-7.286 1.111-.216 2.227-.323 3.333-.323 3.396 0 6.716 1.007 9.595 2.947 7.882 5.309 9.974 16.041 4.664 23.923zm127.403 57.079c-2.356 2.297-3.432 5.607-2.876 8.851l3.043 17.745-15.936-8.378c-1.456-.766-3.055-1.149-4.653-1.149s-3.197.383-4.653 1.149l-15.936 8.377 3.044-17.744c.556-3.244-.52-6.554-2.876-8.851l-12.893-12.567 17.816-2.589c3.258-.473 6.073-2.519 7.53-5.47l7.967-16.145 7.968 16.145c1.457 2.951 4.272 4.997 7.53 5.47l17.816 2.589z"/><path id="XMLID_410_" d="m429.797 262.098v-103.757c0-37.578-15.733-73.86-43.165-99.543-2.909-2.723-7.157-3.459-10.813-1.875-1.073.465-2.018 1.121-2.842 1.893-.003-.003-.015-.018-.015-.018-27.432 25.683-43.165 61.965-43.165 99.543v103.756c0 18.576-6.701 36.535-18.869 50.567-3.366 3.882-6.664 7.923-9.801 12.011-3.361 4.382-2.534 10.659 1.848 14.021 4.381 3.361 10.658 2.535 14.021-1.847 2.894-3.772 5.936-7.5 9.042-11.082 13.124-15.136 21.198-33.899 23.243-53.67h20.088c-2.106 24.593-11.941 47.997-28.222 66.773-34.453 39.734-53.429 90.58-53.434 143.172v.004c0 5.514-4.486 10-10 10s-9.999-4.485-10-9.998c.001-23.258 3.396-46.347 10.088-68.625 1.589-5.289-1.411-10.865-6.7-12.454-5.285-1.587-10.865 1.41-12.454 6.7-7.253 24.144-10.932 49.167-10.934 74.373v.007.011.02c.02 16.525 13.47 29.965 30 29.965s29.98-13.44 30-29.965c0-.006 0-.013 0-.02 0-47.786 17.24-93.986 48.545-130.089 9.995-11.528 17.91-24.548 23.538-38.475 5.628 13.927 13.543 26.947 23.538 38.476 31.305 36.103 48.545 82.302 48.545 130.088v.02c.02 16.525 13.47 29.965 30 29.965s29.98-13.44 30-29.965c0-.006 0-.013 0-.02 0-.004 0-.006 0-.01 0-.001 0-.003 0-.004s0-.003 0-.004c-.006-62.216-22.454-122.371-63.213-169.377-12.168-14.033-18.869-31.991-18.869-50.567zm-20-102h-20v-66.942c12.892 19.104 20 41.852 20 65.186zm-40-66.942v66.942h-20v-1.756c0-23.334 7.108-46.082 20-65.186zm-20 158.942v-72h60v72zm132.083 239.949c-5.514 0-10-4.486-10-10 0-.001 0-.003 0-.004-.005-52.592-18.98-103.438-53.434-143.172-16.28-18.777-26.115-42.181-28.222-66.773h20.088c2.045 19.771 10.119 38.534 23.243 53.67 37.608 43.373 58.321 98.874 58.324 156.281-.001 5.513-4.486 9.998-9.999 9.998z"/><path id="XMLID_416_" d="m474.987 99.487c20.461 0 37.106-16.646 37.106-37.107 0-16.996-11.49-31.35-27.106-35.727v-16.606c0-5.523-4.478-10-10-10s-10 4.477-10 10v16.606c-15.617 4.378-27.107 18.731-27.107 35.727 0 20.461 16.646 37.107 37.107 37.107zm0-54.214c9.433 0 17.106 7.674 17.106 17.107s-7.674 17.107-17.106 17.107-17.107-7.674-17.107-17.107 7.675-17.107 17.107-17.107z"/><path id="XMLID_417_" d="m277.957 361.727c-1.86 1.86-2.931 4.44-2.931 7.07 0 2.64 1.07 5.21 2.931 7.08 1.859 1.86 4.439 2.92 7.069 2.92s5.21-1.06 7.07-2.92c1.86-1.87 2.93-4.44 2.93-7.08 0-2.63-1.069-5.21-2.93-7.07-1.86-1.86-4.44-2.92-7.07-2.92s-5.21 1.06-7.069 2.92z"/></g></g></svg>