<svg id="Capa_1" enable-background="new 0 0 512.011 512.011" height="512" viewBox="0 0 512.011 512.011" width="512" xmlns="http://www.w3.org/2000/svg"><g id="XMLID_1090_"><path id="XMLID_1773_" d="m499.531 354.188c-5.588-10.789-18.864-15.006-29.653-9.418l-.199.103c-12.625 6.539-27.148 8.14-40.893 4.508-8.604-2.273-17.381-3.387-26.12-3.367h-26.678l.145.161h-26.757c-25.16 0-49.284 9.304-67.93 26.197-6.513 5.902-13.945 10.164-22.03 12.558-9.311 2.757-15.586 11.463-15.508 21.172.118 14.599 14.212 25.135 28.185 20.901 14.368-4.353 27.703-11.975 39.089-22.199 5.544-4.979 11.941-8.762 18.818-11.24v108.439h100.333v-107.624c20.067 2.62 40.503-.555 58.647-9.952l1.132-.586c10.79-5.588 15.007-18.864 9.419-29.653z" fill="#a0c8ff"/><path id="XMLID_1772_" d="m10 255.879h40v246.127h-40z" fill="#ffd88e"/><path id="XMLID_1771_" d="m132.085 269.089c-19.79 0-35.833 16.043-35.833 35.833v8.294c0 19.79 16.043 35.833 35.833 35.833 19.79 0 35.833-16.043 35.833-35.833v-8.294c0-19.79-16.043-35.833-35.833-35.833z" fill="#f4c6af"/><path id="XMLID_1770_" d="m109.135 369.148c8.686-12.585 23.001-20.099 38.293-20.099 25.697 0 46.528 20.831 46.528 46.528v106.428h-104v-71.305c0-21.987 6.689-43.455 19.179-61.552z" fill="#ff7a7a"/><path id="XMLID_3279_" d="m403.667 105.732v-52.059h44.333v84.499z" fill="#9da5be"/><g id="XMLID_3277_"><path id="XMLID_3278_" d="m468.675 209.685-212.675-141.967-212.675 141.967-26.65-39.923 239.325-159.756 239.325 159.756z" fill="#ff7a7a"/></g><g id="XMLID_3275_"><path id="XMLID_3276_" d="m468.675 209.685-212.675-141.967-212.675 141.967-26.65-39.923 239.325-159.756 239.325 159.756z" fill="#ff7a7a"/></g><path id="XMLID_1749_" d="m384 266.215c-19.79 0-35.833 16.043-35.833 35.833v8.294c0 19.79 16.043 35.833 35.833 35.833 19.79 0 35.833-16.043 35.833-35.833v-8.294c0-19.79-16.043-35.833-35.833-35.833z" fill="#f4c6af"/><g id="XMLID_1746_"><path id="XMLID_1747_" d="m120.517 417.949c-1.704 0-3.434-.199-5.164-.615-38.479-9.258-65.353-43.363-65.353-82.939v-36.179c0-12.15 9.85-22 22-22s22 9.85 22 22v36.179c0 19.163 13.013 35.677 31.645 40.159 11.813 2.842 19.085 14.723 16.244 26.535-2.427 10.084-11.439 16.86-21.372 16.86z" fill="#f4c6af"/></g><g id="XMLID_48_"><path id="XMLID_710_" d="m35.007 215.236c1.473 2.206 3.761 3.736 6.362 4.255 2.603.522 5.301-.017 7.507-1.489l71.432-47.683c4.594-3.066 5.832-9.276 2.766-13.869s-9.275-5.832-13.869-2.766l-63.115 42.131-15.545-23.288 225.455-150.498 186.392 124.422c.013.009.027.018.04.027l39.024 26.05-15.545 23.288-204.359-136.416c-3.361-2.244-7.742-2.244-11.104 0l-66.389 44.316c-4.594 3.066-5.832 9.276-2.766 13.869 3.066 4.594 9.275 5.833 13.87 2.766l60.837-40.61 207.124 138.261c1.656 1.105 3.59 1.683 5.552 1.683.652 0 1.307-.063 1.956-.193 2.601-.519 4.889-2.049 6.362-4.255l26.649-39.923c3.066-4.594 1.828-10.803-2.766-13.869l-42.877-28.622v-79.15c0-5.522-4.477-10-10-10h-44.333c-5.523 0-10 4.478-10 10v36.206l-132.115-88.191c-3.361-2.244-7.742-2.244-11.104 0l-239.324 159.756c-4.594 3.066-5.832 9.275-2.766 13.869zm378.66-151.563h24.333v55.8l-24.333-16.243z"/><path id="XMLID_713_" d="m508.411 349.752c-3.931-7.59-10.582-13.195-18.729-15.782-8.148-2.59-16.813-1.85-24.406 2.085l-.196.102c-10.418 5.395-22.401 6.717-33.74 3.719-3.48-.919-6.998-1.668-10.539-2.246 5.671-7.629 9.033-17.072 9.033-27.286v-8.294c0-25.272-20.561-45.834-45.833-45.834s-45.833 20.562-45.833 45.834v8.294c0 9.598 2.971 18.512 8.034 25.883-26.495.752-51.766 10.885-71.468 28.736-5.444 4.934-11.553 8.426-18.155 10.381-13.461 3.986-22.783 16.669-22.668 30.842.083 10.194 4.843 19.509 13.062 25.555 5.571 4.098 12.102 6.219 18.76 6.219 3.088 0 6.203-.456 9.262-1.383 15.578-4.72 30.402-13.133 42.87-24.329.695-.624 1.411-1.216 2.137-1.795v91.554c0 5.522 4.477 10 10 10s10-4.478 10-10v-100.882c3.064-.62 6.202-.949 9.376-.949 5.523 0 10-4.478 10-10s-4.477-10-10-10c-16.594 0-32.531 6.104-44.875 17.189-10.304 9.253-22.513 16.192-35.307 20.069-3.562 1.079-7.343.421-10.371-1.806-3.092-2.274-4.883-5.776-4.915-9.606-.043-5.305 3.39-10.034 8.348-11.503 9.502-2.814 18.218-7.772 25.904-14.735 16.803-15.225 38.542-23.608 61.215-23.608l53.314.002c7.917-.047 15.843 1.001 23.541 3.034 16.149 4.269 33.212 2.387 48.049-5.298l.197-.102c2.846-1.475 6.096-1.754 9.151-.781 3.055.97 5.549 3.072 7.023 5.918 1.474 2.847 1.752 6.097.782 9.151s-3.072 5.55-5.916 7.021l-1.135.588c-19.396 10.047-42.328 12.4-64.575 6.63-5.346-1.389-10.804 1.823-12.19 7.169s1.823 10.804 7.169 12.19c1.845.479 3.696.896 5.548 1.282v99.024c0 5.522 4.477 10 10 10s10-4.478 10-10v-96.628c1.16.036 2.318.056 3.475.055 17.412 0 34.462-4.036 49.768-11.962l1.135-.588c7.59-3.931 13.195-10.582 15.783-18.729 2.586-8.144 1.845-16.81-2.085-24.4zm-150.244-47.703c0-14.245 11.589-25.834 25.833-25.834s25.833 11.589 25.833 25.834v8.294c0 14.244-11.589 25.833-25.833 25.833s-25.833-11.589-25.833-25.833z"/><path id="XMLID_716_" d="m167.203 342.627c6.682-7.966 10.716-18.224 10.716-29.41v-8.294c0-25.272-20.561-45.834-45.833-45.834-14.728 0-27.846 6.99-36.237 17.819-5.864-6.556-14.38-10.692-23.848-10.692-4.243 0-8.292.837-12 2.343v-12.68c0-5.522-4.477-10-10-10h-40.001c-5.523 0-10 4.478-10 10v246.127c0 5.522 4.477 10 10 10h40c5.523 0 10-4.478 10-10v-109.089c5.987 7.704 13.162 14.475 21.301 20.051-.888 5.868-1.345 11.806-1.345 17.733v71.305c0 5.522 4.477 10 10 10s10-4.478 10-10v-71.305c0-2.561.101-5.125.302-7.681 4.107 1.615 8.36 2.978 12.757 4.036 2.462.593 4.986.893 7.502.893 14.835 0 27.621-10.083 31.094-24.521 1.999-8.31.643-16.901-3.82-24.191s-11.497-12.406-19.808-14.405c-.054-.013-.107-.029-.161-.042 5.805-3.685 12.614-5.739 19.605-5.739 20.142 0 36.528 16.386 36.528 36.527v106.429c0 5.522 4.477 10 10 10s10-4.478 10-10v-106.43c.001-24.215-15.308-44.915-36.752-52.95zm-60.951-37.704c0-14.245 11.589-25.834 25.833-25.834 14.245 0 25.833 11.589 25.833 25.834v8.294c0 14.244-11.589 25.833-25.833 25.833s-25.833-11.589-25.833-25.833zm-66.252 187.083h-20v-226.127h20zm90.733-102.328c1.673 2.734 2.182 5.956 1.433 9.072-1.303 5.416-6.093 9.198-11.649 9.198-.942 0-1.893-.113-2.825-.338-33.968-8.172-57.692-38.279-57.692-73.215v-36.179c0-6.617 5.383-12 12-12s12 5.383 12 12v36.179c0 16.544 7.814 31.493 20.348 40.945.002.001.004.003.005.005.004.003.007.005.011.008 5.495 4.14 11.891 7.229 18.941 8.925 3.117.748 5.755 2.666 7.428 5.4z"/><path id="XMLID_719_" d="m145.11 129.945c-1.86 1.86-2.93 4.44-2.93 7.07s1.07 5.21 2.93 7.07c1.87 1.859 4.44 2.93 7.07 2.93s5.21-1.07 7.07-2.93c1.87-1.86 2.93-4.44 2.93-7.07s-1.06-5.21-2.93-7.07c-1.86-1.859-4.43-2.93-7.07-2.93-2.63.001-5.2 1.071-7.07 2.93z"/></g></g></svg>