<svg id="Capa_1" enable-background="new 0 0 512 512" height="512" viewBox="0 0 512 512" width="512" xmlns="http://www.w3.org/2000/svg"><g id="XMLID_1323_"><path id="XMLID_2554_" d="m149 36h313c22.091 0 40 17.909 40 40v360c0 22.091-17.909 40-40 40h-313c-22.091 0-40-17.909-40-40v-360c0-22.091 17.909-40 40-40z" fill="#bedaff"/><path id="XMLID_2550_" d="m462 36h-313c-22.091 0-40 17.909-40 40v80h393v-80c0-22.091-17.909-40-40-40z" fill="#f8f8f8"/><g id="XMLID_2545_"><circle id="XMLID_2547_" cx="305.5" cy="316" fill="#f8f8f8" r="112"/><circle id="XMLID_2546_" cx="305.5" cy="316" fill="#a0c8ff" r="72"/></g><circle id="XMLID_2535_" cx="348" cy="96" fill="#d5ea7a" r="20"/><circle id="XMLID_2534_" cx="428" cy="96" fill="#ff7a7a" r="20"/><path id="XMLID_2522_" d="m163 76h80v40h-80z" fill="#9da5be"/><path id="XMLID_2520_" d="m142 420h-104c-15.464 0-28 12.536-28 28 0 15.464 12.536 28 28 28h104c15.464 0 28-12.536 28-28 0-15.464-12.536-28-28-28z" fill="#ff7a7a"/><path id="XMLID_2453_" d="m142 364h-104c-15.464 0-28 12.536-28 28 0 15.464 12.536 28 28 28h104c15.464 0 28-12.536 28-28 0-15.464-12.536-28-28-28z" fill="#ffd88e"/><g id="XMLID_1051_"><path id="XMLID_1096_" d="m305.5 194c-67.271 0-122 54.729-122 122s54.729 122 122 122 122-54.729 122-122-54.729-122-122-122zm0 224c-56.243 0-102-45.757-102-102s45.757-102 102-102 102 45.757 102 102-45.757 102-102 102z"/><path id="XMLID_1139_" d="m305.5 234c-45.215 0-82 36.785-82 82s36.785 82 82 82 82-36.785 82-82-36.785-82-82-82zm0 20c32.688 0 59.53 25.433 61.823 57.546-4.014 2.852-8.799 4.395-13.823 4.395-6.395 0-12.407-2.49-16.929-7.013-3.905-3.904-10.237-3.904-14.143 0-9.334 9.336-24.523 9.336-33.857 0-3.905-3.904-10.237-3.904-14.143 0-4.521 4.522-10.534 7.013-16.929 7.013-5.024 0-9.808-1.543-13.823-4.395 2.294-32.113 29.136-57.546 61.824-57.546zm0 124c-27.744 0-51.288-18.318-59.178-43.494 3.605.942 7.353 1.436 11.178 1.436 8.657 0 16.932-2.487 24.009-7.122 14.522 9.469 33.46 9.469 47.982 0 7.077 4.635 15.352 7.122 24.009 7.122 3.825 0 7.572-.494 11.178-1.436-7.89 25.176-31.434 43.494-59.178 43.494z"/><path id="XMLID_1154_" d="m348 126c16.542 0 30-13.458 30-30s-13.458-30-30-30-30 13.458-30 30 13.458 30 30 30zm0-40c5.514 0 10 4.486 10 10s-4.486 10-10 10-10-4.486-10-10 4.486-10 10-10z"/><path id="XMLID_1169_" d="m428 126c16.542 0 30-13.458 30-30s-13.458-30-30-30-30 13.458-30 30 13.458 30 30 30zm0-40c5.514 0 10 4.486 10 10s-4.486 10-10 10-10-4.486-10-10 4.486-10 10-10z"/><path id="XMLID_1196_" d="m243 66h-80c-5.523 0-10 4.478-10 10v40c0 5.522 4.477 10 10 10h80c5.523 0 10-4.478 10-10v-40c0-5.522-4.477-10-10-10zm-10 40h-60v-20h60z"/><path id="XMLID_1199_" d="m462 26h-313c-27.57 0-50 22.43-50 50v278h-61c-20.953 0-38 17.047-38 38 0 11.071 4.761 21.048 12.341 28-7.58 6.952-12.341 16.929-12.341 28 0 20.953 17.047 38 38 38h424c27.57 0 50-22.43 50-50v-360c0-27.57-22.43-50-50-50zm-442 366c0-9.925 8.075-18 18-18h104c9.925 0 18 8.075 18 18s-8.075 18-18 18h-104c-9.925 0-18-8.075-18-18zm0 56c0-9.925 8.075-18 18-18h104c9.925 0 18 8.075 18 18s-8.075 18-18 18h-104c-9.925 0-18-8.075-18-18zm442 18h-286.543c2.896-5.361 4.543-11.491 4.543-18 0-11.071-4.761-21.048-12.341-28 7.58-6.952 12.341-16.929 12.341-28 0-20.953-17.047-38-38-38h-23v-188h141.5c5.523 0 10-4.478 10-10s-4.477-10-10-10h-141.5v-70c0-16.542 13.458-30 30-30h313c16.542 0 30 13.458 30 30v70h-141.5c-5.523 0-10 4.478-10 10s4.477 10 10 10h141.5v270c0 16.542-13.458 30-30 30z"/><path id="XMLID_1207_" d="m305.5 166c2.63 0 5.21-1.07 7.07-2.931 1.86-1.859 2.93-4.439 2.93-7.069s-1.07-5.21-2.93-7.07-4.44-2.93-7.07-2.93-5.21 1.069-7.07 2.93c-1.86 1.86-2.93 4.44-2.93 7.07s1.07 5.21 2.93 7.069c1.86 1.861 4.44 2.931 7.07 2.931z"/></g></g></svg>