<svg id="Capa_1" enable-background="new 0 0 512 512" height="512" viewBox="0 0 512 512" width="512" xmlns="http://www.w3.org/2000/svg"><g id="XMLID_1021_"><path id="XMLID_2066_" d="m309.063 251.063c0-30.687-24.877-55.563-55.563-55.563s-55.563 24.877-55.563 55.563z" fill="#bedaff"/><path id="XMLID_2036_" d="m403.667 105.726v-52.06h44.333v84.499z" fill="#9da5be"/><g id="XMLID_2034_"><path id="XMLID_2035_" d="m468.675 209.679-212.675-141.967-212.675 141.967-26.65-39.923 239.325-159.756 239.325 159.756z" fill="#ff7a7a"/></g><g id="XMLID_2032_"><path id="XMLID_2033_" d="m468.675 209.679-212.675-141.967-212.675 141.967-26.65-39.923 239.325-159.756 239.325 159.756z" fill="#ff7a7a"/></g><g id="XMLID_1941_"><path id="XMLID_2031_" d="m360 307.063h-208c-15.464 0-28-12.536-28-28 0-15.464 12.536-28 28-28h208c15.464 0 28 12.536 28 28 0 15.464-12.536 28-28 28z" fill="#ffe4b4"/><path id="XMLID_2028_" d="m232 307.063h48v150.937h-48z" fill="#e0e1e7"/><path id="XMLID_2025_" d="m330.083 502h-148.166c0-24.301 19.699-44 44-44h60.167c24.3 0 43.999 19.699 43.999 44z" fill="#9da5be"/><g fill="#ffd88e"><path id="XMLID_2022_" d="m450 415.19h-120v-22.929c0-13.847 11.225-25.071 25.071-25.071h94.929z"/><path id="XMLID_2017_" d="m61.917 415.19h120v-22.929c0-13.847-11.225-25.071-25.071-25.071h-94.929z"/></g></g><g id="XMLID_31_"><path id="XMLID_55_" d="m450 249.063c-5.523 0-10 4.477-10 10v98.127h-84.929c-19.338 0-35.071 15.733-35.071 35.071v67.76c-8.325-6.739-18.684-11.048-30-11.864v-131.094h70c20.953 0 38-17.047 38-38s-17.047-38-38-38h-41.698c-4.328-28.161-26.64-50.473-54.802-54.802v-2.761c0-5.523-4.477-10-10-10s-10 4.477-10 10v2.762c-28.161 4.328-50.473 26.64-54.802 54.802h-36.698c-20.953 0-38 17.047-38 38s17.047 38 38 38h70v131.094c-11.353.819-21.745 5.152-30.083 11.93v-67.826c0-19.338-15.733-35.071-35.071-35.071h-84.93v-98.127c0-5.523-4.477-10-10-10s-10 4.477-10 10v242.936c0 5.523 4.477 10 10 10s10-4.477 10-10v-76.81h100v76.81c0 5.523 4.477 10 10 10h148.167c5.523 0 10-4.477 10-10 0-.989-.083-76.81-.083-76.81h100v76.81c0 5.523 4.477 10 10 10s10-4.477 10-10v-242.937c0-5.523-4.477-10-10-10zm-196.5-43.563c21.688 0 39.873 15.236 44.444 35.563h-88.889c4.572-20.327 22.757-35.563 44.445-35.563zm-119.5 73.563c0-9.925 8.075-18 18-18h208c9.925 0 18 8.075 18 18s-8.075 18-18 18h-208c-9.925 0-18-8.074-18-18zm136 38v130.937h-28v-130.937zm-198.084 60.127h84.929c8.311 0 15.071 6.761 15.071 15.071v12.929h-100zm121.501 114.81c4.28-13.883 17.23-24 32.5-24h60.167c15.269 0 28.22 10.117 32.5 24zm146.583-86.81v-12.929c0-8.311 6.761-15.071 15.071-15.071h84.929v28z"/><path id="XMLID_919_" d="m500.876 161.439-42.876-28.622v-79.151c0-5.523-4.477-10-10-10h-44.333c-5.523 0-10 4.477-10 10v36.207l-132.115-88.191c-3.361-2.243-7.742-2.243-11.104 0l-77.857 51.972c-4.594 3.066-5.832 9.276-2.766 13.87s9.276 5.832 13.87 2.765l72.305-48.266 225.456 150.498-15.546 23.289-204.358-136.416c-3.361-2.243-7.742-2.243-11.104 0l-204.358 136.416-15.545-23.289 78.295-52.264c4.594-3.066 5.832-9.276 2.766-13.87-3.066-4.593-9.275-5.83-13.87-2.765l-86.612 57.816c-4.594 3.066-5.832 9.276-2.766 13.869l26.649 39.923c1.473 2.206 3.761 3.737 6.362 4.255s5.301-.017 7.507-1.49l207.124-138.26 207.124 138.261c1.656 1.105 3.59 1.683 5.552 1.683.652 0 1.307-.064 1.955-.193 2.601-.519 4.89-2.049 6.362-4.255l26.649-39.923c3.066-4.593 1.828-10.803-2.766-13.869zm-87.21-97.773h24.334v55.801l-24.333-16.243v-39.558z"/><path id="XMLID_920_" d="m140.71 96.96c2.64 0 5.21-1.07 7.08-2.93 1.86-1.86 2.93-4.44 2.93-7.07 0-2.64-1.07-5.21-2.93-7.07-1.87-1.87-4.44-2.93-7.08-2.93-2.63 0-5.2 1.06-7.07 2.93-1.86 1.86-2.93 4.43-2.93 7.07 0 2.63 1.07 5.21 2.93 7.07 1.87 1.859 4.44 2.93 7.07 2.93z"/></g></g></svg>